<?xml version="1.0" standalone="no"?>
<!DOCTYPE svg PUBLIC "-//W3C//DTD SVG 1.1//EN" "http://www.w3.org/Graphics/SVG/1.1/DTD/svg11.dtd" >
<svg xmlns="http://www.w3.org/2000/svg" xmlns:xlink="http://www.w3.org/1999/xlink" version="1.1">
<metadata></metadata>
<defs>
<font id="veteran_typewriterregular" horiz-adv-x="1010" >
<font-face units-per-em="2048" ascent="1638" descent="-410" />
<missing-glyph horiz-adv-x="700" />
<glyph horiz-adv-x="0" />
<glyph unicode="&#xd;" horiz-adv-x="508" />
<glyph unicode=" "  horiz-adv-x="700" />
<glyph unicode="&#x09;" horiz-adv-x="700" />
<glyph unicode="&#xa0;" horiz-adv-x="700" />
<glyph unicode="!" horiz-adv-x="508" d="M37 1328v81q0 30 91 40l10 -30h172l30 20l41 -91q-53 -394 -81 -394l20 -21q0 -394 -121 -394q-101 0 -101 394zM57 185q63 142 213 142q91 -66 91 -152v-20q-13 -137 -152 -152h-30q-122 25 -122 182z" />
<glyph unicode="&#x22;" horiz-adv-x="902" d="M-9 1268h10l39 -40h-9zM-9 1317q20 0 30 109l89 98l9 10h70q158 -54 158 -286q0 -254 -178 -375l-50 -10q-79 0 -79 89q0 24 99 168l10 39v20q-35 0 -49 59q-35 0 -60 49q-49 13 -49 30zM1 902l10 10h10l59 -69l-10 -10h-10zM465 932l10 10h10l59 -69v-10h-10zM475 1347 v89q67 96 168 128q168 -47 168 -296q-57 -326 -129 -326q-27 -50 -79 -50q-98 0 -98 79l108 218v19l-29 40l19 30l-79 69l-39 -10z" />
<glyph unicode="#" horiz-adv-x="1336" d="M-10 446l81 81h12q278 0 278 93q0 46 23 46l-12 12v11l35 104v24l-93 69h-185q-23 0 -23 35t35 35v11h-24l-11 -11v11l35 35h185l12 -12l57 23l24 -23h23q49 21 162 348l116 93h11v-47l-92 -301l11 -12l-11 -34h-12v-24l81 12l81 -93v-34l-23 -24h-139 q-150 -110 -150 -254l81 -58h104l35 -23h46q81 66 81 127h23l-11 12v11l11 12v11l-11 12l23 23l-12 12l23 23v11q-34 0 -81 70v23l70 12l58 -24l174 139h185l12 -11l11 11h23l23 -23l-11 -46l11 -35h-11q-41 -35 -139 -35l-139 12q-84 -69 -151 -278q58 -69 104 -69h151 l12 -12h11l23 23h12l23 -23v-12l-46 -58l11 -11l-11 -12h-12l-11 12l-23 -23h-255q-73 0 -163 -313q-72 -116 -139 -116l-11 12v11l46 81l-11 12l46 69q-23 0 -23 35l46 128l-93 81h-150q-61 -12 -174 -313l-12 -12q0 -34 -23 -34l12 -12v-23l-12 -12v-11l-46 23l-12 -35 h-23l-23 46q3 84 81 151l58 116q0 26 -69 104v12h-186zM71 469l23 -23h12l-35 35v-12zM384 967l23 -23h12v23h-35zM662 423l23 -24l23 24h-46zM975 1060v23l46 70l-12 46l35 23l-11 12v11l34 35l-11 12v11l116 116q23 0 23 -35q0 -176 -209 -324h-11zM1102 1083v12h12 l58 -58l-12 -12h-11z" />
<glyph unicode="$" horiz-adv-x="992" d="M-1 327v53q0 49 35 62l-8 9v18h8l27 -9q0 15 106 53q54 -71 54 -106v-36l-45 -115q47 -80 98 -80h35q27 0 80 36q0 -56 80 -98q31 0 70 36l-8 177v27l70 62l9 8l9 -8v-213q45 -7 45 -44h26q122 95 133 177v44q0 146 -97 231q-20 62 -71 62l9 8v9l-18 18l-45 -9h-115 l45 -53v-9l-62 53h-18l-53 -71l9 -70l-9 -178v-44l-36 -44l-9 9l-35 -36h-18v80l-9 239q109 75 142 124v9q-26 0 -26 27q-38 -27 -71 -27l9 -9v-18h-27q-51 89 -168 89q0 20 -36 53l9 27l-62 71q11 265 44 265l9 -8h18q0 20 195 177l-9 9v35l71 71q18 0 26 -71l62 -53h18 q69 0 80 71l9 9h9l8 -9v9l-35 35l9 9h9l44 -44v17h18v-62q0 -35 53 -79l-9 -9h-26v18l-9 -9h-9l-9 9h-9q0 -20 -62 -63v-8h-18l-26 17h-71l-44 -62l-9 -212v-142l62 -44l26 8l9 -8q0 42 53 44v328l18 17l9 -8v-9l-9 -27l9 -9h9q0 36 44 36l9 -9l-9 -9l9 -44v-36q24 0 62 -44 h9q0 62 44 62v9l-18 26l9 9v9l-9 27l116 26q62 -99 62 -133l-9 -8l9 -27q-27 -106 -98 -106q-106 0 -106 62h-9l-9 -9h-9l-9 9l9 9v8q-35 40 -35 62h-9v-115l27 18l8 -9v-9l-35 -9v-44q0 -106 62 -106l18 -27l-9 -9h-9l-9 9v-9q60 -88 98 -88l8 9l-26 44h26q0 -27 27 -27 q27 -26 27 -62q44 0 70 -124v-186q-15 -100 -124 -212q-33 -34 -115 -62l-44 -54v-97l-9 -9l9 -27l-27 -35l-26 18l-18 -18l-35 27v17l8 9l-8 9l8 44v9q0 44 -79 98q0 -23 -53 -62l-9 8h-9v-53l9 -35q-9 -71 -27 -71h-9l-26 18l-9 -9v-9q-44 11 -44 27l8 8l-8 62v107 q-25 0 -62 53q-144 53 -187 159zM141 868l35 -9h9v9l-44 26v-26zM150 1045q0 -111 97 -195h9l-9 9v9l62 53v97l9 9l-9 9v18l9 8l-9 9v62q-26 0 -53 45v8l27 27q17 0 17 -35h9v53q-95 0 -159 -186zM229 371v36l18 17l18 -26l-27 -27h-9zM265 442v9h18l8 -27h-8zM504 17 l18 -18h9v18l-9 9h-18v-9zM531 575v36l17 17q18 0 18 -26l35 26h27v-35l27 18h9v-9q-45 -34 -45 -71v-36h-18v27h-44q-26 9 -26 53zM655 1435v17h9l17 -17l-9 -9h-8zM681 637l9 9h9l9 -9v-18h-9zM708 1275v18h18l8 -36h-8zM761 1195v9l35 36l18 -18v-18l-9 9h-9l-17 -18h-18 z" />
<glyph unicode="%" horiz-adv-x="1168" d="M3 74l61 -61l-9 -8h-9q-43 45 -43 69zM29 829v9h17l-8 43q0 50 121 121l9 -8v-9l-9 -9v-8q0 -122 174 -122q104 98 104 191l17 17l-17 18v17l17 26l-78 70h-9l-43 -9l-9 9v8l70 113l34 26h35l61 -17q41 11 78 69l113 35l8 -9v-8l-17 -18q61 0 61 -17q17 0 69 61h9l-17 52 q52 69 95 69l9 -26h34l52 9q59 -20 87 -61v-26q0 -122 -113 -208q-6 -42 -225 -313q-18 0 -18 -26q-255 -394 -520 -737q-17 0 -17 35l-9 -9h-9l-8 9h-9l-70 -35l-8 9v8q193 243 321 451l-9 26q17 0 17 26h18v-17h8l9 9h9l-9 43l96 122q-48 0 -61 52q-85 -31 -156 -139 q-33 -44 -70 -44q-145 0 -208 122l-9 -9h-8zM55 1072v17q0 35 174 156q0 31 78 52v-8l-130 -139l-9 -35q35 -4 35 -26l-61 -35l-26 18l-9 -26q-52 8 -52 26zM72 13l105 96l8 -9v-9l-95 -95zM411 369v9q8 43 139 217q0 26 34 26q26 -26 26 -61q63 15 96 52l52 -9l26 9 q173 -59 173 -226v-52q-13 -106 -104 -225q-63 -57 -139 -78v8q122 167 122 191l-9 -8h-8l-26 26l26 104v8q0 70 -87 96h-44l-60 -44h-44q0 -19 -78 -78q0 -34 -43 -34q0 -44 -26 -44l-9 9v9l35 52l-9 26h18l-9 8v9l43 69l-8 9h-9q0 -19 -52 -61q0 -26 -18 -26zM428 126 l61 70l-35 69h9q17 0 17 -26l9 -9h26v26l17 -17l9 9h17q0 -63 130 -131l-17 -26q35 0 35 -17l-9 -9l-43 18q0 -24 -70 -61q-95 35 -121 95l-9 -8h-9zM454 855v9h26l35 -35v-26h-9zM524 924h8l52 -52h26q-8 33 -60 87v9q-20 0 -26 -44zM550 1167l8 -60v-105q33 0 61 -60 q74 54 234 295l9 8q-52 52 -52 70l-200 -96q-11 -52 -60 -52zM827 1323l35 -26h17l9 44l-26 8q-35 -13 -35 -26zM888 1271h9l26 35h-9l-26 -26v-9zM914 1263q17 -39 35 -44l34 52l18 18v17h-18q0 -26 -17 -26h-9v9l9 8v9h-9z" />
<glyph unicode="&#x26;" horiz-adv-x="1259" d="M1 318v119q0 120 90 120h30l9 -10h10q0 20 30 20l10 10v10l10 -10h10l100 69v20l-50 30h-10l-80 -60h-39v20l129 160l50 69q-70 68 -70 219q0 135 60 259q132 70 219 70l10 -10l20 20q157 0 199 -249v-70q0 -196 -219 -368q102 -229 159 -229l110 259l-20 20 q102 109 189 109l20 -20l10 10h10q149 -47 149 -189v-40l-69 -70h-20l10 50q-90 18 -90 60h-50q-149 -152 -149 -368q0 -48 129 -160v-30l-10 -10v-10l80 -10q119 83 119 130q-24 30 -49 30q0 20 30 20l9 10v10h-29l20 20h19l30 -30l10 10h10l30 -30v-80q-40 -209 -219 -209 l-100 20v-20l-149 139q-22 0 -109 -89l-150 -60h-109q-257 0 -339 319zM111 587l29 29h10l-29 -29h-10zM170 358q0 -160 209 -220h10v30h80l50 40l10 -10q0 20 70 80v10l-90 169l20 20q-40 0 -40 30v20h20v-20h10v20l-30 20h-20l-10 -10h-10q-12 40 -99 119 q-180 -112 -180 -259v-39zM389 1104q0 -174 100 -199q15 40 50 40l-10 10v10l70 169l-90 110v10h-40q-80 -57 -80 -110v-40zM1027 726h20v-10l10 10h20q0 -30 19 -30l10 50l-49 10l-30 -10v-20zM1096 656h10l20 20v30l-30 -40v-10z" />
<glyph unicode="'" horiz-adv-x="430" d="M-15 1500v9h10l9 -9h10v105l38 47v-9l9 9h10q47 -16 44 -17l-5 18h10q19 0 25 -15h19v31h9l10 -10q38 7 59 3h10q86 -72 86 -219q-50 -382 -210 -382l-76 19v29l9 9l-9 10v19q69 60 95 191v19q-124 112 -124 133l-9 -9h-10zM4 1099l10 10h9l57 -67l-9 -9h-10z" />
<glyph unicode="(" horiz-adv-x="466" d="M1 642v105l44 384h61l70 18l-79 104q0 33 52 105q0 68 149 201q78 -9 78 -44l-26 -17l9 -44v-17q-66 -166 -122 -166l17 -26v-9l-17 -18l8 -43q-87 -247 -87 -332v-131l9 -35q0 -52 -52 -52l8 -44v-26h9l26 17l96 -296q24 -14 44 -114q96 -81 96 -140v-17 q-22 -70 -79 -70h-8q-86 0 -149 183l9 9l-52 70q-25 26 -79 271l35 35v8q-26 0 -26 18l8 35h-8l-27 -18l-8 9v52l8 9v9zM202 1210l9 -26h17z" />
<glyph unicode=")" horiz-adv-x="472" d="M2 1529v37q23 0 47 28l74 28l56 -65l9 9l9 -9l-27 -47v-9l27 -65h10l9 9h9q38 -53 93 -232v-19l-37 -56q30 0 37 -56h10l28 19l37 -242v-205q-102 -644 -307 -763q-65 9 -65 65l-10 9v19q0 112 65 112q82 21 159 121v9h-10q0 -46 -65 -46l-28 83q56 191 93 196l-9 9v9 q21 289 93 289v18q0 26 -65 47l-19 195q66 17 66 38q0 16 -94 83q0 56 -195 382z" />
<glyph unicode="*" horiz-adv-x="699" d="M16 1377v29q17 39 55 13h20v9q78 -9 124 -25v129q0 73 91 91h27l28 -27v-137l-1 -66q75 22 149 31v-9h20q38 26 55 -13v-29q22 -71 -45 -78l-124 -6l62 -80l10 -17l-3 -10l4 -6q16 10 76 -39q22 -50 -46 -86l-43 -7q-98 109 -170 151l-3 -8l-6 6l-13 9q-10 -6 -22 -19 l-75 -64l3 -8l-57 -52q-36 -39 -107 29q-6 42 34 66l129 127l-128 18q-57 -10 -44 78z" />
<glyph unicode="+" horiz-adv-x="756" d="M6 782q27 38 100 64l46 -9h109q14 0 29 6l-21 40l24 52l-9 112l36 52h28q91 -18 91 -91v-137l-19 -15l33 8l72 -36h137l27 -28v-27q-18 -91 -91 -91h-136l-27 4l-17 -161q52 -104 -79 -110q-65 21 -64 101l9 45v121h-187q-91 0 -91 100z" />
<glyph unicode="," horiz-adv-x="445" d="M0 96v9h10l9 -9h10v105l38 47v-9l9 9h10q47 -16 47 -47l10 9h10q19 0 19 -28h19v38h9l10 -10q38 7 47 48h10q86 -72 86 -219q-50 -382 -210 -382l-76 19v29l9 9l-9 10v19q69 60 95 191v19q-124 112 -124 133l-9 -9h-10zM19 -305l10 10h9l57 -67l-9 -9h-10z" />
<glyph unicode="-" horiz-adv-x="670" d="M6 782q27 38 100 64l46 -9h109q31 0 64 27h55l36 -9l37 9l72 -36h137l27 -28v-27q-18 -91 -91 -91h-136l-64 9l-82 -9h-219q-91 0 -91 100z" />
<glyph unicode="." horiz-adv-x="363" d="M-5 48l10 10v105l66 76l10 -10h9l38 29q15 -38 29 -38l38 38l10 -10l9 10h10q33 0 47 -105v-29q0 -73 -85 -143h-96l-9 -9h-10q0 33 -76 76z" />
<glyph unicode="/" horiz-adv-x="868" d="M-15 19h16l-8 8v8l40 40l-8 40l121 161l24 41l-8 40l121 226q30 22 113 193l-8 8v32q95 119 250 411l-8 25q64 193 169 193h8l8 -8h8l16 16l24 -32v-32q-108 -182 -596 -1129q-99 -215 -145 -258h-8l-8 8l-48 -40l-9 8l-56 -32l-8 8v65z" />
<glyph unicode="0" horiz-adv-x="1071" d="M-1 680v10q26 356 69 356l-10 49q263 307 396 307h39q0 29 20 29l40 -9l9 9h10q47 0 119 -59l-10 -10v-10l10 -10l-30 -9l20 -30l-10 -10v-10q40 0 40 -39h10q29 0 89 39q98 -131 98 -178q0 -20 -29 -20l29 -79h10l10 10h10q37 -74 50 -237l-20 -148l10 -10 q0 -178 -178 -475l-60 -59l-49 10l-59 -69l-10 10l-10 -10h-168l-119 19v-19h-10l-178 187l30 50q-32 0 -39 69l-10 -10h-10q-28 0 -50 89l40 50q-33 66 -89 108zM118 680l19 -20l-9 -10v-39l29 20l79 -238v-9h-20v-20q31 0 60 -50v-10h-10q-59 39 -59 70l-20 -20 q20 0 79 -59l30 9l108 -98l20 19l50 -10h79q56 0 138 99q41 0 59 50q0 20 30 20l-20 39l69 208q50 13 50 69q-59 0 -59 198q0 19 29 19v30q-39 0 -39 59l-10 -10h-20q-46 145 -178 228l-79 10h-99q-121 0 -237 -336q0 -151 -69 -208v-10zM177 304l30 -19v10l-30 19v-10z M740 1342h10q45 -19 50 -39v-10h-10z" />
<glyph unicode="1" horiz-adv-x="1014" d="M2 68v40l79 79l59 -10l30 29l178 -9q14 44 89 69l20 49l-10 10l10 10h10v-20l10 10h9l10 -10v-10q-25 -29 -49 -29v-10h10l89 20q0 -61 69 -99h198l69 10q17 -50 49 -50q-20 -128 -118 -128l-198 10l-89 -20h-168l-79 -20h-10q-267 44 -267 79zM12 1304v10l20 19l-10 10 l10 10h10l9 -10q0 27 50 50l99 -60v40h19l10 -10h10l40 50h128q20 0 20 -30h20l20 20q98 -48 98 -168q0 -36 -88 -129v-20l39 -10l30 30h10l-10 -39l10 -80l-10 -474l-10 -10h-10v30h-30q60 -61 60 -109l-10 -10h-10l10 -10v-20q0 -13 -149 -49l-9 -10l-10 10v10l10 10 l-10 10v19l10 10l-10 10v30q79 66 79 128q-25 0 -69 40l9 148v99l-9 267l59 49h-40v-29q-57 32 -79 69v10h10l50 -40v20l-30 30l-69 -10h-50l-10 10l-10 -10h-79q-128 0 -128 89zM486 454h40l-30 29h-10v-29z" />
<glyph unicode="2" horiz-adv-x="1014" d="M0 97q0 87 68 87v19l-49 59l39 154h19l10 -9h10q0 36 155 203q0 44 184 116l29 -9v9l39 39h48l29 -19q136 30 136 155l29 29l-10 48l10 10h9q-37 242 -232 242h-145q-51 0 -107 -68l-9 10v-19q38 -64 48 -126q-21 -165 -145 -165q-93 0 -126 155l19 19l-19 29 q0 41 58 107l-20 39q0 66 223 155q25 58 78 58h9l29 -20q26 22 97 29q0 -19 87 -19q0 -27 88 -39q213 -99 213 -339v-19q0 -420 -523 -504q-119 -78 -175 -164v-10h10v19h10l68 -58l38 10q225 -107 310 -107l49 10l19 -19h10q51 0 77 193l39 49h58q19 0 19 -29h29l-48 58 l10 10h9l59 -68l-20 -29l-10 9h-19l10 -9v-20q0 -238 -107 -290q-145 -68 -184 -68h-39l-242 107q-9 29 -58 29h-68q-103 -107 -145 -107q-48 0 -87 68z" />
<glyph unicode="3" horiz-adv-x="1014" d="M4 291v77q0 68 48 116l49 -19v19l-10 10v10l29 19h20l9 -10l29 10l-9 10v9l9 10h10l10 -10v-9l-10 -10v-10q32 0 78 -77v-78l-20 -87q0 -25 116 -106q44 -78 97 -78q69 116 145 116l10 -9v-10q145 107 145 165l-9 9h-10l19 107q0 163 -174 290h-87l-165 -38l-9 9v10 l174 174q0 49 -58 49l10 10v9l-10 10q25 0 39 87l38 39v10l-48 58l10 9h9l49 -48v10q-39 20 -39 48l-116 -10h-116q-52 -24 -107 -174l-48 -10q-40 0 -107 68v10l10 -10h19v19q46 226 68 243l10 -10q78 0 184 48l135 20q0 -15 39 -29l116 9l78 -19l-10 -10v-9l58 -78 l-29 -19q-41 58 -87 58v-10q70 -77 106 -77q0 19 68 19l20 19l9 -9q-56 -101 -213 -281v-10l78 -68q48 0 48 -19l-19 -48h9q68 -14 68 -39l49 10q87 -68 87 -194v-213q-20 -23 -20 -68q-74 0 -106 -68q48 -3 48 -48q-46 -113 -290 -194h-87l-20 19q15 0 29 39v10h-9v-20h-10 l-68 39l-29 -39l10 -29h-10q-339 78 -339 272zM382 910l48 49h10l-49 -49h-9zM537 1230l58 -58v29q-39 0 -39 29h-19zM595 1249q29 0 29 -38h19l-48 48v-10zM614 1308l39 -10v10l-10 9v10l-29 -10v-9zM701 1356v19l58 10l10 -10v-9l-10 -10h-58zM711 1317v10l19 19v-9z" />
<glyph unicode="4" horiz-adv-x="1077" d="M-5 406q29 0 29 39q65 38 156 321q221 414 349 534q0 26 98 107h29q87 -66 87 -155v-253l10 -49l-68 -39l10 -9v-10l-20 -29l10 -49h10l38 29h10v-291q30 0 68 -58l10 9h97l29 20l29 -58l10 9h10l19 -19v-10l-10 10h-19l10 -10v-10q0 -97 -224 -97q-39 0 -39 -58h-9 l-29 10l-10 -10v-10l97 -87h58q107 0 107 -107q0 -56 -68 -78l-48 10h-224l-155 10l-49 -10q-48 13 -48 68q7 97 48 97l10 -10h10l58 20v-10l-10 -10v-9l39 -20q146 47 146 97q-25 0 -29 39h-30q0 -29 -19 -29l-10 10v68h-39v10l10 9v10l-194 -10h-224l-48 -9q0 22 -78 77z M267 533q58 0 58 -39q234 0 234 48l29 10v10l-10 155l87 88q-29 0 -29 48l29 29h-9l-68 -48l-10 9v78h29v10l-29 48l10 10v20h-10v-20h-10l10 -10v-9l-10 -10v-10l10 -9l-10 -10h-9l-49 58v10h19v10h-19q-243 -379 -243 -457v-19z" />
<glyph unicode="5" horiz-adv-x="977" d="M3 326q0 105 78 156h19l20 -20l68 30v-20l9 10h10q29 0 49 -97v-29l-20 -107l146 -98h29q194 42 243 127l49 68l-10 48v195q-8 102 -165 252l-49 -9h-126q-101 -68 -204 -195l-10 -9h-10q-77 17 -77 77l19 224l-10 175q0 156 59 262l-10 10l78 39h19l321 -39l126 9 q8 -33 58 -58h29q0 29 20 29l19 -19v-20l-9 -38l9 -30q-37 -29 -87 -29h-379q-68 -68 -88 -68v-58l-9 -49l58 -19v-10l-10 -10v-9l68 -10l39 39l39 -29h88l68 9l68 -68l-10 -9v-10q32 0 68 -29v19l-10 29h10q72 -43 116 -165q59 -131 59 -243q0 -300 -214 -466l-223 -68h-59 q-42 35 -175 49q-194 144 -194 281zM13 666l9 10h10l68 -78l-10 -9h-9zM557 851q39 0 39 -39h19l-48 49h-10v-10zM625 968v9l10 10h9l10 -10v-9l-10 -10h-9z" />
<glyph unicode="6" horiz-adv-x="977" d="M6 528v167q6 58 29 58l-9 69q0 210 127 294q0 123 157 177q111 118 304 118v-20q-29 0 -29 -20v-29l68 20l-19 -30h29l30 20l19 -20l30 10l-49 69v9q84 -57 117 -157v-78q0 -118 -186 -118l10 10v10q-46 0 -89 118l-58 39h-10q-199 -189 -236 -265v-20q26 0 69 -58l79 58 q66 -5 88 -39l49 10l10 -10v-10l-20 -19l49 -49l-10 -10h-10q0 -30 69 -59l30 10l39 -39h19q0 46 79 58q118 -169 118 -323q-48 -255 -89 -255l-10 10h-9q0 -27 -30 -59l10 -30q-114 -127 -265 -127h-98l-147 29v-19h-10q-19 0 -19 49q-103 0 -197 284l40 20v10l-20 29v10 l10 10v9q-59 0 -59 79zM124 332l10 10h9l59 -10l30 10l166 -138q142 4 226 59h10v-20h19l30 30v19l-10 -9h-20v19q33 0 40 59l39 30l-10 9v157q0 92 -206 245l-10 -9v-30l-68 10h-69q-177 -69 -177 -196l-9 -59l9 -98q-29 0 -29 -39q0 -20 -29 -20l-10 -10v-19z" />
<glyph unicode="7" horiz-adv-x="938" d="M-6 900v10l20 30v78h9q34 -29 89 -39l59 49h9v-118q-46 -78 -88 -78q-18 0 -88 78zM4 1361q0 52 49 79l10 -10h9l20 20l10 -10v-10l-20 -20h20q0 30 20 30h9q23 -20 69 -20l20 -19l147 39q48 -9 235 -187h20l78 69l-10 10v10l10 10l-10 9v20l40 39h9l20 -19l10 9h10 q39 0 49 -127q0 -216 -128 -491l-49 -107q-167 -232 -167 -501q0 -147 -68 -147l-49 -39l-49 78l-10 40h10l-20 49l20 29l-10 30q15 235 69 235l-10 10v10q0 16 68 29v10q-29 0 -29 108h20q0 -30 29 -30v69q0 127 78 176q118 141 118 197q0 88 -157 88l-137 127h-49 q-43 0 -147 -98l-20 -49q-59 7 -59 20l-10 -10q-58 7 -58 20zM632 802l29 20h10l10 -10h9l10 10v19l-10 -9h-9l-20 19h-10l-19 -39v-10z" />
<glyph unicode="8" horiz-adv-x="1062" d="M4 360v88q0 20 39 20l10 10v9l-29 30l9 9v10l-9 29l68 98v10l-20 29l118 98q-118 146 -118 205v49q0 138 118 244l-10 10q153 117 283 117v-10l78 20l10 -10v-10l-39 -49l39 -9l-10 9v10l10 10h10l29 -29l20 19h19q7 49 29 49h10q108 -42 108 -59l-10 -9h-10 q14 -47 78 -88l10 9h10q68 -78 68 -224q0 -110 -117 -235q176 -136 176 -332v-49q0 -303 -313 -410l-58 -9h-147q-156 0 -264 78v19l10 10v10l-10 9h-9l-10 -9v-10q-95 0 -176 234zM150 429q20 0 30 -78q165 -176 283 -176l78 29l49 -19q0 17 88 48l39 -9l107 127l-9 48v108 q0 92 -235 195l-68 -10h-59l-39 10q-254 -97 -254 -264zM180 1122q58 -23 58 -39v-19l-9 -10q30 -105 175 -215l10 -10v-10l-19 -19v-10l9 10h10q69 0 69 -39q69 11 244 205l29 29l-10 10l10 49q0 120 -186 215q0 29 -58 58q-127 -19 -127 -58l-68 19q-101 -93 -137 -166z M199 1151l30 -29l-10 -10h-10zM434 722h19l20 19v20zM785 1327l10 10h10l10 -10v-19h-10z" />
<glyph unicode="9" horiz-adv-x="1014" d="M-1 895v48q66 323 146 323l49 39q0 32 78 78h49l-9 -10v-19h9q0 29 157 39l19 -20h68v-10l-29 -29v20h-10v-10l10 -30l10 10h10l19 -19l30 9l9 -29q49 0 49 29h29q176 -147 176 -351l10 -59v-156q0 -394 -244 -606q-97 -126 -196 -126h-234l10 -10v-10h-20q0 24 -78 98 v29l88 39q-10 78 -29 78h-30l-29 -19h-10v19q86 98 166 98l10 -10v-10l-58 -49l9 -29l49 29h10q0 -29 49 -39q0 -28 39 -48h39l68 48h10l10 -9q120 83 166 205l-59 68v10q39 0 39 29q-108 -68 -215 -68h-39q-230 0 -380 293v19q0 20 29 20v29q-49 0 -49 69zM97 748l9 -10h10 l49 10v-10l39 10l-59 78q-48 -22 -48 -78zM155 826l225 -195h117l10 -10q52 17 195 186l10 107q-60 273 -186 273v20h20v10l-59 39q-49 0 -49 -49l-29 10q-164 0 -254 -225v-88l10 -68zM175 289l19 -20l30 30h9v10h-9zM272 211h30l-20 19h-10v-19zM517 1285l48 -58l30 9v30 q-39 0 -39 39l-39 -10v-10z" />
<glyph unicode=":" horiz-adv-x="360" d="M-12 51l10 9v115l38 47l-19 19h9l10 -9q45 28 143 47l105 -76h-20v-86q0 -76 -85 -133h-96l-9 -10h-10q0 34 -76 77zM26 747v19q84 114 115 114l-20 19v-19h-28v48l38 19l38 -10l38 10l-28 38h9q76 -31 76 -114v-29q-14 -143 -133 -143h-10q-73 0 -95 48zM36 918v10 l47 47h19v-19l-9 10h-10l-9 -10v-9l19 -19zM93 985v9l19 20h9v-10l-19 -19h-9z" />
<glyph unicode=";" horiz-adv-x="557" d="M-11 31h10l28 -29h-9zM-11 -312l10 9h9l57 -66l-9 -10h-10zM-1 107v38q0 50 114 143h67l9 -9h10v19l19 -19l-10 -10q93 0 115 -257q-55 -353 -191 -353l-29 -9l-66 19v19l-10 66q48 27 48 86q67 62 67 86q0 22 -124 124zM-1 670v9l47 -47h-9zM8 756l19 19l-19 28 q12 45 67 96l124 38v19h19v-10l-10 -9v-10q36 0 67 -48h19v-19h-19l10 -47q-12 -172 -115 -172h-76q-86 50 -86 115zM122 136l29 -38h10l9 38l-9 28z" />
<glyph unicode="&#x3c;" horiz-adv-x="773" d="M0 577l20 40l2 4l17 33h2l4 7l180 56l15 -8l50 40l29 -15l22 6q8 7 14 22q2 3 3 6l248 63l24 -49l42 -4l8 -33l-17 -30l-115 -30l-239 -64l159 -25l137 -35l9 -13l11 -2l28 19l11 -2l18 -26l-3 -13v-69l9 -12l-14 -11l-12 2l-8 14l-27 -19l-610 122zM310 701l28 -15l11 3 l-5 22z" />
<glyph unicode="=" horiz-adv-x="784" d="M6 479v27q18 91 91 91h137l21 -27l125 27l200 -21q103 52 109 -79q-20 -64 -100 -64l-45 9h-110h-75h-55l-37 9l-45 -24l-52 24l-112 -9zM6 806q27 38 100 64l46 -9h109q31 0 64 27h55l36 -9l37 9l72 -36h137l27 -28v-27q-18 -91 -91 -91h-136l-64 9l-82 -9h-219 q-91 0 -91 100z" />
<glyph unicode="&#x3e;" horiz-adv-x="782" d="M0 817l14 11l12 -2l8 -13l27 18l610 -122l17 -26l-20 -40l-2 -4l23 -23h-2l-4 -7l-220 -66l-15 8l-50 -39l-29 15l-22 -7q-8 -7 -14 -22q-2 -3 -3 -6l-239 -63l-54 -7l-25 13l5 80l17 30l106 30l239 65l-159 24l-137 35l-9 13l-11 3l-46 47zM359 571l5 -22l34 11l-28 15z " />
<glyph unicode="?" horiz-adv-x="748" d="M-13 929v10l52 -51h-11zM-3 1022v156l94 124l-11 11v20q83 94 135 94l10 -11h11l134 21l177 -21l20 21q239 -143 239 -373q0 -340 -270 -415q-72 -44 -72 -145q-16 -93 -94 -93q-49 0 -72 114q0 155 83 218v10l-11 10v11l208 93l31 -10l41 51l-10 11l21 31l-11 10v73 q0 179 -217 259h-11q-140 0 -217 -93h-11v-11l104 -124h-21v-62q0 -96 -124 -114h-21q-135 39 -135 134zM267 100v10q103 0 103 73l52 -11q63 52 94 52l31 -103q-52 -156 -104 -156h-41q-135 36 -135 135zM588 888v10l11 10h10l10 -10v-10l-10 -11h-10z" />
<glyph unicode="@" horiz-adv-x="1676" d="M1 676l12 12v12l11 -12h24l106 107q-22 0 -88 93l-11 12q85 288 139 299l10 -12h13q72 109 176 179q6 23 81 63q6 3 13 6l2 -7l45 -36q66 33 108 89l109 10h10q356 -26 356 -69l49 10q47 -41 87 -78q70 -27 190 -185q94 -173 118 -269q67 -376 -105 -603l-4 -20l-8 4 q-2 -1 -3 -3l-9 10l-18 9l-10 -10h-10l-29 10q-28 -49 -58 -49v-19l19 -19l-9 -39l-10 9l-10 -9h-9l-20 19l-67 -29h-49q-60 58 -87 58l-194 -106l-19 38l19 59q-39 -10 -39 -39l-9 9q-72 -13 -116 -67h-59q-98 0 -184 164q-19 38 -19 107v97l19 19v-19h20l-29 39 q90 142 193 174q-28 56 -145 97l-19 48l-10 -10h-10l-9 10v10h19v68q0 89 116 174h10l29 -19q0 24 97 48h19l10 -10l48 29h117l38 -29l97 29q1 -20 97 -87q49 -65 49 -97v-19l-39 -58l19 -29l-10 -39q20 0 20 -29h19v39h20l-10 -339v-116q0 -54 58 -88l68 68l-10 39q2 3 5 6 l-7 7q79 91 90 299l4 61q16 4 16 53l-12 8l7 12l10 2l5 -19l9 2l-5 19q-61 4 -66 23l-7 28q-59 234 -216 329l4 7l-4 -3q-77 43 -200 85q-151 0 -208 69h-10l-20 -19l-10 9h-39l20 -29l-177 -69l2 -7q-226 -74 -337 -581v-130l62 -241l-25 -24v-12q102 -117 166 -186l3 2 q-3 -27 42 -64q0 -4 1 -8q22 -22 30 -24l-8 -13q11 -8 27 -14q20 0 20 -30l39 20l208 -69q13 -50 69 -50q0 59 236 15q19 0 19 -29h30q0 39 83 32l-10 10v20q188 -7 270 122l77 -58q-8 -19 -35 -19v-10q0 -29 39 -89q-151 -94 -198 -94q-20 0 -20 29l-134 -12v-10l10 -10 v-10q-98 -30 -288 4l-148 20l-10 -10q-178 0 -448 174l-17 18q-10 6 -21 12q-102 75 -102 106l24 24l-47 72q-64 20 -120 283zM532 413h10q19 0 97 -97l58 -39h10l77 20h58l29 -20h20q144 78 174 175l-10 9v10l10 58v10q-30 0 -58 48v10h10l48 -39v10q-10 32 -39 39 l-378 -58q-116 -93 -116 -136zM668 771q43 -38 68 -38l-59 58l-9 -10v-10zM716 820l58 -58l-19 -20h10l155 10l29 -19q106 0 106 67h10l10 -9h9l10 9v20q-19 0 -19 48q-76 107 -136 107h-126q-97 -64 -97 -146v-9zM1104 742h19l19 39v19h-19l10 -9v-20h-29v-29zM1297 113v9 q105 88 126 88v-10q-77 -97 -116 -97z" />
<glyph unicode="A" horiz-adv-x="1201" d="M0 103q4 91 81 91l20 -21q93 52 121 162l40 40l-10 61q20 28 20 121q14 0 31 100l30 11l-10 30q13 0 50 171l10 10h10l-10 41l91 211l50 202l-10 10v10q28 67 61 81h10l30 -20l10 10v10q81 0 162 -434q30 -50 211 -736q79 -80 101 -80l30 10l-10 -10l61 -81l-10 -10 l-81 10h-20v-10q40 0 40 -20l-10 -10h-10l-10 10h-10v-21l10 -30l-40 20v-20h30v-20h-10q-232 0 -232 50l-10 11h-10q0 -41 -51 -41l-20 30l10 11v10q-15 0 -30 40l10 10l10 -10h20q0 35 61 71q0 40 50 40q-40 47 -60 131q-51 29 -51 60h-292q-111 -92 -111 -171v-10 q28 0 60 -61q51 -14 51 -70v-51q-28 -50 -81 -50l-111 10l-201 -10q-44 0 -71 101zM434 547l10 -11h10l20 21l-10 10h-10zM454 627l40 -70l-30 -41q40 -14 40 -50q111 96 111 121q40 0 111 81q-72 342 -151 342q-12 -70 -51 -70l10 -30zM847 143q30 0 30 -20l-10 -10v-10h10 l31 20l10 -10h10v20l-20 30l10 10l-31 21q0 -41 -40 -41v-10z" />
<glyph unicode="B" horiz-adv-x="1234" d="M0 120q0 50 71 71v10q80 -10 80 -31h-20v-10h10l10 10l51 -10q35 0 90 61h11v242l-11 141q13 50 31 50l10 -10q0 33 80 91l-10 10h-10l2 20l-72 -30h-20v414q-64 90 -121 90l-61 -20l-50 30l-10 -10h-11l-40 41l10 10l-10 10v10q0 30 40 30q0 61 101 61l91 -20h151 q37 50 242 50h71q383 -54 383 -333v-91q0 -99 -101 -231q118 -133 152 -142v-10l-11 -10h-10l-10 10v-10l20 -60q-23 0 -30 -51l41 -50v-20l-21 -21h-10l-10 11l-30 -11v-10q30 0 30 -20l-40 -50v-10h30q5 40 30 40l10 -30q-88 -283 -201 -283q-80 -50 -141 -50h-626v20h21 v10h-61l10 -10v-10l-10 -10h-10v10l-10 -10h-10q-51 13 -51 30l21 41q-61 0 -61 50zM323 705v10h30l-20 -20zM424 770l30 -15l60 10l-60 81l1 -36l-21 -20l-10 -10v-10zM464 211q20 -41 60 -61v20l-50 61l10 10h10q30 -71 141 -71h31l50 11l30 -31q126 0 212 101l-10 10v20 q34 84 81 121l-71 162l-121 111h-161q-168 0 -212 -71v-393zM464 897q0 -44 81 -121l90 -21q5 41 31 41l30 -20h10l-10 70l10 10h10l40 -20l111 40v-10l-10 -10v-10q20 0 20 -40h21l30 20h60q0 30 61 60v31l-30 10v-30h-21l-70 90l-10 91l30 20q-46 131 -242 131h-172 q-13 -60 -70 -60v-272zM877 876v10l41 41h10v-10l-41 -41h-10z" />
<glyph unicode="C" horiz-adv-x="1004" d="M0 708v30l20 20l-10 50l10 89h20l10 -10h10l20 50l69 -30l30 30h10l-10 -100v-149q0 -92 40 -278l-20 -20q96 -140 258 -229h40q50 0 130 70q119 70 119 129q55 153 99 179l30 -10v10l20 20q20 -20 30 -119q0 -253 -279 -418l-89 -20h-60q-289 0 -398 249v10q0 19 100 29 v10l-40 30q0 40 -79 40v10l-10 -10h-10q-40 0 -60 338zM30 957l79 139l-19 20q96 197 258 278q51 20 209 30q113 -36 179 -99l10 10q97 99 129 99l10 -10v-10l-20 -40l40 -39l-10 -10h-10l-40 39q-59 -69 -89 -69v-10l20 -20l39 40h10l40 -30l30 20l10 -10v-20h-10l10 -119 v-209q0 -73 -90 -120q-40 0 -79 110q10 40 40 40v29l-20 20l10 10v20q-50 0 -80 70l10 10v10q-104 99 -169 99h-139l-159 -159l-10 10h-20l-149 -139l-10 10h-10zM50 937v10h30l-20 -20zM109 947v10l20 20v-30h-20z" />
<glyph unicode="D" horiz-adv-x="1210" d="M-22 84v10l10 -10h19q0 50 20 50l10 -10q8 49 79 49l88 -10q71 36 98 138q51 0 59 29v10h-19l19 59h-19l-40 -30l-9 10v49l9 10v10l-9 10h-10l10 49v216l-10 384l10 39q-20 0 -79 59q-167 0 -167 29q39 48 39 79l-10 10v10l10 49l-10 29h40l39 10q49 -10 49 -39h167 l49 39h10l39 -29q5 39 30 39l39 -39l49 10h69l30 -20l10 10l9 -10q0 -30 -49 -30v-9l148 -50l19 30l10 -10h10l39 30q55 0 177 -177q0 -20 -29 -20v-20l19 -59l30 20q59 -98 59 -256v-49q-7 -314 -59 -314l10 -49q-40 -184 -128 -276q-96 -127 -649 -127q0 -20 -118 -20h-59 l-39 10l-30 -10l10 10v10q-39 9 -98 68zM401 379l19 -19l30 29l10 -10l-10 -68l10 -69h-10q0 -27 78 -79h89q210 0 285 128q0 65 59 196h10l-10 10l20 315q0 102 -20 157l20 20v10q-161 196 -276 196v20h20v10q0 22 -88 49v-20l19 -29v-10h-147q0 -40 -49 -49v-246l-30 -39 q30 -10 30 -59v-266l-10 -10l10 -9v-20l-50 -49l10 -49v-10z" />
<glyph unicode="E" horiz-adv-x="1216" d="M0 1306v30q59 78 108 78h39l236 -9l29 9v-9l-29 -49h19v-10l10 10h10l29 -20l10 10h49l-10 -10v-10h10q93 0 206 108h78q24 -29 138 -39q0 -27 127 -39v-20l49 10v-393l10 -39q0 -47 -78 -78q-79 26 -79 49v196q0 70 -98 147h-265l-68 10q0 -40 -69 -69l-10 -245v-29 q35 -69 98 -69q66 0 157 157l-10 49v10q41 56 89 78h9q30 -6 30 -78v-373l-49 10l19 -89l-9 -9h-30l-49 39h-10l-58 -30q-40 89 -99 89l-78 -79v-353q29 0 78 -49h79l157 20q10 -30 59 -30q70 0 147 98l-10 69v157q73 88 118 88q29 -32 29 -59l10 10h10l19 -19v-10l-9 10 h-20l10 -10l-10 -49l10 -98h-10l10 -10l-10 -49v-59l10 -49h-20q0 29 -19 29l-10 -9v-10l59 -79q0 -52 -89 -117h-10l-49 49h-19q0 -69 -187 -69h-9l-59 10l-98 -10h-334q-284 0 -284 59v49q59 78 98 78l10 -9q0 16 127 49q0 39 49 39v68l10 30l-10 49v78l10 30l-10 49v206 l-10 49l20 20l-29 39l39 19l-20 30v39l10 196q-43 0 -69 49l30 10v10h-10l-157 -10h-20q-78 0 -78 78zM422 1277l49 10v10l-20 19l-19 -19l-10 9v-29zM657 404v20l10 -10h20v49l127 108l10 -10v-147l-10 -10l10 -10v-9l-39 -40h-20q-30 0 -108 59zM844 1051v20h9l20 -20 l-10 -9h-10zM1079 130h10l19 19h-9z" />
<glyph unicode="F" horiz-adv-x="1210" d="M4 119q68 69 109 69h109l9 -10q30 0 159 148v10l-10 -10h-10l-10 50l-30 -20q-19 0 -19 99h-10l10 69v317l-10 49q79 56 79 109l-50 30l-10 -10l-9 10v79q0 35 -70 99v9h-49l-119 -9q0 19 -39 19q-30 35 -30 99q0 63 89 109l59 -40l89 20l79 -49l70 10h118l40 39l267 -20 l247 20l-10 -10v-10q70 -36 70 -89v-138l-10 -10v-10l-30 10l-89 -10v-10l79 -79h10l30 20h10v-168q-60 -48 -60 -79l10 -30l-10 -10l10 -10l-30 -19q-19 0 -19 29l-30 -20l-10 10v20l10 10v10q-30 0 -30 20v128l70 89q-50 20 -50 60l-10 -10h-20q-50 118 -138 118h-178 q-134 0 -158 -69l-10 -10h-10l10 -198l-10 -89q5 -42 109 -168v-10h29q0 53 139 70l10 10h10q0 -30 19 -30h20v30h10l20 -327l-158 -109l9 50q0 179 -89 227l-9 10h-30l-69 -49l-10 10h-10q0 -149 -50 -149l10 -10v-49l-19 -30h9l60 30v-40q0 -129 59 -158l30 -10l109 10 l29 -10l20 20q53 0 79 -79q0 -89 -168 -89l-208 -10l-69 10l-89 -10h-217q-40 0 -40 119zM380 1009h20l19 20v9h-10l-29 -9v-20zM479 593l29 10v10h-19l-10 -10v-10zM479 672q0 -18 59 -49v20l-49 29h-10zM538 1365h20l20 20h-40v-20zM667 940q0 39 69 89h10l10 -10h10 q0 29 19 29l30 -39v-50q0 -108 -49 -108q-44 0 -80 -30h-10l10 59zM914 811l10 10h10l69 -79l-10 -10h-10z" />
<glyph unicode="G" horiz-adv-x="1141" d="M3 585l165 146v-156q0 -224 205 -370q29 0 29 -29h29q195 0 195 166l39 48l-10 10v10l39 29q0 76 -107 136q-54 0 -78 59l-10 -10h-9v10q28 116 58 116h49q204 0 204 -48l195 19v-9l10 9h9l59 -48l-30 -10l10 -10v-10q0 -62 -156 -87l-48 -59v-77l-10 -215l10 -107 q-32 -87 -117 -87q-64 78 -88 78q-102 -65 -175 -88q-312 0 -428 341zM3 760v59l19 19l-9 10v39q0 19 68 19l29 39l-19 20h9l30 -10v10l19 19l29 -19v29h20v-10l-30 -88l10 -38q-12 -78 -39 -78l-9 9h-10l-20 -19l-39 19q0 -28 -39 -48zM42 1042q15 39 29 39h10v-29l19 20 l-9 39q0 178 146 214q115 107 243 107q110 -28 204 -127q19 0 107 98l10 -10l59 19v-107l9 -39q0 -78 -117 -78l-9 10h-10l-39 -10h-49v-9q59 -59 59 -78l78 10l39 -10l9 10l30 -10l-10 -39l10 -10v-10q-10 -64 -59 -126q-14 -39 -29 -39l-10 10h-10l-29 -10q-41 46 -68 243 q-106 107 -165 107h-98q-106 0 -194 -223h-10v29q-49 -23 -49 -49h-9v29l9 10v10l-9 9h-20l-29 -19h-20zM61 712v19l20 19l29 -38l-29 -20zM830 1451l10 10h10l58 -68l-10 -10h-9z" />
<glyph unicode="H" horiz-adv-x="1231" d="M1 86v49l20 19l9 -9h10l29 29h59q0 35 68 68l-9 166v118l19 19q-19 87 -19 234q0 225 29 225l-10 10v186l-10 -10h-9l-30 29l10 10v10q-156 0 -156 39v78l19 19l10 -9q16 39 68 39h69q0 29 19 29h98l39 -29h88l29 19q49 -12 49 -29v-10q-69 -88 -97 -88l19 -29l-68 -68 v-303l68 -49l49 10l127 -10l39 29l59 -58q48 0 97 68l-10 10l10 195v39q-38 108 -117 108v-20l-78 88v10q83 68 205 68l68 39q175 0 206 -29l9 10l20 -59q19 0 39 -68q-38 -39 -127 -39q0 -20 -68 -88v-303q0 -46 -98 -108l-20 -29q0 -19 59 -39v-29h19l30 19h10v-29h-10 l10 -78l-10 -283q2 -22 58 -59h10l39 10q39 -15 39 -30l-9 -9l48 -39v9l-9 10v10l9 10l30 -10q0 -71 -98 -166l-10 10l-49 -10h-78v19h98v10q0 20 -39 20l-10 9v10l-10 -10l-88 20l-9 -10h-10l-10 10l-78 -59h10l29 20l59 -20v-19h-79l-58 -10q-59 13 -59 29l10 30l-19 19 q79 68 136 147v19h-10l10 147v166q0 42 -78 117v10h-312q0 -40 -49 -49v-381q0 -52 78 -88l10 10v10q88 0 88 -98q-34 -78 -215 -78h-186q-127 0 -127 78zM441 242l9 10h10l20 -29l-10 -10h-10zM890 96h29l-19 19h-10v-19zM1017 174l19 -39l49 19l-58 39h-10v-19zM1027 66 l19 -19h10v19h-29z" />
<glyph unicode="I" horiz-adv-x="941" d="M0 79v9l10 -9h19q0 84 128 117l138 -9q19 0 78 78l-10 10v20l10 49l-10 10h10q20 0 20 -40h29q0 29 40 49l9 -9h10v19h20v-19h10l10 59l-10 39h-10l-30 -20l-9 10v-10l-30 20l-59 -30l-10 10v314q0 47 69 89v20q-31 58 -49 58l-10 -9l-10 9v187l20 20h10q0 -30 20 -30h19 l30 20q0 18 -59 49l-20 -20l-20 20l30 29l-49 30l-40 -10l-9 10l-69 -10h-30l-9 10l-10 -10h-10q-70 0 -138 98v59l20 20l20 -20q0 30 78 40l10 -10v-30l-19 -29q19 -40 58 -40v10q4 28 118 128h40q36 -39 167 -39l-10 10v9l10 10q68 -33 68 -49v-10h-19v-19l29 19l10 -10 h10l49 59h39q74 -12 79 -39l10 10h19q23 0 30 -69q0 -98 -118 -98l-118 10l-69 -89l-10 -49l10 -127h-10l10 -10v-108l10 -30l-10 -49v-108l-10 -236l10 -9v-10l-10 -40q7 -186 40 -186l-10 -10v-10l29 -10l10 10l10 -10v-9l88 68h89q69 -45 69 -68l9 9h10l20 -19l-10 -10 h-10l-10 10q0 -77 -88 -128h-638q-61 0 -99 69l-10 -10h-9zM177 1247l19 -19h20l-20 19h-19zM471 1120h30q0 19 88 108q-39 0 -39 19l10 10h10l-10 30l-10 -10h-10l10 -10v-20h-10l-39 20l-30 -59l20 -29zM835 216v10l49 -49h-10z" />
<glyph unicode="J" horiz-adv-x="1129" d="M1 286v59q0 52 39 68l-10 49q61 108 138 108q59 0 108 -88l10 10h9l20 -20l-10 -10h-10l-9 10q0 -43 -59 -78l10 -10v-10q0 -17 -50 -29l10 -50l-19 -39h19v30h49v-10l-29 -49l29 -30h20v20l79 -49h58q71 0 138 127l-10 10v157l20 20l-10 78l59 108l-10 10v10l20 39 l-30 69l-29 -20h-10v216l10 148q-28 0 -89 78l-117 -20l-79 20v-10l10 -10v-9h-10l-39 39l10 10v10q-50 0 -50 68v10q0 72 30 79h10l39 -30h10q0 30 19 30h59q20 0 20 -40l10 -10h10l29 10v-10l-10 -9v-10l89 -20l19 20l10 -10q80 108 324 108h29q167 -29 167 -137 q-23 -79 -127 -79l-148 10h-19q0 -40 -49 -49v-206l10 -49l-59 -59l9 -10v-20l-9 -49l49 39h10v-9l-10 -59l10 -138v-157q-43 -304 -108 -304q-34 -62 -167 -128v-9h19v-20h-117l-138 20l10 49l-79 59l-9 -10h-59q-69 49 -69 167zM217 1355l20 20l-10 10h-10v-30zM315 1228 h10l39 20l20 -20l29 10v19q-39 0 -39 30q-59 -20 -59 -39v-20zM541 737v10h10l19 -20v-9h-10zM1051 1336v10l10 9h10l10 -9v-10l-10 -10h-10z" />
<glyph unicode="K" horiz-adv-x="1240" d="M-24 64v10l10 -10h20v49q12 37 139 70l10 30l-10 418l20 30l-10 10v10l30 59q-30 0 -30 20l10 418h-10q-40 0 -60 70h-19q-74 0 -80 30v59q74 90 189 90q65 -40 109 -40l60 40l40 -10l60 10q64 -26 69 -50l-10 -10l30 -30v-19l-20 -20l10 -10v-10q0 -20 -149 -60 q-70 -52 -70 -159v-149q60 -19 60 -60h10q171 186 299 279l29 49q0 28 -69 120v20l79 99l-10 10l10 10h50q27 -30 149 -40l30 10l20 -50l-10 -29h10q42 17 90 69l10 -10l20 20q29 -6 29 -79v-30l-39 -40l-10 10h-10q0 -30 -20 -30l-10 10q-126 0 -209 -169 q-117 -97 -189 -199v-40l129 -249q187 -366 239 -388l20 -20h20l50 10l10 -10v-10l9 10h10q40 -16 40 -70q0 -109 -189 -109l-109 10h-140q-109 20 -109 99h10l-10 10v10q0 28 80 40l49 70v10l-179 328l20 30l-109 90q-160 -156 -160 -239q0 -258 50 -309l50 -30q0 40 20 40 l30 -10l20 20h29q30 0 30 -69h10l30 19l10 -10v-9l-90 -70q-30 -30 -189 -30h-268q-27 0 -30 50l-10 -10h-10zM633 721q30 0 30 -30h20v10l-40 29h-10v-9z" />
<glyph unicode="L" horiz-adv-x="1192" d="M-5 1302v20q73 79 129 79l10 -10h10l30 10q0 -30 39 -30l10 -29h10v10l-10 29l30 20l20 -20q0 24 79 50l30 -30l50 20q72 -40 109 -40l119 30h59v-20l30 20h10l70 -49v-20l-10 10h-20l10 -50q-34 -69 -109 -69h-149l-60 -80l-20 -238v-645q53 0 70 -70l10 10h10l59 -39 q268 35 268 69l50 60h39l10 -10l40 20l-20 59l30 10l-10 30h-30l-29 -20h-20v10q2 50 20 50l-20 69q0 81 99 119v-10l10 10h20q15 0 39 -79l-10 -40l10 -40l-10 -59l10 -50l-10 -10v-10l10 -10v-10l-10 -49l10 -30l-10 -10l10 -69v-70q-39 -34 -39 -69q-38 -30 -90 -30h-516 l-29 30q14 0 29 39h-20v10l-49 -19l-20 19l-50 -39l-10 10l-9 -10h-159q0 -30 -20 -30h-20q-109 0 -109 89v50l10 10l-10 10v10q0 27 99 39h50l59 -49h20q66 41 89 129l30 10v10l-20 59q-29 0 -29 20v387l-10 139q20 50 20 179v49q-42 0 -60 60h-129q-129 0 -129 89z M1047 349l20 20v10h-20v-30z" />
<glyph unicode="M" horiz-adv-x="1256" d="M-38 1279l30 30v-10l-10 -10v-10l60 -60l-10 -10h-10zM2 84l60 49l10 -10h10l59 70l-10 10v20h20v100l-10 49l10 30l-10 209v40l30 30q0 -20 60 -30v10l60 40l10 -10v-448l10 10h10l69 -70l-10 -10h-10l-40 40v-30q-29 0 -29 -20q89 -16 89 -49v-10h10q0 43 70 69 l-70 379l20 20l-30 29v50l10 10l100 50q23 0 40 -179q49 -3 49 -30v-10h-10l-29 20v-20h19l-9 -10v-20h9l70 60l50 -10l50 50h10v-10l-40 -339q20 0 80 -60h10q69 42 69 60v10l-10 448q-59 10 -59 60h-20q0 -48 -100 -120h-10l-20 20h10l-10 30q79 648 120 648l39 -10l-9 49 v10q31 0 89 70h50l40 -30h50l10 10h9l30 -30h10v20h10l40 -40l-20 -20l10 -10v-39l-89 -90l-10 10h-10q0 -54 -30 -80v-10l30 -40v-189l-50 10l-70 -40h-60l20 30v10h-30q-38 -82 -39 -139l79 -70l90 100q-30 0 -30 20v29l20 20l10 -59l10 10h10l10 -10l10 10h20v-359 q-60 -48 -60 -99l40 -50l30 10v-10q0 -64 89 -100q50 -65 50 -99v-10l-10 -10l10 -10v-10q0 -18 -90 -50l-189 10l-99 -10l-80 40h-20l-70 -60l-30 10l-29 -10v10q-50 36 -50 60h-30l-70 -60l-10 10l-10 -10h-10l-30 10l-49 -10h-80v20h100v30q-50 0 -50 30l-20 -20l-80 30 l-20 -20l-30 10v-10l-10 -10v-10l40 -40v-10h-79q0 30 -20 30v-20h-10l-30 30l20 20q-30 0 -30 20zM2 1328q0 77 169 100l150 -10l29 10l-10 -10v-10q90 0 130 -358q-33 -30 -60 -30v-20l30 -70h10l10 10h10l30 -90q-20 -49 -60 -49v-20l20 -30v-10l-20 -20l-50 90l-10 -10 h-20q0 39 -39 39q0 30 -20 30l-10 -69l-10 10h-60l-50 -40l-20 20v229l-10 89l10 60q0 18 -139 110zM191 94h30l-10 10v10l10 9v10h-20zM301 900l20 -20l19 20l-29 10h-10v-10zM321 1169h19l10 30h-20zM330 950l50 -50l20 20l-20 20l10 10v20h-20zM390 193v10l10 10v10 l-10 10h10l20 -20l-20 -20h-10zM789 671h10l39 -40h-10zM808 831v9l10 10h20v-10l-20 -19zM888 293l10 -10q40 15 40 30l-20 20h-20z" />
<glyph unicode="N" horiz-adv-x="1250" d="M-3 1305v10l10 -10h20q34 89 129 89h99l39 30h40l50 -10l9 10q83 -82 139 -287q99 -201 218 -535l-10 -10q-119 10 -119 29q-56 33 -158 288q0 29 -20 29l-10 -9v19h-40l-59 -109v-10l20 -29v-20h-20l-30 20h-10l-20 -20v-10l80 -20l39 20l10 -10l-10 -10v-49l10 -60 l-39 -89h10l10 10h9l10 -10l-10 -248v-20q0 -80 90 -99q0 30 69 40q94 -30 129 -89q-20 0 -20 -40l-10 -10h-10l10 -10v-10l-40 -39l-9 10l-10 -10h-60q-60 64 -109 69q0 -23 -49 -30l-10 30h-40q0 -30 -20 -30h-10l-79 30l-149 -89q-59 76 -59 109q32 99 49 99l40 -20 q110 11 139 50h10v119l10 29l-10 50v248l20 29v10l-30 40v59l10 30l-10 50v198q28 50 59 50v9l-89 90l-10 -10h-30q-100 0 -148 39zM284 1256q17 0 60 -70q26 4 40 50h29v10q0 24 -89 59v-10q20 -39 50 -39v-20l-30 -30l-50 69h-10v-19zM602 1335l89 79h89l-50 -49l10 -30 h10q0 30 20 30h10v-10l-10 -10v-10h20v30h10l39 -30h10l169 99h49q53 0 109 -79q0 -99 -119 -99q-45 -60 -69 -60v-307l-59 -69l19 -70h20q0 30 20 30l10 -10l-10 -59l10 -486l-69 -79l19 -40q-39 -6 -49 -50h-10q0 20 -30 20l-49 -29l-119 327l20 19q0 54 -80 149v30 q42 -17 89 -70l40 -9v-20h-20v-10h40l40 20v10l-30 9l10 30h10l10 -10h9l70 139h-10l20 40v10h-10q0 -30 -30 -30v10l30 29q-13 50 -30 50h-10q-7 -50 -30 -50l-9 10l9 10v377q0 139 -59 139v10l10 9q-50 29 -50 60l-29 -20h-80zM621 225v10l10 10h10l10 -10v-10l-10 -10 h-10zM671 1365h40l9 29h-9l-40 -19v-10zM899 7v10l89 99l10 -10v-20l-89 -89zM1186 1345v10l10 10h10l10 -10v-10l-10 -10h-10z" />
<glyph unicode="O" horiz-adv-x="1089" d="M-1 545v222l10 10v10l9 -10h20l87 87q-18 0 -78 106l-9 10q72 252 116 261l9 -10h10q89 126 280 184l10 9v10q174 0 299 -155q66 0 184 -251q48 -191 48 -290q0 -625 -483 -734h-48q-65 0 -280 126q-78 100 -78 125l20 20l-39 58q-63 0 -87 212zM154 661l29 -193l-20 -20 v-9q204 -232 222 -232q174 0 174 -29l-19 -19l19 -20h10l-10 10v10l10 9h10l19 -19h10l125 106l-19 29q64 81 97 290l19 58q17 0 29 48l-10 10l10 10h10v-20h9v20q-58 19 -58 38v29q0 357 -309 493h-48q-213 0 -309 -493v-106zM714 1241h19v29h-19v-29z" />
<glyph unicode="P" horiz-adv-x="1171" d="M1 112v70l30 39l9 -10l69 10h70l29 -30l69 30v10l-10 10l10 10v88l-10 69l10 89v168q0 16 69 29v10l-20 40l10 29h-10l-29 -19l-20 19l20 395q-59 20 -59 69l-10 -10h-89q-128 0 -128 89v29l20 20l39 -10q62 79 99 79q102 -39 128 -79q39 0 39 -29l10 -10l10 -30l30 -10 l29 10l-20 20l-9 -10q0 20 -30 20l20 19l19 -19l10 39h30v-10l-10 -10v-9h10q54 24 118 108l40 -30h118l40 -9l39 9q0 -25 89 -39v-10l-30 -29h-10v-10l69 -79q79 10 79 39h20q79 -161 79 -246v-10q0 -158 -30 -158h-10l-9 10l-10 -10h-40l-10 10l-59 -40l-10 10v10l30 30 q0 246 -128 305l10 10q-61 36 -79 89q-57 -59 -207 -59h-10q-69 -69 -89 -69v-40l20 -108v-138q-19 -49 -60 -49v-20q60 -4 60 -59q88 0 118 -30h20l236 20l30 -40l168 99l10 -10q-108 -217 -375 -217h-128q-69 -69 -89 -69v-99l-10 -59l10 -79l10 10h10q0 -17 49 -29v-20 h39l40 10l10 -10h9l30 10l30 -30l19 20q30 -33 30 -59l10 10h10l19 -20v-10l-9 10h-20v-10l10 -39q0 -25 -79 -79l-217 10h-188q-34 -30 -118 -30h-59q-79 24 -79 108zM238 211v10l19 20h10zM356 714h10l20 20h-10zM691 251l10 9h10l59 -69l-10 -9h-9zM780 1286l49 -49v-10 h20v20l-59 39h-10zM938 1296v20h10l29 -30h-10z" />
<glyph unicode="Q" horiz-adv-x="1074" d="M0 573v232l19 19l-9 29q0 204 77 233q23 116 242 290h19q0 58 136 58l29 -29l19 19q30 0 145 -87h10l10 10h9q141 -85 233 -377q-56 -32 -78 -68v-20q29 0 29 -48l29 -10l29 29h10v-280l-174 -136h-10q39 76 39 126l-10 10h-10l20 77v49l-10 58l58 67q-84 82 -116 223 q-132 193 -223 193q-212 0 -280 -145q-97 -139 -97 -416q10 -235 87 -271l29 -48l-29 -19l10 -29q97 95 97 135h-10l-10 10l-9 29h9l68 29l48 -29h20l29 19q174 -75 174 -203h19q0 29 20 29l29 -39v-9h-10l-29 19q0 -39 -29 -39l-48 -38l87 -88h29q61 107 87 107l-39 48 l10 10l-10 10v19h10l29 -19q22 58 97 106h9v-10l-48 -58v-9l19 -29q0 -44 -68 -78v-19l29 19l78 -58q0 -19 -29 -19v-10h19l29 29q58 -9 58 -58l10 10h10l19 -20v-9l-10 9h-19l10 -9v-58q0 -407 -213 -407h-87l-29 -19l-10 10v29l10 9v10l-10 10l-10 -10h-9q-49 35 -49 77 l-9 -9h-10q-37 53 -68 193q-16 0 -39 58q-268 0 -396 252q58 13 58 29l-58 77l-49 -9zM261 437l10 10h10l9 -10l10 10h19l-29 -29h-9zM290 273q0 -17 145 -145v-10l-9 -10v-9h9l29 9v-19h29q45 52 146 68v10l-78 58q-29 0 -29 38q-56 97 -164 97zM387 50l39 -19l19 19v10 l-10 -10h-19l-29 20v-20zM532 1386q87 -87 87 -107l49 10q-48 64 -136 116v-19zM629 -240v-10q68 -24 68 -67h19q0 27 58 58q77 31 77 126l29 251q-38 20 -38 49h-29l-116 -126v-29l29 -165q-74 -38 -97 -87zM668 -240l29 -29v-10l-29 29v10zM726 273v10h9l29 -29v-10h-9z M822 399v9l10 10h10l9 -10v-9l-9 -10h-10zM880 902l10 10h10l10 -10v-20h-10z" />
<glyph unicode="R" horiz-adv-x="1283" d="M2 121v20q0 58 160 111q0 20 40 20l10 -10v120h20v-20h21l-41 150l-10 301l20 20l-20 30v80q0 20 61 20l10 50v20q0 17 -71 30v100q-85 101 -170 101l-10 10v20q0 140 40 140h211l20 -20l-10 -10h30l170 20l241 -20l10 10h10q290 -76 290 -261v-20h-20l-30 10l-50 -10 h-50q-101 111 -321 111h-130q-14 -61 -70 -61v-140l-50 10l10 -10l-10 -50v-30l40 30l10 -10h10l-10 -10v-30l10 -40l-10 -40l80 -60l80 10l190 -10q88 0 181 140l-10 40l10 10l-10 10v10l40 40l10 -10h10q13 70 30 70l10 -10l-10 -10v-40h20v-10l40 20l10 -10v-70 q0 -144 -160 -281l40 -120l-10 -10l-10 10h-10l-160 -20q-31 80 -121 80h-180q-14 -60 -70 -60l10 -40l-10 -80l10 -80l-10 -100q0 -56 180 -101q50 -32 50 -80v-30q-34 -70 -180 -70l-221 10v10q29 50 61 50l-61 80l-30 -10l40 -50v-10l-40 -10l-30 30l-50 -50l30 -10v-20 h-10q-100 30 -100 100zM794 442v20q0 30 110 30l10 -10h10l30 10l30 -100l-30 -30l10 -10v-10l-10 -10v-10q112 -121 170 -121l81 -70h-21v-60q-18 -70 -100 -70h-110q-140 0 -140 120v10q64 26 70 50l-20 61l10 10v10h-20l-30 -20z" />
<glyph unicode="S" horiz-adv-x="986" d="M1 984v38q0 127 152 304q0 54 219 105q250 -101 257 -133q23 0 124 123h10q38 -15 38 -57l9 10h10l19 -19v-10l-10 10h-19l10 -48q-45 -21 -67 -66v-19l10 -48h9l38 29l10 -10l-10 -10v-66l10 -29q0 -190 -67 -190h-38q-23 0 -48 114v48l10 9v10q-160 141 -267 143h-57 q-127 0 -200 -172v-47q0 -119 162 -181l10 9h9l57 -9l29 9v-9l9 9h10l48 -38h114l38 -28l47 9h10l19 -19l-48 -48v-9l29 19l38 -10v20h19q152 -112 152 -267q-47 -26 -66 -76l9 -10q-28 0 -28 -38l-57 -57v-9l47 -48q38 0 38 48h29v-10q-33 -109 -124 -171l-152 -76h-219 l-172 66q-26 0 -95 -76h-28q-76 0 -76 95v95l19 29v9l-19 20l9 47v162l-9 57q0 60 85 67q0 -19 57 -38q22 -180 67 -248q81 -114 314 -114q0 39 162 57q0 57 48 57l-10 10v9l10 10h9v-19h19l-38 76v85q-18 98 -171 210q-38 0 -38 -38h-77l-9 9l-10 -9h-9q-419 61 -419 343z M639 926l9 10h10l57 -67l-10 -9h-9zM715 231h29l-19 20l-10 -10v-10zM801 270v9l19 19l19 -19v-9h-38z" />
<glyph unicode="T" horiz-adv-x="1077" d="M1 1205l10 50v59l90 90h179l10 -10q30 0 30 30l10 10h70q49 -2 49 -20l10 10h40v-20h-30v-10q30 0 30 -30q62 0 110 60l30 10l119 -50q0 -20 40 -20l10 -10v-10h-10q0 -30 30 -30v-20h-30l20 -19l70 10v19q-30 0 -30 20l30 30l10 -10l-10 -10v-20l90 50l10 -10v-349 q0 -19 -30 -19v-50l20 -40q0 -40 -60 -40q0 -30 -30 -50v-10h-10q0 32 -90 90v10l10 -10h20v199q0 84 -80 130q0 16 -79 40q0 -29 -80 -90v-299l10 -598l90 -70h20l59 10q99 -38 100 -60l-10 -9l10 -10v-40q-43 -80 -110 -80h-39l-110 20h-50l-169 -30h-60q-74 0 -80 30 l20 30l-40 10v20l10 -10h20l-20 60h10l30 -20h10l159 129l10 50l-10 10l-9 -10h-20v428l-10 299l69 100l-20 20v10l10 10v10h-10l-10 -10h-9l-10 10v20h-20q0 30 -30 30v20q-107 0 -180 -130q-25 -289 -59 -289l-60 -10h-10q-36 19 -50 60h10l-10 10v259z" />
<glyph unicode="U" horiz-adv-x="1228" d="M2 1258v39l20 20l-10 10v9q55 59 156 59l49 -10l29 29h29l68 -19l10 10h10l49 -20l9 10h10l10 -10l10 10h19q30 0 39 -88q0 -64 -127 -107q-58 -55 -58 -117v-166q0 -78 -59 -78l10 -10v-39l-19 -19q-20 0 -20 29q-68 23 -68 39v224l-10 88l10 10l-10 39q-56 11 -58 68 h-30l-48 -39zM158 644l10 10v9l-10 30l10 9h10l19 -19h10q0 49 78 49l39 39l10 -10v-351q0 -105 146 -225q241 33 293 88l9 -10h10l78 88v10q-4 20 -49 39l-9 -10l-10 10v166l-10 10v9l49 20l-39 49l29 29l-19 19v78l-10 88q10 78 29 78l10 -10l10 40l-39 58v117 q-34 62 -156 117q0 25 -39 29l-10 10v10h10l29 -10q64 78 88 78l107 -10q37 0 88 49l136 -19l-9 9v10h9q20 0 20 -39q49 0 49 -78l-10 -49l10 -9q-118 -40 -147 -98q-5 -283 -19 -283l10 -49v-361q0 -373 -352 -458h-97q-205 0 -322 205l-10 -10h-10v10l10 10v9l-29 117z M168 1278l68 -49h39q0 29 29 29l10 30q-39 0 -39 19h-88l-19 -19v-10zM470 1424l10 10h10l49 -59l-10 -9h-10zM870 380l10 -9h10l9 29h-9z" />
<glyph unicode="V" horiz-adv-x="1204" d="M0 1294v30l90 80v-20l-40 -50v-10q66 0 80 -39v-10h-10l-30 19v-19h-10l10 -10v-10l-20 -20h-10l10 10v10l-30 30v9l10 -9h10v9l-30 20v-20h-30zM130 1225v10l39 59l-10 10q41 21 70 70l-10 10v20l10 -10h10q0 40 20 40l10 -10l10 10h20l40 -30h70l39 -10l40 10 q10 -40 70 -40v-20l-50 10v-30q0 -55 -79 -89q0 -40 -30 -40h-10v20l10 10v10h-10l-20 -20l50 -219l-20 -20l-10 10h-10q-58 0 -110 -40q-23 0 -40 119v30q0 20 40 20l-10 10v10l30 40h-20q0 -30 -20 -30l-90 90l-10 -10h-19zM289 846l30 30l-20 70l10 10h10l50 -50l10 10 h20v-20h20v10l-10 10v10l10 10h10q36 -103 69 -299q92 -359 140 -359l10 -10l50 70l20 20v10q-23 26 -30 99l-50 10q50 289 89 289v20h-9q0 170 69 170q0 25 40 30l30 -10l-30 39v10h10l30 -20v20h20v-29h10l10 9h10l10 -9v-10l-150 -588q-45 -241 -79 -259l-10 9l-10 -9 h-60q0 -60 -60 -60l-20 -40l40 -10v-20l-50 -10v10q0 20 -50 40q-49 70 -49 219l-60 229l10 10v10q-47 0 -90 329zM578 437v10h10l20 -19v-10h-10zM638 1314v10l10 -10h10q0 60 40 60l-10 50h10l59 10l30 -30h210l59 10l30 -10l10 10v-20q50 -14 50 -70q0 -80 -120 -99 q-59 -56 -89 -150l-60 -10l-10 10l-60 -60h-10l10 10v10h-20v10l30 80l-10 10h-10l10 50v10q-50 0 -50 20v10l10 -10h10v20h-10l-10 -10h-10zM727 368h20v30l-20 -20v-10z" />
<glyph unicode="W" horiz-adv-x="1271" d="M1 1304l10 10h10l20 -20q0 106 139 120l60 -10l50 10q38 0 80 -60v-10q0 -73 -80 -119l-20 -40l10 -70l-10 -10h-10l-20 20l-50 -10l-10 10h-10l-29 -10q0 73 -140 189zM150 996v19l20 20h20l10 -10l10 10h70v20h20l60 -348v-10h-40v-10l10 -10l-10 -30l10 -30l50 20v-50 q43 0 89 50l80 10l10 -10l10 10l10 -30q-58 -608 -130 -608l-49 -10h-10q-38 0 -110 70h20l-40 249q50 22 50 70h20v10q-100 0 -100 149q58 38 60 60q-30 0 -30 20l10 30h-10l-30 -10q-20 16 -80 349zM380 677v10h10l49 -50l-9 -10h-10zM390 1334v10l49 -10q0 30 20 30 l10 -10q0 28 60 60l70 -10h10q33 0 70 30q149 0 149 -140l-80 -79v-20q32 -568 100 -568l40 -30h20v10l-20 20l50 289h10q20 0 20 -30l109 70l10 -10v-10l-99 -548q-64 -389 -140 -389h-30q-36 0 -99 60l9 10v10l-49 618v29q-28 60 -80 60v-10l-20 -50q-110 8 -110 30v20 l10 10l-10 10q10 186 40 209l-20 20v10q0 25 40 30l-10 10v100q0 43 -80 119v20l-9 -10h-10zM838 1334v10l10 10h10l10 -10v-10l-10 -10h-10zM878 1314v40q44 80 60 80q40 -15 40 -30l10 10l69 -10h100q20 0 20 -40l10 10h10l20 -20v-10l-10 10h-20v-20l-70 -199 q-7 -110 -40 -110h-20l-10 10h-10q-30 -23 -30 -69l-59 39v20l20 30l-10 30l10 50v70q0 20 -90 109z" />
<glyph unicode="X" horiz-adv-x="1219" d="M-37 96v10l10 -10h20q0 49 79 100h60q0 22 69 79q53 43 120 179l49 69l-10 30q0 72 149 90q0 24 40 29l-10 30l10 30l-10 10l-50 -20l-10 10v10l30 40q-40 22 -129 178q-45 20 -50 40q20 0 20 40l10 10h10q-23 59 -40 59l-9 -10q-36 90 -80 90l-20 39q-218 0 -218 110v20 q0 79 119 79l268 -30l10 10h10l69 -30l20 20l20 -59v-30q0 -47 -79 -109v-20h-10l10 -10v-10l-10 -10l129 -189l30 -20q106 107 119 209v20q0 49 -99 129v40l9 10l-9 9v10l19 20l10 -10h10q21 40 50 40q68 -1 109 -30q0 30 20 30h20l30 -10l49 10h50l30 -20l10 10l10 -10 l-10 -10v-20q39 -5 39 -29l-10 -10v-10h40l30 20l10 -10v-20l-80 -80h-109q-52 -3 -218 -357q-15 0 -30 -40q-15 0 -30 -40q-49 -2 -49 -19q86 -87 337 -537q119 -36 119 -69l30 20h10l60 -50v-10l-10 10h-20q0 -30 -30 -30l10 -10v-10l-50 -49h-29v20l9 9v10h-29 q0 32 39 80l-29 20h-10l10 -10v-10l-10 -10h-10l-30 30q-82 -28 -179 -149h-40q-48 0 -129 49v20q129 92 129 129q-85 139 -139 288l-39 30h-20q-58 -66 -169 -298l99 -119v-10q0 -89 -99 -89l-258 -30h-50l-10 -10h-10q0 30 -99 99zM321 1397l19 -20h10l20 20h-49zM996 37 v10h10l30 -10v-20h-20z" />
<glyph unicode="Y" horiz-adv-x="1234" d="M-1 1265v40q69 99 189 99q73 0 110 -70l39 -29h10q0 42 50 89l-10 10v10l10 10l119 -80v-10l-9 10h-20v-29q0 -39 -90 -130h-10l169 -388v-10q74 0 100 110l40 89h10l10 -10h9l70 150q0 94 -109 159l-10 49v10q20 70 59 70l10 10v10l50 -10h149l40 -30l80 20 q99 -36 99 -99q0 -62 -49 -90l-10 10q-155 0 -219 -229q-219 -418 -219 -488v-169q0 -179 109 -179h50l30 20h30q37 -40 79 -40l10 -10v-10q-23 -69 -40 -69v10l-10 -10h-39q-27 0 -30 49h-10q0 -37 -70 -49v-20l10 -10v-10l-30 -20h-39l-10 10l-10 -10h-40l-30 10l-50 -10 h-288l-30 30q114 139 189 139q0 30 50 30l10 30l-10 259l49 49v30q-39 0 -39 60q-56 0 -130 209q-16 0 -109 219l-60 99q-50 29 -50 60h-50q-109 15 -109 50zM178 1255l70 -80l40 20l-10 10v10q20 40 49 40v40l-39 -30l-30 50h-10q-46 -50 -70 -50v-10zM228 1255v20h10 l40 -40v-10h-20zM606 737l10 -10h20v30l-20 20z" />
<glyph unicode="Z" horiz-adv-x="1077" d="M-1 87v58q184 213 407 543l-10 48l58 68l49 10l-10 9v10q27 14 165 223l-10 48l48 58v10q-48 0 -67 58l-146 -10h-58q-145 0 -145 -261l-49 -87q-61 0 -125 68v9l9 -9h20v203q0 77 87 77v10l-20 29l20 29l-39 10l-10 -10l-9 10v19q0 74 126 107l116 -19l29 29h10l19 -20 l-29 -29h10q48 0 48 29h87q83 0 116 -29h165l49 -10l19 20q29 0 29 -87q0 -88 -262 -407q0 -63 -271 -397l-155 -242q0 -46 68 -107v-10h10l97 78l9 -10h204q40 -29 97 -29l77 58l-29 58q10 294 68 301h29q77 0 77 -126v-359q-6 -29 -77 -29l10 -48l-10 -10l-10 10l-97 -10 h-310l-155 10l-38 -10l-29 29q14 39 29 39l19 -20h10v10l-39 20l-78 -88h-77q-84 0 -126 68zM977 533l20 19l9 -10v-19z" />
<glyph unicode="[" horiz-adv-x="352" d="M-1 233l10 197v353q73 80 73 103l-21 21v52h-10l-31 -11l-11 11v83l11 10v10l-21 21v11q0 20 73 20l41 11l31 31h10v-31l-10 -63l10 -31q-57 -18 -72 -72q28 0 41 -62h11q0 31 20 31l11 -11l-11 -10v-612l11 -114l-11 -83v-72l73 -62h41l52 10l31 -52l-20 -20l20 -21v-11 q-10 -31 -62 -31l-10 11l-11 -11v-10l-124 21l-83 -11h-31l-21 21v207zM9 1228v42l21 31l-21 21q0 20 83 41l52 -21l73 11v-11q-13 -33 -135 -124l31 -31l-31 -31l-21 62l-10 -10h-21z" />
<glyph unicode="\" horiz-adv-x="829" d="M-5 1404h31v23l-8 8v8l70 15q46 0 131 -216q31 -29 31 -54l-24 -23q31 0 31 -46q47 0 155 -209v-8q-49 -61 -78 -61l55 -62v-8h-8q-47 31 -47 54l-23 -15q-25 10 -185 332l-77 131l8 8v7q0 18 -54 70zM180 1111q19 0 46 -39l8 23l-38 31h-16v-15zM319 794v8h8l54 -46h8 q0 21 54 46h7q21 -13 185 -355l170 -308l31 -93l-31 -31v-8h8l8 8h7v-15h-23l-31 -8l-31 8l-7 -8q-70 52 -93 154l-123 240q-186 339 -186 370z" />
<glyph unicode="]" horiz-adv-x="365" d="M-94 -12l34 6l52 -10l41 18l79 -16l-6 132l-10 83l10 114v115l-46 -7v11q7 18 46 53v87h3l7 46l-10 31q57 18 64 48q-20 24 -33 56h-10q0 -31 -21 -31l-10 11l10 10v388l-10 114l10 83v72l-73 62h-41l-52 -10l-31 52l21 20l-21 21v11q10 31 62 31l11 -11l10 11v10 l124 -21l83 11h31l21 -21v-207l10 -166l-10 -197v-129q-72 -80 -72 -103l60 18v-22h11l-9 -28l10 -11v-83l-10 -10v-10l20 -21v-11q0 -9 -15 -14h5v-11l16 -15v-42l-16 -24v-12l16 -16q0 -9 -15 -17l9 -184l-10 -166v-207l-21 -21h-31l-47 5l-85 -6l-42 -2l-43 14l-11 -11 l-56 -8l-6 50v18z" />
<glyph unicode="^" horiz-adv-x="593" d="M70 912q-24 34 0 74l141 407l46 40h27q60 -13 60 -34v-6l-7 -33q40 0 40 -54l94 -226v-20l-7 -7v-7q19 0 46 -72q0 -65 -64 -60l-42 16q-62 202 -113 296l-7 -6h-7l-13 26h-7q0 -28 -27 -53l-66 -181l6 -6l-26 -72q-14 -52 -74 -22z" />
<glyph unicode="_" horiz-adv-x="700" d="M2 -167q27 38 100 64l50 -121l23 5l-12 104q125 3 188 0h55l36 -9l37 9l128 11l51 -17l27 -28v-27q-18 -91 -91 -91h-136l-64 9l-82 -9h-219q-91 0 -91 100z" />
<glyph unicode="`" horiz-adv-x="412" d="M82 1403v10l10 15h10l10 4l53 -7l61 -51h24q-10 54 11 57q30 -58 50 -228h-9v-20q19 -38 -14 -55h-28q-58 0 -78 44z" />
<glyph unicode="a" horiz-adv-x="1104" d="M-3 266v97l19 19v-19h20l-29 39q90 142 193 174q-28 56 -145 97l-19 48l-10 -10h-10l-9 10v10h19v68q0 89 116 174h10l29 -19q0 24 97 48h19l10 -10l48 29h117l38 -29l97 29q1 -20 97 -87q49 -65 49 -97v-19l-39 -58l19 -29l-10 -39q20 0 20 -29h19v39h20l-10 -339v-116 q0 -54 58 -88l68 68l-10 39q49 68 107 68l29 -78l-20 -97l-38 20l-10 -10h-10l-29 10q-28 -49 -58 -49v-19l19 -19l-9 -39l-10 9l-10 -9h-9l-20 19l-67 -29h-49q-60 58 -87 58l-194 -106l-19 38l19 59q-39 -10 -39 -39l-9 9q-72 -13 -116 -67h-59q-98 0 -184 164 q-19 38 -19 107zM84 295h10q19 0 97 -97l58 -39h10l77 20h58l29 -20h20q144 78 174 175l-10 9v10l10 58v10q-30 0 -58 48v10h10l48 -39v10q-10 32 -39 39l-378 -58q-116 -93 -116 -136zM220 653q43 -38 68 -38l-59 58l-9 -10v-10zM268 702l58 -58l-19 -20h10l155 10l29 -19 q106 0 106 67h10l10 -9h9l10 9v20q-19 0 -19 48q-76 107 -136 107h-126q-97 -64 -97 -146v-9zM656 624h19l19 39v19h-19l10 -9v-20h-29v-29zM849 4q105 88 126 88v-10q-77 -97 -116 -97l-10 10v9z" />
<glyph unicode="b" horiz-adv-x="1153" d="M-4 1251q24 87 39 87l29 -19q0 38 135 38l29 30h49q136 0 136 -107v-194l-10 -9v-10l-49 10l-29 -10v10l-67 -20v29q0 20 29 20v9q-33 0 -39 68l-10 10h-29q0 -20 39 -20v-19l-20 -19l-38 58l-10 -10h-10l-77 10l-29 -10l9 10v9zM238 108q15 126 39 126l-10 10v9l10 58 q-19 38 -19 107v155l19 29q-19 0 -19 29l9 10l-9 48v271l19 20h48q0 48 20 48l9 -10v-9l-19 -20h19l49 10q20 -39 48 -39q107 52 126 78h68l29 -20h29l29 20h78q176 -133 193 -233l-29 -9q15 -39 29 -39l-19 -39h29l29 10v-10q20 -38 20 -106v-136q0 -275 -252 -446 l-107 -29h-58q-85 0 -232 68q-55 -58 -126 -58zM413 418q67 -233 222 -233q39 -4 39 -29q116 0 184 107q51 0 58 261l-19 126l29 20q0 21 -97 106q0 31 -68 68h-184q-146 -133 -155 -232v-184z" />
<glyph unicode="c" horiz-adv-x="905" d="M2 442v147q0 148 79 207l10 10v10l-10 29l118 128l137 118h128l50 -29l9 9h10q140 0 256 -206l20 -59v-40q0 -123 -89 -167h-49q-108 26 -108 79l-10 -10h-10l-10 10v10h20q0 41 39 78l-19 50l9 -10h20v10q0 32 -79 78v-19l-19 19l10 10q-216 0 -276 -98q-41 -49 -69 -49 l-10 -266l20 -89l-29 -29q32 -55 127 -99l69 -88l30 20h59q26 -22 98 -30q167 92 167 236l30 20h49q20 0 40 -89q-20 -108 -40 -108v20l-10 -10h-9v20h-69q-117 -82 -217 -256l-10 10h-68q-138 23 -138 59l19 19v20l-9 -10h-10l-10 10l-10 -10h-10q-112 45 -147 128l10 30 q-59 46 -69 98l19 20q-39 0 -39 59zM268 176l39 -29h10v9l-49 30v-10zM602 58v20q20 0 79 78l79 59v-9q0 -66 -138 -148h-20z" />
<glyph unicode="d" horiz-adv-x="1156" d="M-1 383v255q49 50 49 158q128 137 138 206q82 60 118 60q10 -30 59 -30h69l29 20q47 0 128 -69h40v10q-40 0 -40 29l10 10h10l10 -10l29 30h10l-10 49v49q0 20 40 20l9 10v9q-31 0 -88 59q-132 0 -187 59v59l108 30h118l20 39q108 -26 108 -88l30 19l10 -9v-20l-10 10 h-10l-10 -49l-49 9l-10 -9h-10l20 -79h29l10 10h10l10 -10v-462q0 -30 -59 -30v-10q29 0 29 -20l-19 -49h10l49 30l10 -10v-20h-10l10 -167v-256l68 -69l-9 -29h9l20 -20l108 89h10q0 -26 59 -49v-10l-10 -10h-9l-20 20v-10l10 -49l-59 -69l-10 10l-99 -20l-49 59l-39 -59 v10l-10 -10h-10q-75 26 -138 79q-102 -89 -265 -89q-217 0 -354 305zM137 402h10l29 10v-10q0 -72 197 -265q25 59 79 59h19l30 -20q147 90 147 364v59l20 30v29q-53 43 -98 138q-92 98 -168 98h-19q-189 0 -227 -324v-59l-19 -30l10 -10l-10 -49v-20zM265 58l19 -20v30h-19 v-10zM284 137l10 -10h10l10 10v10l-10 9h-10l-10 -9v-10zM884 68h30v10l-30 10v-20z" />
<glyph unicode="e" horiz-adv-x="983" d="M3 520q0 249 41 249l-10 31q0 42 52 42q0 83 218 218l114 31q118 0 155 -42l31 42l11 -11l20 21q2 -29 239 -249v-10q-21 0 -21 -52l-31 -10l10 -52q0 -21 -31 -21v-10l21 -21q0 24 42 41q31 -6 31 -83v-20l-11 -11l11 -10v-10q0 -31 -104 -52h-197l-384 -11 q0 -28 -51 -62l-11 -41v-11q59 -48 83 -114l156 -124l-11 -10h114q48 0 114 72l187 176q93 0 93 -83q0 -81 -135 -228q-147 -83 -290 -93l-10 10v11l-11 -11h-31l-20 21l10 10q-52 0 -52 21l11 11l-21 31q-80 0 -125 -42l-124 104l41 52q-41 0 -41 72h10l-10 11v10l10 10v11 h-10l-31 -21q-52 0 -52 207zM107 292l41 -41h11l10 31q-31 0 -31 31l-31 -10v-11zM179 728q2 -36 83 -83l11 10h342l10 -10q62 38 93 93q-84 166 -228 166h-93q-134 0 -218 -176zM801 427v10l11 11h10l10 -11v-10l-10 -10h-10zM853 417l11 10h10l52 -62l-11 -10h-10z" />
<glyph unicode="f" horiz-adv-x="1074" d="M-30 34v9h10l40 -39v-10h-10zM-30 955v10l10 10h10l10 -10v-10l-10 -9h-10zM0 103v10q66 89 129 89l19 -20h50q57 70 79 70v416l20 20v-30h20v20h20v-20l10 10h10l49 -10l30 30h10l-10 -30l10 -149v-238q30 0 69 -59l10 10q87 -8 109 -30l30 20l30 -60l10 10h9l20 -19 v-10l-10 10h-19v-10l9 -40q-12 -69 -69 -69v-10l-49 10h-90l-39 -10l-40 10h-50l-49 -10l-10 10v10q27 3 40 49l-60 10v-20h-20v20l-10 -10h-10l-9 10h-10l-60 -10l-10 10l-20 -40l20 -19l-89 -20q-79 0 -79 89zM10 955v60q42 59 89 59l20 -39q42 29 138 29l30 80 q0 59 40 59q13 102 99 179h10l59 -30h20q4 37 40 59h20v-19q-42 0 -60 -80h10l10 -10h10l30 10v-10q-129 -141 -129 -178v-20q20 0 89 -69l69 -10l60 10h30l10 -10h9v10l-19 20l10 9h19l50 -59l-10 -10l10 -10h-10l-10 10h-10q-63 -129 -139 -129h-49l-50 10q0 -43 -39 -59 l-10 10h-10q0 -70 -60 -70q-6 -69 -29 -69h-10l10 10l-10 10v10l10 9v10h-10l-30 -10v20h20v10q-60 0 -60 40q0 41 -79 99l-79 -20h-30q-53 25 -79 79zM198 133h10l30 39h-20zM238 113h49v10h-49v-10zM297 698v10l20 -20v-10zM317 143l10 -10v-10l30 10v29h-10l-30 -10v-9z M595 1342l19 20l60 -10q53 79 79 79q238 -79 238 -218v-40q0 -178 -188 -178l-20 50l-10 -10h-20q0 40 -49 49v20h9l30 -10v99q-61 90 -79 90l-50 -10l-10 10v9l40 20q0 23 -49 30z" />
<glyph unicode="g" horiz-adv-x="1119" d="M1 -38q20 20 20 89q39 21 39 50l-39 139v69q0 50 109 159v39l-20 109v40q0 193 79 248q59 42 149 69l69 70h30q84 0 119 -60l10 10h20q30 0 30 -40q78 11 138 90h80q164 0 198 -199q-20 -109 -40 -109l-20 20l-9 -10h-10l-10 10h-10l-30 -10v30l-10 -10h-10l-10 10h-10 v-10l10 -30l-10 -10h-9l-30 30h-10l10 -10v-20l-40 -49v-40q0 -284 -238 -337l10 -10v-10l-30 -39h20l20 -30l30 10l10 -10v-10l10 10h10q49 -7 49 -50l69 -20l10 10l40 -10l79 20q129 -101 129 -198v-40q-106 -73 -188 -168h-10l30 -60q-70 -69 -258 -69h-69 q-186 0 -228 30l19 39q-49 0 -49 20h-30q0 -30 -30 -30q-188 54 -188 219v59zM160 -58v-20l148 -128l-10 -10v-10q30 0 30 -30h30l20 40l-10 29l10 10h10l10 -10l9 10h10l40 -29h149q199 0 267 118q-50 149 -337 149h-178q-172 0 -198 -119zM170 240q22 -47 69 -70h30 q77 0 148 99l-10 30l10 10l-79 -10l-69 20v10l10 10v10h-10l-99 -90v-19zM229 646q0 -135 198 -248q151 0 218 129l-10 50q0 69 50 69v40q-27 0 -119 129l-79 29h-60q-134 0 -198 -198zM764 755h10l10 40h-20v-40z" />
<glyph unicode="h" horiz-adv-x="1207" d="M0 129q0 69 89 79l20 -20h20q98 77 98 148l60 10v10q-20 23 -20 69q-50 0 -50 20v69l10 237l-10 89q0 40 70 69l-10 10v10l10 10l-10 10v30h10l29 -30l-10 -10l40 -20l10 10l10 -39h49q42 55 119 98l20 20h9q0 -49 129 -49h10l99 10q0 29 69 69l10 -10v-10l-10 -10 q109 -67 109 -247v-257h-30q-129 0 -129 30v188l10 9q-15 92 -79 139h-79q-132 0 -277 -316q0 -80 -69 -129l10 -10v-10l-10 -39l50 10v-99q0 -42 69 -89l10 10h10q51 0 79 -50v-79q0 -34 -109 -49h-59l-287 -10q-89 33 -89 119zM30 1245q0 31 89 139l-10 10l10 10h29 l30 -20h30l98 20q60 -45 60 -89v-139l-10 -39l20 -60l-20 -19l20 -30l-159 -49v9l-19 99q43 10 59 50l-89 79h-109zM217 1206l50 -59h10l10 49v10l-70 10v-10zM306 1107l20 -20h10v60h-10zM643 69v30q37 64 148 109q29 36 29 69v39l-9 40q17 69 39 69l10 -10h10l20 69h19 v-49l10 -10v-10l10 10h30l20 -20v-128q0 -40 59 -89l39 10q60 -10 60 -30v-10l-20 -29l30 -30l-20 -20h-10l-10 10q-56 -10 -128 -69h-228q-108 15 -108 49z" />
<glyph unicode="i" horiz-adv-x="808" d="M-39 41v10h10l59 -59v-10h-10zM1 91q0 118 108 118l30 -39l10 10h89l10 -10h10q0 20 49 20l20 89h20v-20l138 99l10 -10v-89q0 -55 69 -79v-10l10 10h30l9 -10l30 10l79 -10l30 29l10 -9v-10l-50 -60v-29l30 20l20 -20q-24 0 -50 -30l-39 20l-139 -30q0 -39 -59 -39v-10 l-119 10h-207l-40 -10q-89 5 -89 39l10 30h-10zM30 931l30 20l-10 10v9q75 60 178 60l49 -30l70 20v-20q-40 -5 -40 -30v-19h10l30 10l9 -30l129 59l20 -89l-10 -49v-435l-20 -20l-40 20v-10l20 -30q-39 -22 -39 -59l-10 10h-10l20 69h-10l-59 -39l-10 10v49l10 30l-10 49 v326q0 20 -30 20l-10 10v10l10 10q-40 0 -40 39q-71 0 -177 -79l-10 10q-50 53 -50 89zM228 1218l10 9h10l19 -19v10l-9 59q0 22 118 148h10q138 -40 138 -138v-50q0 -52 -79 -108h-98l-80 69q-39 0 -39 20z" />
<glyph unicode="j" horiz-adv-x="778" d="M-5 -183q19 0 19 86q19 0 29 57l-29 -19l-9 10v76q0 128 180 171v29q19 0 19 -38q22 0 48 -38q38 -5 38 -29h-28v-67q0 -70 -77 -142q26 -64 86 -105h124q92 76 133 143l-9 28l19 390l-10 210v95q57 64 57 86l-66 66h-96l-38 -9q-142 11 -171 85q0 20 28 20l-19 28v10h19 l10 -10h10l38 38h28l10 -9h9l29 28h124l66 10l19 -29l10 10h9l38 -19l19 19q19 -22 19 -67h10l-10 -48v-580q0 -229 -57 -229h-9l9 -9v-10l-9 -9v-10q38 -4 38 -28q0 -161 -124 -295q-98 -46 -219 -67h-28q-122 8 -238 124q0 28 -38 28l-10 10v9zM452 1283q9 55 67 86 q2 38 38 38q133 -48 133 -133v-48q0 -66 -86 -114h-47q-96 0 -105 171z" />
<glyph unicode="k" horiz-adv-x="1165" d="M-14 68q29 0 29 67l57 48h66l38 -29l57 48h10l-10 47v181q0 105 29 105l10 -10h9q0 29 19 29h48v9l-57 67h-19l-10 -10h-9l-10 10v485q-55 11 -57 67l-10 -9h-57l-19 19l172 161l57 10l9 -10v-9l-9 -10q47 0 47 -47l10 9h19v-19h-19l9 -162l-9 -342v-105l57 -67l-19 -19 l-67 57h-28v-9q23 0 76 -67l57 29l29 -10l57 67l-19 29q65 62 142 85q-4 31 -66 86q64 74 152 133h86v-19q-29 -57 -57 -57v-19h19l19 38q85 -12 85 -38l-9 -10v-9h9q0 19 115 48l9 -10v-29q-46 -85 -171 -85l-238 -229v-9q0 -32 181 -267q39 -91 95 -123h66q32 0 67 28 q0 -23 86 -95v-10l-10 10h-19v-48q-48 -57 -171 -57l-38 10l-10 -10l-47 10h-76l-143 28h-10q-32 0 -66 -28h-419q-70 6 -124 66zM15 1239v10l28 -29h-9zM176 183v9l38 29h10v-10l-38 -38zM272 106q89 0 133 -38q0 17 86 48l28 29h10q64 -10 66 -29q86 45 86 95h-10 l-152 219l-9 10h-10q-114 -80 -114 -134v-95q0 -15 -67 -38q0 -28 -28 -28zM795 839l48 -9l19 28v10h-38zM985 820h29v-19h-9z" />
<glyph unicode="l" horiz-adv-x="956" d="M4 105v10q32 81 91 81q0 -60 91 -60q102 0 274 101h31v10l-21 31l21 40l-31 21l-19 -21l-11 10l-10 -10l-10 10v71l10 10l-10 11v51l20 20l11 -10h10l9 10v20h-19l10 51h-10q-31 0 -31 20v193q0 131 31 131l-11 52v162q0 71 -132 122l-20 -21h-92l-20 21l51 30l-10 51 h-10q0 -40 -21 -40h-10l-10 10h-10l-20 -21l-31 21l-41 -21l-19 30v41l29 41l-19 20l9 10h21l10 -10h10l21 20h40q51 -17 82 -91q50 7 50 51l213 20q51 -13 51 -30l-10 -10v-11q30 0 50 -41q-40 0 -50 -60h10l30 10l10 -10v-10l-10 -11l10 -70v-731l-10 -10l10 -11v-10 l-20 -50l-30 10l-51 -10q51 -56 51 -81h10l10 10h10q24 -61 41 -61l20 20q21 0 21 -41h131l41 10q122 -28 122 -50v-20l10 10h10l20 -21v-10l-10 10h-20v-30q0 -77 -41 -92h-812q-101 0 -101 102zM369 1242l20 -21h11v21l-31 10v-10z" />
<glyph unicode="m" horiz-adv-x="1259" d="M-15 947v10l10 -10h20q2 50 29 50h10q71 0 109 -20l89 20l50 -20q0 47 158 99l20 -30l79 30v-10q99 -129 149 -129l-10 10v20h10l10 -10h9q0 74 99 109l30 -30l10 10l20 -19l69 29l-10 10v10l10 10h10l89 -119v-30l-20 -59q50 -13 50 -30v-158l-10 -455q0 -22 119 -119 l-10 -10h-10l-20 20q0 -99 -69 -129q-198 28 -198 59v20q0 20 30 20q-13 46 -40 49l-10 -9v9l10 10l-10 10v10q59 50 59 89v70l20 29l-20 30v406l10 10v10q-19 0 -89 69q-168 -201 -168 -347v-59l-20 -20l10 -10v-109q0 -103 69 -178v-10h-59v-10l10 -9v-10l-20 -40l10 -10 l-30 -20l-59 10l-50 -10v20h-10l-49 -30l-79 30q-58 -69 -169 -69h-59q-168 10 -168 109q119 85 119 119l9 138v79l60 80q-60 13 -60 29v10l10 10l-10 10v228q-39 0 -39 59q-36 0 -109 69zM262 472l20 -20v-227l10 10h10q85 -109 138 -109l109 99l-10 10v108l-10 40 q10 69 60 69l20 30l-10 10v10l10 10v10q-70 23 -70 39v248l-69 79q-188 -121 -188 -376v-10z" />
<glyph unicode="n" horiz-adv-x="1141" d="M-27 51v10h10l60 -60l-10 -10h-10zM-27 906l10 10h10l89 -99l-10 -10h-9zM-27 936v10l10 10h10l10 -10v-10l-10 -10h-10zM13 71v50l149 139q0 169 50 169l-40 50v229l20 29q-20 68 -149 160l-30 49v10l20 30l-20 20l50 40l29 -20l10 10h10l80 -10l30 10q99 0 119 -139 l50 -30h10q34 13 99 119q64 26 70 50l50 -10h10q15 0 29 40q289 -34 289 -249l-10 -179v-20l10 -40l-10 -40v-79l10 -40l-10 -40v-89h-20l-10 30l-30 -10v-10q38 -65 80 -80h10v10q-30 0 -30 20v10h10l129 -110v-59l-30 -40l20 -20l-10 -10h-20l-9 10h-10l-20 -20h-50 l-299 10l-19 30l99 89h40l50 -9q39 53 39 89l-29 50l19 40l-10 29l-19 -19h19q0 -20 -59 -30l10 10v248l-10 60l30 90l-30 29v10q0 20 30 20q-43 100 -100 100h-99q-202 -132 -279 -348v-130l-10 -149l80 -60l20 20v-20h10l29 10l20 -49l10 9h10l10 -9v-10q-25 0 -30 -50 q-27 0 -89 -60l-10 10l-10 -10h-40q-318 0 -318 60z" />
<glyph unicode="o" d="M0 465q70 41 70 59v10l-10 10v10l30 20l19 -20l-10 -10v-10l10 -10h10l30 20h10v-20l-10 -9q0 -147 120 -249q29 0 29 -50l10 10h20q36 0 80 -40h50l39 10l40 -10q31 0 169 179l20 20h10l-10 10v10l20 149q0 235 -179 329l-99 29h-70q-101 0 -219 -218q-20 -100 -99 -100 q0 -25 -40 -30q-40 15 -40 30l20 20l-10 10v20q8 152 219 368l-10 10v10l169 60q60 -10 60 -30l99 20q149 -40 199 -110l-10 -10q179 -184 179 -388q-47 -319 -139 -428q-92 -89 -179 -139l-10 10l10 10v20h-10v-20l-20 20h10l-10 30h-30v-10l20 -60l-10 -10l-10 10h-20 l-30 -20h-19q-251 50 -309 150l-10 -10h-10q-68 0 -139 338zM597 117h20l20 20q-20 23 -20 69h-10v-20h-10l10 -10v-10zM686 903l90 -50l10 10v10q-60 39 -60 69h-20l-20 -20v-19z" />
<glyph unicode="p" horiz-adv-x="1153" d="M-54 934l10 10h10l60 -69l-10 -10h-10zM-14 -279q0 109 69 109l50 -10h30q90 56 90 139l149 70l10 -10v-139q0 -50 69 -80v-10l10 10h60l10 -10h10l30 30q30 -55 30 -109q-26 -80 -90 -80h-448q-79 52 -79 90zM-4 944q0 26 109 110h100q20 0 20 -30l89 10 q91 -100 129 -100h10q0 100 299 120l40 -10h10l-10 10v10l10 9h9q22 -49 130 -129q119 -189 119 -358v-50q0 -385 -288 -507l-140 -20l-49 10l10 -10v-10l-10 -10h-10l-80 100l10 10l-70 39q-109 -50 -109 -109l-40 -20l-10 10v10q15 0 30 40h-30l-30 -20h-10l-9 199l9 40 l-9 99l9 40l-9 10v10l9 30l-9 10v9q0 21 69 70v20l-10 30l10 10l60 -30l10 10l20 -20v20q-8 34 -60 60h-30l-60 -40l-9 10v50l19 29l-19 20l9 80h-9q-34 0 -70 69q-159 0 -159 60zM374 785l30 -10l79 50l10 -10v-10l-89 -100l10 -10v-9l-20 -60l10 -10v-10l-10 -60l10 -40 l-10 -39q12 -118 149 -249q32 -60 79 -60h70l70 10l10 -10v20q49 0 129 169v20h10l-10 10v219l-10 40l10 30q-123 228 -189 228l-129 20l-30 -10l-60 20q-32 -40 -89 -59q0 -27 -30 -60v-20zM573 -150q69 -42 69 -60v-10h-10l-59 60v10z" />
<glyph unicode="q" horiz-adv-x="1062" d="M8 487q0 290 70 290q0 95 210 240q68 40 190 60q69 -14 220 -140q1 30 101 100v10l20 -20v-10q0 -35 -40 -70l40 -50l-10 -30h10l30 10l10 -10l-10 -100v-461l10 -50q-52 -29 -80 -100l10 -50h20v50h10l10 -60l10 10h20l-10 -80l10 -70l-10 -40q55 0 90 -80h30 q100 -20 100 -70l10 10h10v-10l-10 -30l10 -10v-10q0 -70 -70 -70v-10l-50 10h-401l-40 -10q-80 0 -80 100q59 80 190 80h10q0 40 40 40v130l-60 70v10h20l70 -70l10 10v20q-27 0 -70 70q-115 -90 -140 -90v10l-130 -20v10q50 47 50 70h-30q-20 0 -20 -40l-40 30h-30l20 -40 l-10 -10h-10q-155 77 -170 120q-140 123 -140 351zM158 527q0 -195 260 -381l10 -40h50v10q-24 0 -70 60q0 18 50 30l30 -10l40 40l30 -20q78 48 120 191l-10 10l20 150l-20 140l30 10q-174 200 -230 200h-60q-250 -91 -250 -390zM188 26v10l10 10h10l10 -10v-10l-10 -10 h-10zM408 -324l10 10h10l60 -70l-10 -10h-10z" />
<glyph unicode="r" horiz-adv-x="1032" d="M-17 950q0 77 130 90h120l10 -10h10l30 30h20l40 -30l10 10v10l140 -120h10l221 140h10l120 -20l20 20q0 -31 130 -140v-10h-20l10 -10v-70q0 -131 -90 -180h-80l-80 80l-10 -10v10l10 10v10q0 45 -71 110v10h-10q-230 -179 -230 -350l-10 -60l-10 10h-10l-40 -10 q-80 0 -80 70v60q0 250 -70 250q0 20 -30 20l-30 -10q-170 0 -170 90zM-7 69v10l40 70v-10q43 10 80 70q45 -1 90 -40h10q18 60 60 60v40q0 121 70 121h20l-10 10v20h20q0 -34 70 -40q0 -127 70 -181v-10l50 10h80l10 -10h10v10l-10 10v10h10l20 -20l-10 -10v-10 q51 -2 51 -30l-11 -10v-10h21v-10q0 -110 -141 -110h-230l-180 -10l-110 10l-10 -10q-50 55 -50 80l-10 -10h-10zM243 179l30 10v20zM253 850q21 -40 50 -40h10v10q-40 0 -40 40h-20v-10zM313 900l10 -60h10l10 50l-10 10h-20zM363 810l20 20v20l-20 -20v-20z" />
<glyph unicode="s" horiz-adv-x="883" d="M-2 67l10 10h10v19h-10l10 166v147q0 18 87 49q0 29 20 29h10v-10l-10 -9v-10l10 10h19v-10l-19 -30v-29q44 -93 195 -225l49 10h39l49 -29l10 10h10l9 -10h10q67 0 166 127l-19 19l9 10v10q-34 117 -117 117v20h20v19h-20l-39 -29l-10 10v10l30 29l-30 10l-9 -10h-30 l-58 29q0 -23 -49 -58l-157 29l-29 -29h-10q-127 158 -127 195l-9 88v78q39 59 205 195q0 18 49 20h29q255 -25 264 -88h39q0 41 58 68h10l29 -19l10 10v9q39 -9 39 -58v-108l10 -49q-27 0 -49 -68l-68 -78l-10 10l-10 -10q-73 205 -254 205h-78q-52 0 -127 -98l10 -29 l-20 -19q41 -22 78 -79l235 -48l-10 -10v-30l20 -19h19l49 10v-20l49 10l10 -10v-10l88 20l-39 49l9 10h10q127 -151 127 -225v-98q0 -124 -166 -234l-10 9v10q36 19 78 127l-19 69h-10q0 -51 -78 -108l-78 -156h-59l-39 -10l-107 29l29 49q-51 71 -98 78q-78 -63 -127 -146 l-39 -10q-64 0 -78 88zM487 595v19h29v-19h-29zM721 1044l10 10h10l58 -69l-10 -9h-9z" />
<glyph unicode="t" horiz-adv-x="983" d="M2 937v10q55 108 254 108l78 68l-10 49q0 244 79 244h19v-10l10 10h19q0 -29 30 -29v-30l10 10h9l20 -19v-10l-10 10h-19v-10l-10 -254l68 -78q52 42 166 49l20 -40l29 20h20q29 0 48 -98q0 -49 -68 -88l-195 30h-20l-78 -79v-478q0 -64 117 -157h49q108 63 108 215l9 10 h10l-10 10v10l10 9l-10 10v10l39 49h30l9 -10l10 10h10q49 -22 49 -98v-39q0 -279 -235 -342v10l-58 -20h-49q-244 94 -244 205q-24 0 -30 196v186l10 9v10l10 -10h19l-19 59v156q-41 0 -59 59h-58l-79 19h-39l-29 -19q-39 16 -39 68z" />
<glyph unicode="u" horiz-adv-x="1186" d="M-1 950l10 10h10l62 -72l-11 -10h-10zM50 970l20 31l-10 10q31 0 72 41h153l51 10q31 -39 31 -92v-163l-11 -31l11 -51v-61q0 -460 81 -460l41 -30h51q112 0 266 245v-11l30 11l-10 173v21l10 61l-10 41l10 10h11q0 130 -72 174l-51 10q0 16 -71 41v40l71 62l51 -10h92 l51 10l10 -10l21 20q30 0 40 -143v-674q0 -25 113 -61l30 -41v-10q-21 -41 -51 -41l21 -31l-10 -10l-11 10h-30v-20q30 0 30 -21v-10h-20l-31 21l-30 -21l-92 10l-31 -10v10l10 11v10q-33 0 -92 82l-10 10h-10q-135 -133 -245 -133h-72q-136 0 -224 174l-10 10l10 10v10 q-43 0 -51 215v61q0 82 61 82v20l-51 61l20 102q0 86 -61 143l10 11v10q-61 0 -81 41q-31 0 -31 20zM91 858v10l10 10h10l11 -10v-10l-11 -10h-10zM326 1103l10 10h10l61 -71l-10 -11h-10zM724 848v10l10 10h10l11 -10v-10l-11 -11h-10zM744 878h21l20 -20l-10 -10h-10z" />
<glyph unicode="v" horiz-adv-x="1171" d="M3 910l20 20l-10 30l10 -10q109 63 109 109l158 -40h90l39 10l10 -10h10l30 10q20 -24 30 -99q-167 -63 -169 -119q119 -360 198 -506l10 10h10l20 -39h10q0 41 40 79l99 268l-10 9v30l49 179l-99 89l-29 -20l-30 60l10 9h10l-10 30l29 40l10 -10v-10l10 10h10 q50 -13 50 -30l-20 -30v-9q59 -19 79 -80q77 0 179 139h39q109 0 109 -109q-26 -30 -138 -50q-100 -87 -109 -208l-209 -605l-69 -59h-40q-89 20 -89 50v9l10 50q-59 0 -59 79l-139 337v30l10 10v10q-28 0 -90 208q-73 99 -138 99l-10 -10h-20z" />
<glyph unicode="w" horiz-adv-x="1216" d="M-24 931l10 10h10l10 -10q0 129 99 129l20 -40l10 10h69l59 10q80 -41 80 -89q0 -23 -99 -109l59 -268q-40 -20 -40 -60l10 -10l-10 -9h-9v19h-10q0 -39 -60 -39q-95 406 -158 406zM214 336q40 0 40 59h19v20h-10l-9 -10h-10v10l10 30l-20 20v10l20 20q39 -40 39 -70 q45 0 70 79l10 10h9l10 -10h10q0 110 169 328q-40 20 -40 49h-30v-10q30 0 50 -39v-10l-20 -20l-69 69l-10 -10l-10 10v10l10 10l-50 50v29q0 20 119 60l129 -10v-10l-20 -40h20l30 10l10 -29l89 59q0 -30 30 -30q47 70 109 70l20 -20h109l69 10q40 -42 40 -99v-10 q-83 -69 -129 -288l-50 -10l30 -59l-89 -416l-10 -10h-10l10 -10v-10q0 -53 -99 -129l-10 10v10l69 79v10l-39 10l-30 -10l-20 40l-69 -40q-40 88 -80 456h-20q0 -40 -39 -40v10l39 60q-29 0 -29 29h-20l-10 -9h-10l10 -10v-10q-66 -595 -159 -595h-19q-90 7 -90 69l-10 -10 h-10v10l10 10v10q-39 94 -59 248zM630 663l50 -20v20q-30 0 -30 20h-20v-20zM650 931l20 -20l10 10v20zM700 842l69 -397l60 50h9v-10l-19 -30l10 -30h9q0 60 20 60l-10 10v9q0 93 70 119l20 40h-30v10l20 30l-20 20l10 99q0 42 -89 119v20q-40 -10 -129 -119zM759 1060 l50 -50v-10h-10q-40 20 -40 60z" />
<glyph unicode="x" horiz-adv-x="1198" d="M-23 118q52 20 58 49h-19v19l97 10l20 -19q322 282 322 331q-67 183 -254 341h-117l10 -10v-9h-10l-19 19l9 10v10q-58 0 -58 78l39 19l-10 49h10l107 19l39 -39h185l10 -9l39 19q78 0 78 -97v-10q-78 -82 -78 -107l117 -98h10q81 98 127 98q-4 35 -88 107l-10 39 q20 58 39 58l10 -9l29 29l59 -39h146q35 29 126 29l10 -10l-10 -9v-20q49 0 49 -39q0 -68 -58 -68q0 -18 -88 -29l-214 -254h-10l-29 20l-30 -39q124 -124 283 -351q39 -15 39 -29l10 9h9l20 -19l10 10h9l20 -20l10 10h9l30 -20l19 20q22 -26 29 -98q-33 -68 -107 -68h-282 q-108 0 -108 88l88 78q-72 163 -195 263l-136 -88q-10 -39 -39 -39v-19h48l49 10v-30l-39 -68l68 -88v-9q0 -108 -97 -108h-10q-370 0 -370 49zM1000 1034l10 10h10l68 -78l-10 -10h-9zM1078 196v10h10l68 -68l-19 -20h-10l10 10v10z" />
<glyph unicode="y" horiz-adv-x="1165" d="M-18 867l10 9h9l69 -78l-10 -9h-10zM11 -108q89 127 185 127l10 9q68 -48 68 -117v-48q59 -14 59 -69h10q25 7 185 195q19 0 68 59l49 29l10 -10v-9q-137 -439 -361 -439h-68l-98 29l10 49h-10l-10 -10h-9q-98 49 -98 146v59zM31 857v58q0 72 29 78l10 -9l9 9h244l10 30 q185 0 185 -108l-127 -146l49 -117l-10 -39l20 -19v-10l-10 -10l29 -39v20h10q15 0 78 -176l49 -29q58 49 58 117h10l-10 29q12 119 69 176l-10 9v10l29 107q-117 85 -117 137l107 78h127l39 10q85 -39 166 -49l19 19l20 -19v-68q0 -88 -176 -88v-10l-10 -10 q-57 0 -126 -321q-127 -390 -156 -390q-16 39 -68 39h-10v-10l29 -29l-10 -39h-39q0 39 -19 39l-29 -20h-10v49l-127 331l20 20l-30 88l-9 -10h-10q-56 67 -78 214q-52 69 -127 69q-97 0 -97 29zM167 -274v-10h20l9 30h-9zM294 798h39l-20 20zM343 828l19 -30l-10 -9l10 -10 h10l49 68l-39 39q-39 -15 -39 -29v-29zM586 935l10 10h10l10 -10v-20h-10z" />
<glyph unicode="z" horiz-adv-x="986" d="M-1 71q27 37 40 129l69 59l30 -10l108 129v10l-10 10v10l70 89l10 -10h19l70 69l-10 40q86 76 138 79q89 76 89 99l-9 30h9l-9 9v10l9 30q-37 30 -89 30h-79q-163 0 -247 -228l-40 -39q-79 0 -79 69v10q30 267 59 267l-9 10v10l39 39l10 -10l119 20l128 -10l20 20h20 l89 -10l10 10h10q69 -13 69 -30v-49l69 -60l50 10v-10l99 80h20l9 -10v-70l-593 -643q59 -52 128 -79v-20h20v10l-10 30h10q60 -6 60 -30l9 10h119q43 0 119 79l-10 50v10h40l-30 39q0 88 99 149q59 -32 59 -109v-10q0 -69 -59 -69v-60l-20 -29q30 0 30 -30h20q0 30 19 30 l10 -10v-79q0 -54 -39 -70l-20 20q0 -20 -79 -20l-10 -29l-168 -10h-109l-10 10h-10l-30 -30h-89l-10 -10h-10v10l30 39l-20 30l-10 -10h-9l-50 30q-20 -40 -59 -40l10 -49h-10l-99 -10l-10 10h-10l-30 -10v10zM286 230l49 -60l-9 -10h19l30 10l-69 79zM365 150l10 -39h20 l39 20v19l-59 10z" />
<glyph unicode="{" horiz-adv-x="524" d="M-2 727v27l27 28l51 17q96 70 96 199l-2 41h-12q3 40 8 68l-4 88l22 80q11 143 123 264q46 22 98 38l-1 17l27 5v-10l3 -4q21 6 42 11l-1 -9q31 -6 39 -29v-11l-21 -21l21 -20l-31 -52l-18 3l-1 -13h-24q-92 -76 -133 -143l1 -2l13 -2l6 -50l-10 -114v-345h15l-13 -45 l8 -8l-10 -11h-4l-20 -64q11 -5 24 -9l-10 -31l7 -46h3v-87q39 -35 46 -53v-11l-46 7v-101l1 -25l1 -8l6 -136l-9 -28q41 -67 133 -143h8l26 5l34 -6l-3 -69v-18l-6 -50l-24 3l1 -17q-92 21 -169 57q-124 134 -124 295q0 24 38 28v10l-9 9v10l9 9h-9q-27 0 -42 54l-14 1 l3 69q0 7 -1 15h2l2 43q-15 8 -15 17l16 16v12q0 142 -83 154q-73 0 -91 91z" />
<glyph unicode="|" horiz-adv-x="271" d="M-5 908l11 10v158l-7 7v11q0 6 7 10v57l-11 114l11 83v250l10 -2l83 11h31l21 -21v-207l3 -46l4 -65l3 -55l-10 -25v-42h3v-31l-3 -19v-64l3 -11q-11 -3 -20 -8q-36 -41 -49 -64q26 -3 38 -62h11l20 -148l7 -7v-11q0 -6 -7 -10v-426l11 -114l-11 -83v-250l-10 2l-83 -11 h-31l-21 21v207l-10 166l10 197v239h-3v31l3 19v64l-3 11q11 3 20 8q36 41 49 64q-26 3 -38 62h-11q0 -31 -20 -31z" />
<glyph unicode="}" horiz-adv-x="524" d="M-102 -12l34 6l26 -5h8q92 76 133 143l-9 28l6 136l1 8l1 25v101l-46 -7v11q7 18 46 53v87h3l7 46l-10 31q13 4 24 9l-20 64h-4l-10 11l8 8l-13 45h15v345l-10 114l6 50l13 2l1 2q-41 67 -133 143h-24l-1 13l-18 -3l-31 52l21 20l-21 21v11q8 23 39 29l-1 9q21 -5 42 -11 l3 4v10l27 -5l-1 -17q52 -16 98 -38q112 -121 123 -264l22 -80l-4 -88q5 -28 8 -68h-12l-2 -41q0 -129 96 -199l51 -17l27 -28v-27q-18 -91 -91 -91q-83 -12 -83 -154v-12l16 -16q0 -9 -15 -17l2 -43h2q-1 -8 -1 -15l3 -69l-14 -1q-15 -54 -42 -54h-9l9 -9v-10l-9 -9v-10 q38 -4 38 -28q0 -161 -124 -295q-77 -36 -169 -57l1 17l-24 -3l-6 50v18z" />
<glyph unicode="~" horiz-adv-x="799" d="M52 649q0 54 65 81.5t97 -27.5l10 10l67 -126l55 -3l-49 74l25 12h-8q63 99 162 99h54q48 0 63 -36l45 9q100 -56 100 -127q0 -55 -81 -100l9 -9v-8l-19 -19l-9 9v10l9 8q-39 0 -106 45q-58 79 -118 17q-61 -88 -163 -73q-48 0 -108 27q-100 56 -100 127z" />
<glyph unicode="&#xa1;" horiz-adv-x="508" d="M37 -301q53 394 81 394l-20 21q0 394 121 394q101 0 101 -394l61 -395v-81q0 -30 -91 -40l-10 30h-172l-30 -20zM57 872v20q13 137 152 152h30q122 -25 122 -182q-63 -142 -213 -142q-91 66 -91 152z" />
<glyph unicode="&#xa2;" horiz-adv-x="1147" d="M-63 -173l20 20l-10 49v10q62 90 129 90v30l-20 19q20 60 40 60l10 -10h10l10 10v20q0 57 -80 169v20l20 39q-50 0 -50 20v100q0 179 120 347l-10 50q56 73 119 90l10 -10l-20 -40l109 -10q0 16 70 50l10 -10v-10q-258 -214 -258 -418v-29q9 -149 59 -149l-10 -10v-20 l40 -20l20 20l-10 10v10q37 22 258 377q-23 153 -39 169l9 30q-53 25 -79 79l10 10l50 -29q80 139 149 139q41 -40 99 -40h10q72 52 258 358v20l-10 9v10l100 60l69 -40v-39q0 -35 -288 -477v-90q0 -20 -30 -20l-69 10l-20 -49h10l20 -20v-20l-20 -20l-50 40l-10 -10v-10 q0 -20 30 -20v-20l-30 -10l-10 10v10l10 10h-20v-20l-10 -10l10 -10l40 -10v-20l-40 -10v-19h20q115 119 159 119v-20q-89 -129 -228 -129q-215 -368 -289 -368l-29 10q-50 -79 -70 -79v-10l30 -10q79 20 79 39l-10 10l-9 -10h-10l-30 30l49 10l50 -50h20l99 10l10 -10 q0 30 20 30h20v-30h10q53 19 149 130l-20 29l70 70h10l29 -20l40 30l20 -60v-20q0 -169 -248 -278q0 -33 -139 -69l-209 39l-199 -248h-109l-20 20v10zM354 244v10h10l40 -40l-10 -10h-10zM613 870l10 -10q63 26 69 50l-30 20l-20 -20l-9 10l-10 -10v-10l10 -10zM633 691 l9 -30l30 30l-10 10h-29v-10z" />
<glyph unicode="&#xa3;" horiz-adv-x="1254" d="M-26 29v10h10l59 -59v-10h-10zM14 79q0 118 108 118l30 -39l10 10h59l10 -10h10q0 20 49 20l3 13v308h-150q-91 0 -91 100q27 38 100 64l46 -9h95v95q0 127 16 187q15 54 43 54h10l-10 10v10l10 10v10q-40 4 -40 30q0 169 130 310q103 48 230 70h30q128 -8 250 -130 q0 -30 40 -30l10 -10v-10q-19 0 -19 -90q-20 0 -31 -60l31 20l9 -11v-79q0 -135 -189 -180v-31q-20 0 -20 40q-23 0 -51 40q-40 5 -40 31h30v70q0 74 81 149q-28 68 -91 111h-130q-97 -80 -140 -151l10 -29l-8 -154l-12 -256v-3l20 -5l37 9l72 -36h137l27 -28v-27 q-18 -91 -91 -91h-136l-58 8l2 -48v-99q-31 -35 -46 -59l40 29l10 44v-37l12 9l10 -10v-89q0 -11 3 -21q16 -8 36 -26h46l40 9q50 -4 87 -15l80 10q10 -30 59 -30q70 0 147 98l-10 69v157q73 88 118 88q29 -32 29 -59l10 10h10l19 -19v-10l-9 10h-20l10 -10l-10 -49l10 -98 h-10l10 -10l-10 -49v-59l10 -49h-20q0 29 -19 29l-10 -9v-10l59 -79q0 -52 -89 -117h-10l-49 49h-19q0 -69 -187 -69h-9l-59 10l-98 -10l-461 12l-40 -10q-89 5 -89 39l10 30h-10zM1074 116h10l19 19h-9z" />
<glyph unicode="&#xa5;" horiz-adv-x="1267" d="M-1 1265v40q69 99 189 99q73 0 110 -70l39 -29h10q0 42 50 89l-10 10v10l10 10l119 -80v-10l-9 10h-20v-29q0 -39 -90 -130h-10l138 -318q17 7 34 21h55l36 -9h1q3 9 5 18l40 89h10l10 -10h9l70 150q0 94 -109 159l-10 49v10q20 70 59 70l10 10v10l50 -10h149l40 -30 l80 20q99 -36 99 -99q0 -62 -49 -90l-10 10q-155 0 -219 -229q-44 -84 -79 -154h90l27 -28v-27q-18 -91 -91 -91h-97q-33 -71 -50 -116l129 -14q103 52 109 -79q-20 -64 -100 -64l-45 9h-112v-93q0 -179 109 -179h50l30 20h30q37 -40 79 -40l10 -10v-10q-23 -69 -40 -69v10 l-10 -10h-39q-27 0 -30 49h-10q0 -37 -70 -49v-20l10 -10v-10l-30 -20h-39l-10 10l-10 -10h-40l-30 10l-50 -10h-288l-30 30q114 139 189 139q0 30 50 30l10 30l-8 220l-43 -23l-52 24l-112 -9l-52 37v27q18 91 91 91h137l21 -27l33 7q-15 14 -15 51q-34 0 -75 78h-101 q-91 0 -91 100q27 38 100 64l15 -3q-29 51 -87 189l-60 99q-50 29 -50 60h-50q-109 15 -109 50zM178 1255l70 -80l40 20l-10 10v10q20 40 49 40v40l-39 -30l-30 50h-10q-46 -50 -70 -50v-10zM228 1255v20h10l40 -40v-10h-20z" />
<glyph unicode="&#xa7;" horiz-adv-x="1126" d="M4 745q47 26 66 76l-9 10q28 0 28 38l-57 66v10q30 99 108 159q-21 53 -21 116v38q0 127 152 304q0 54 219 105q19 -8 36 -15v-5h34l50 -29l9 9h10q140 0 256 -206l20 -59v-40q0 -123 -89 -167h-49q-108 26 -108 79l-10 -10h-10l-10 10v10h20q0 41 39 78l-19 50l9 -10h20 v10q0 32 -79 78v-19l-19 19l10 10q-48 0 -89 -5v3h-50q-127 0 -200 -172v-47q0 -32 11 -59l3 1l9 -24q38 -60 139 -99l10 9h9l57 -9l29 9v-9l9 9h10l48 -38h114l38 -28l47 9h10l19 -19l-48 -48v-9l29 19l38 -10v20h19q152 -112 152 -267q-47 -26 -66 -76l9 -10 q-28 0 -28 -38l-57 -57v-9l47 -48q38 0 38 48h29v-10q-30 -99 -108 -159q21 -53 21 -116v-38q0 -127 -152 -304q0 -54 -219 -105q-19 8 -36 15v5h-34l-50 29l-9 -9h-10q-140 0 -256 206l-20 59v40q0 123 89 167h49q108 -26 108 -79l10 10h10l10 -10v-10h-20q0 -41 -39 -78 l19 -50l-9 10h-20v-10q0 -32 79 -78v19l19 -19l-10 -10q48 0 89 5v-3h50q127 0 200 172v47q0 32 -11 59l-3 -1l-9 24q-38 60 -139 99l-10 -9h-9l-57 9l-29 -9v9l-9 -9h-10l-48 38h-114l-38 28l-47 -9h-10l-19 19l48 48l79 47q12 -10 25 -19q38 0 115 38l9 -9l10 9h9 q179 -26 282 -93q20 3 43 6q0 57 48 57l-10 10v9l10 10h9v-19h19l-38 76v85q-18 98 -171 210q-38 0 -38 -38h-77l-9 9l-10 -9h-9q-179 26 -282 93q-20 -3 -43 -6q0 -57 -38 -67v-9l-17 -50l17 -102q16 -85 132 -180l-132 -58v-20h-19q-152 112 -152 267zM833 467h29l-19 20 l-10 -10v-10zM919 506v9l19 19l19 -19v-9h-38z" />
<glyph unicode="&#xa8;" horiz-adv-x="747" d="M64 1208l10 10v105l66 76l10 -10h9l38 29q15 -38 29 -38l38 38l10 -10l9 10h10q33 0 47 -105v-29q0 -73 -85 -143h-96l-9 -9h-10q0 33 -76 76zM64 1208l10 10v105l66 76l10 -10h9l38 29q15 -38 29 -38l38 38l10 -10l9 10h10q33 0 47 -105v-29q0 -73 -85 -143h-96l-9 -9 h-10q0 33 -76 76zM424 1313l25 38v10l47 47h19v-19l-9 10h-10l-9 -10v-5l95 -14l38 10l-28 38h9q76 -31 76 -114v-29q-14 -143 -133 -143h-10q-73 0 -95 48l-10 19zM506 1418v9l19 20h9v-10l-19 -19h-9z" />
<glyph unicode="&#xad;" horiz-adv-x="670" d="M6 782q27 38 100 64l46 -9h109q31 0 64 27h55l36 -9l37 9l72 -36h137l27 -28v-27q-18 -91 -91 -91h-136l-64 9l-82 -9h-219q-91 0 -91 100z" />
<glyph unicode="&#xb1;" horiz-adv-x="756" d="M6 100q27 38 100 64l46 -9h109q31 0 64 27h55l36 -9l37 9l72 -36h137l27 -28v-27q-18 -91 -91 -91h-136l-64 9l-82 -9h-219q-91 0 -91 100zM6 782q27 38 100 64l46 -9h109q14 0 29 6l-21 40l24 52l-9 112l36 52h28q91 -18 91 -91v-137l-19 -15l33 8l72 -36h137l27 -28 v-27q-18 -91 -91 -91h-136l-27 4l-17 -161q52 -104 -79 -110q-65 21 -64 101l9 45v121h-187q-91 0 -91 100z" />
<glyph unicode="&#xb4;" horiz-adv-x="412" d="M109 1203q20 170 69 187q0 25 60 42l40 -10l20 -9h10l10 9h10l10 -9v-10l-100 -230q-20 -45 -78 -45h-29q-39 17 -13 55v20h-9z" />
<glyph unicode="&#xb6;" horiz-adv-x="1024" d="M93 1086q0 157 107.5 253t285.5 96h443v-70h-127v-1365h-82v1365h-166v-1365h-84v738q-174 8 -275.5 102.5t-101.5 245.5z" />
<glyph unicode="&#xb7;" horiz-adv-x="360" d="M26 747v19q84 114 115 114l-20 19v-19h-28v48l38 19l38 -10l38 10l-28 38h9q76 -31 76 -114v-29q-14 -143 -133 -143h-10q-73 0 -95 48zM36 918v10l47 47h19v-19l-9 10h-10l-9 -10v-9l19 -19zM93 985v9l19 20h9v-10l-19 -19h-9z" />
<glyph unicode="&#xb8;" horiz-adv-x="474" d="M62 -308l20 20v-29h10l10 9q0 30 20 30q41 -4 30 -49q154 -12 147 89q-30 75 -151 49q-17 2 -9 20l35 114l-3 33l6 23h126q-2 -11 -3 -23l-24 -72q127 -7 142 -133q0 -148 -209 -188l-97 8q-77 44 -50 80v19z" />
<glyph unicode="&#xbf;" horiz-adv-x="923" d="M7 -55q0 340 270 415q72 44 72 145q16 93 94 93q49 0 72 -114q0 -155 -83 -218v-10l11 -10v-11l-208 -93l-31 10l-41 -51l10 -11l-21 -31l11 -10v-73q0 -179 217 -259h11q140 0 217 93h11v11l-104 124h21v62q0 96 124 114h21q135 -39 135 -134v-156l-94 -124l11 -11v-20 q-83 -94 -135 -94l-10 11h-11l-134 -21l-177 21l-20 -21q-239 143 -239 373zM194 111v10l10 11h10l11 -11v-10l-11 -10h-10zM266 888q52 156 104 156h41q135 -36 135 -135v-10q-103 0 -103 -73l-52 11q-63 -52 -94 -52zM774 121h11l41 -41v-10z" />
<glyph unicode="&#xc0;" horiz-adv-x="1201" d="M0 103q4 91 81 91l20 -21q93 52 121 162l40 40l-10 61q20 28 20 121q14 0 31 100l30 11l-10 30q13 0 50 171l10 10h10l-10 41l91 211l50 202l-10 10v10q28 67 61 81h10l30 -20l10 10v10q81 0 162 -434q30 -50 211 -736q79 -80 101 -80l30 10l-10 -10l61 -81l-10 -10 l-81 10h-20v-10q40 0 40 -20l-10 -10h-10l-10 10h-10v-21l10 -30l-40 20v-20h30v-20h-10q-232 0 -232 50l-10 11h-10q0 -41 -51 -41l-20 30l10 11v10q-15 0 -30 40l10 10l10 -10h20q0 35 61 71q0 40 50 40q-40 47 -60 131q-51 29 -51 60h-292q-111 -92 -111 -171v-10 q28 0 60 -61q51 -14 51 -70v-51q-28 -50 -81 -50l-111 10l-201 -10q-44 0 -71 101zM434 547l10 -11h10l20 21l-10 10h-10zM454 627l40 -70l-30 -41q40 -14 40 -50q111 96 111 121q40 0 111 81q-72 342 -151 342q-12 -70 -51 -70l10 -30zM511 1793v10l10 15h10l10 4l53 -7 l61 -51h24q-10 54 11 57q30 -58 50 -228h-9v-20q19 -38 -14 -55h-28q-58 0 -78 44zM847 143q30 0 30 -20l-10 -10v-10h10l31 20l10 -10h10v20l-20 30l10 10l-31 21q0 -41 -40 -41v-10z" />
<glyph unicode="&#xc1;" horiz-adv-x="1201" d="M0 103q4 91 81 91l20 -21q93 52 121 162l40 40l-10 61q20 28 20 121q14 0 31 100l30 11l-10 30q13 0 50 171l10 10h10l-10 41l91 211l50 202l-10 10v10q28 67 61 81h10l30 -20l10 10v10q81 0 162 -434q30 -50 211 -736q79 -80 101 -80l30 10l-10 -10l61 -81l-10 -10 l-81 10h-20v-10q40 0 40 -20l-10 -10h-10l-10 10h-10v-21l10 -30l-40 20v-20h30v-20h-10q-232 0 -232 50l-10 11h-10q0 -41 -51 -41l-20 30l10 11v10q-15 0 -30 40l10 10l10 -10h20q0 35 61 71q0 40 50 40q-40 47 -60 131q-51 29 -51 60h-292q-111 -92 -111 -171v-10 q28 0 60 -61q51 -14 51 -70v-51q-28 -50 -81 -50l-111 10l-201 -10q-44 0 -71 101zM431 1593q20 170 69 187q0 25 60 42l40 -10l20 -9h10l10 9h10l10 -9v-10l-100 -230q-20 -45 -78 -45h-29q-39 17 -13 55v20h-9zM434 547l10 -11h10l20 21l-10 10h-10zM454 627l40 -70 l-30 -41q40 -14 40 -50q111 96 111 121q40 0 111 81q-72 342 -151 342q-12 -70 -51 -70l10 -30zM847 143q30 0 30 -20l-10 -10v-10h10l31 20l10 -10h10v20l-20 30l10 10l-31 21q0 -41 -40 -41v-10z" />
<glyph unicode="&#xc2;" horiz-adv-x="1201" d="M0 103q4 91 81 91l20 -21q93 52 121 162l40 40l-10 61q20 28 20 121q14 0 31 100l30 11l-10 30q13 0 50 171l10 10h10l-10 41l91 211l50 202l-10 10v10q28 67 61 81h10l30 -20l10 10v10q81 0 162 -434q30 -50 211 -736q79 -80 101 -80l30 10l-10 -10l61 -81l-10 -10 l-81 10h-20v-10q40 0 40 -20l-10 -10h-10l-10 10h-10v-21l10 -30l-40 20v-20h30v-20h-10q-232 0 -232 50l-10 11h-10q0 -41 -51 -41l-20 30l10 11v10q-15 0 -30 40l10 10l10 -10h20q0 35 61 71q0 40 50 40q-40 47 -60 131q-51 29 -51 60h-292q-111 -92 -111 -171v-10 q28 0 60 -61q51 -14 51 -70v-51q-28 -50 -81 -50l-111 10l-201 -10q-44 0 -71 101zM301 1546q-6 42 34 66l175 161q68 71 127 22l150 -124l10 -17l-3 -10l4 -6q16 10 76 -39q22 -50 -46 -86l-43 -7q-111 126 -202 152l-3 -8l-6 -4l-13 9q-10 -6 -22 -9l-77 -69l3 -8l-57 -52 q-36 -39 -107 29zM434 547l10 -11h10l20 21l-10 10h-10zM454 627l40 -70l-30 -41q40 -14 40 -50q111 96 111 121q40 0 111 81q-72 342 -151 342q-12 -70 -51 -70l10 -30zM847 143q30 0 30 -20l-10 -10v-10h10l31 20l10 -10h10v20l-20 30l10 10l-31 21q0 -41 -40 -41v-10z " />
<glyph unicode="&#xc3;" horiz-adv-x="1201" d="M0 103q4 91 81 91l20 -21q93 52 121 162l40 40l-10 61q20 28 20 121q14 0 31 100l30 11l-10 30q13 0 50 171l10 10h10l-10 41l91 211l50 202l-10 10v10q28 67 61 81h10l30 -20l10 10v10q81 0 162 -434q30 -50 211 -736q79 -80 101 -80l30 10l-10 -10l61 -81l-10 -10 l-81 10h-20v-10q40 0 40 -20l-10 -10h-10l-10 10h-10v-21l10 -30l-40 20v-20h30v-20h-10q-232 0 -232 50l-10 11h-10q0 -41 -51 -41l-20 30l10 11v10q-15 0 -30 40l10 10l10 -10h20q0 35 61 71q0 40 50 40q-40 47 -60 131q-51 29 -51 60h-292q-111 -92 -111 -171v-10 q28 0 60 -61q51 -14 51 -70v-51q-28 -50 -81 -50l-111 10l-201 -10q-44 0 -71 101zM292 1636q0 47 56.5 70.5t84.5 -23.5l8 8l59 -109l47 -2l-42 64l21 10h-6q54 86 140 86h48q41 0 54 -31l39 8q87 -49 87 -111q0 -47 -71 -87l8 -8v-7l-16 -16l-8 8v8l8 7q-34 0 -92 40 q-51 68 -103 15q-52 -77 -141 -64q-42 0 -94 23q-87 49 -87 111zM434 547l10 -11h10l20 21l-10 10h-10zM454 627l40 -70l-30 -41q40 -14 40 -50q111 96 111 121q40 0 111 81q-72 342 -151 342q-12 -70 -51 -70l10 -30zM847 143q30 0 30 -20l-10 -10v-10h10l31 20l10 -10h10 v20l-20 30l10 10l-31 21q0 -41 -40 -41v-10z" />
<glyph unicode="&#xc4;" horiz-adv-x="1201" d="M0 103q4 91 81 91l20 -21q93 52 121 162l40 40l-10 61q20 28 20 121q14 0 31 100l30 11l-10 30q13 0 50 171l10 10h10l-10 41l91 211l50 202l-10 10v10q28 67 61 81h10l30 -20l10 10v10q81 0 162 -434q30 -50 211 -736q79 -80 101 -80l30 10l-10 -10l61 -81l-10 -10 l-81 10h-20v-10q40 0 40 -20l-10 -10h-10l-10 10h-10v-21l10 -30l-40 20v-20h30v-20h-10q-232 0 -232 50l-10 11h-10q0 -41 -51 -41l-20 30l10 11v10q-15 0 -30 40l10 10l10 -10h20q0 35 61 71q0 40 50 40q-40 47 -60 131q-51 29 -51 60h-292q-111 -92 -111 -171v-10 q28 0 60 -61q51 -14 51 -70v-51q-28 -50 -81 -50l-111 10l-201 -10q-44 0 -71 101zM284 1598l10 10v105l66 76l10 -10h9l38 29q15 -38 29 -38l38 38l10 -10l9 10h10q33 0 47 -105v-29q0 -73 -85 -143h-96l-9 -9h-10q0 33 -76 76zM284 1598l10 10v105l66 76l10 -10h9l38 29 q15 -38 29 -38l38 38l10 -10l9 10h10q33 0 47 -105v-29q0 -73 -85 -143h-96l-9 -9h-10q0 33 -76 76zM434 547l10 -11h10l20 21l-10 10h-10zM454 627l40 -70l-30 -41q40 -14 40 -50q111 96 111 121q40 0 111 81q-72 342 -151 342q-12 -70 -51 -70l10 -30zM644 1703l25 38v10 l47 47h19v-19l-9 10h-10l-9 -10v-5l95 -14l38 10l-28 38h9q76 -31 76 -114v-29q-14 -143 -133 -143h-10q-73 0 -95 48l-10 19zM726 1808v9l19 20h9v-10l-19 -19h-9zM847 143q30 0 30 -20l-10 -10v-10h10l31 20l10 -10h10v20l-20 30l10 10l-31 21q0 -41 -40 -41v-10z" />
<glyph unicode="&#xc5;" horiz-adv-x="1201" d="M0 103q4 91 81 91l20 -21q93 52 121 162l40 40l-10 61q20 28 20 121q14 0 31 100l30 11l-10 30q13 0 50 171l10 10h10l-10 41l91 211l50 202l-10 10v10q28 67 61 81h10l30 -20l10 10v10q81 0 162 -434q30 -50 211 -736q79 -80 101 -80l30 10l-10 -10l61 -81l-10 -10 l-81 10h-20v-10q40 0 40 -20l-10 -10h-10l-10 10h-10v-21l10 -30l-40 20v-20h30v-20h-10q-232 0 -232 50l-10 11h-10q0 -41 -51 -41l-20 30l10 11v10q-15 0 -30 40l10 10l10 -10h20q0 35 61 71q0 40 50 40q-40 47 -60 131q-51 29 -51 60h-292q-111 -92 -111 -171v-10 q28 0 60 -61q51 -14 51 -70v-51q-28 -50 -81 -50l-111 10l-201 -10q-44 0 -71 101zM361 1641v6q6 32 117 135q0 20 28 20q22 -20 103 21l43 -7l21 7q146 -44 146 -170v-39q-11 -80 -87 -169q-53 -42 -117 -58v6q2 3 4 4q-51 -11 -94 -7q-9 -5 -19 -10q-79 26 -101 71l-8 -6 h-8l-13 13l51 53l-29 50q-6 -5 -15 -5l-7 6v7l29 39l-8 20h15l-7 5v8l35 51l-6 7h-7q0 -14 -44 -46q0 -20 -16 -20zM398 1562h7q4 0 7 -1q-3 14 -2 28l-5 -1q0 -18 -7 -26zM434 547l10 -11h10l20 21l-10 10h-10zM454 627l40 -70l-30 -41q40 -14 40 -50q111 96 111 121 q40 0 111 81q-72 342 -151 342q-12 -70 -51 -70l10 -30zM472 1550h12q0 -44 89 -69q67 -8 115 63l-6 6l21 78v5q0 54 -73 72h-37l-50 -32h-37q0 -10 -31 -34q-23 -46 -3 -89zM847 143q30 0 30 -20l-10 -10v-10h10l31 20l10 -10h10v20l-20 30l10 10l-31 21q0 -41 -40 -41v-10 z" />
<glyph unicode="&#xc6;" horiz-adv-x="1843" d="M21 103q26 91 103 91l15 -21q106 52 161 162l50 40l5 61q27 28 50 121q14 0 55 100l33 11l-3 30q13 0 92 171l13 10h10v41l143 211l51 103l-99 -6h-20q-78 0 -78 78v30q59 78 108 78h39l138 -5q19 18 36 25h10l18 -14l-1 -14l35 -1l29 9v-9l-29 -49h19v-10l10 10h10 l29 -20l10 10h49l-10 -10v-10h10q93 0 206 108h78q24 -29 138 -39q0 -27 127 -39v-20l49 10v-393l10 -39q0 -47 -78 -78q-79 26 -79 49v196q0 70 -98 147h-265l-68 10q0 -40 -69 -69l-10 -245v-29q35 -69 98 -69q66 0 157 157l-10 49v10q41 56 89 78h9q30 -6 30 -78v-373 l-49 10l19 -89l-9 -9h-30l-49 39h-10l-58 -30q-40 89 -99 89l-78 -79v-353q29 0 78 -49h79l157 20q10 -30 59 -30q70 0 147 98l-10 69v157q73 88 118 88q29 -32 29 -59l10 10h10l19 -19v-10l-9 10h-20l10 -10l-10 -49l10 -98h-10l10 -10l-10 -49v-59l10 -49h-20q0 29 -19 29 l-10 -9v-10l59 -79q0 -52 -89 -117h-10l-49 49h-19q0 -69 -187 -69h-9l-59 10l-98 -10h-334q-284 0 -284 59v49q59 78 98 78l10 -9q0 16 127 49q0 39 49 39v68l10 30l-10 49v5l-321 -4q-134 -92 -153 -171l-3 -10q28 0 32 -61q48 -14 34 -70l-13 -51q-40 -50 -93 -50 l-109 10l-203 -10q-44 0 -46 101zM581 551l7 -11h10l26 21l-8 10h-10zM603 520q37 -14 251 49q26 -18 47 -22l-5 24v206l-10 49l20 20l-29 39l39 19l-20 30v39l8 162q-91 -195 -127 -195l2 -30l-158 -279l23 -70zM1024 1277l49 10v10l-20 19l-19 -19l-10 9v-29zM1259 404v20 l10 -10h20v49l127 108l10 -10v-147l-10 -10l10 -10v-9l-39 -40h-20q-30 0 -108 59zM1446 1051v20h9l20 -20l-10 -9h-10zM1681 130h10l19 19h-9z" />
<glyph unicode="&#xc7;" horiz-adv-x="1004" d="M0 708v30l20 20l-10 50l10 89h20l10 -10h10l20 50l69 -30l30 30h10l-10 -100v-149q0 -92 40 -278l-20 -20q96 -140 258 -229h40q50 0 130 70q119 70 119 129q55 153 99 179l30 -10v10l20 20q20 -20 30 -119q0 -253 -279 -418l-89 -20h-60q-289 0 -398 249v10q0 19 100 29 v10l-40 30q0 40 -79 40v10l-10 -10h-10q-40 0 -60 338zM30 957l79 139l-19 20q96 197 258 278q51 20 209 30q113 -36 179 -99l10 10q97 99 129 99l10 -10v-10l-20 -40l40 -39l-10 -10h-10l-40 39q-59 -69 -89 -69v-10l20 -20l39 40h10l40 -30l30 20l10 -10v-20h-10l10 -119 v-209q0 -73 -90 -120q-40 0 -79 110q10 40 40 40v29l-20 20l10 10v20q-50 0 -80 70l10 10v10q-104 99 -169 99h-139l-159 -159l-10 10h-20l-149 -139l-10 10h-10zM50 937v10h30l-20 -20zM109 947v10l20 20v-30h-20zM288 -308l20 20v-29h10l10 9q0 30 20 30q41 -4 30 -49 q154 -12 147 89q-30 75 -151 49q-17 2 -9 20l35 114l-3 33l6 23h126q-2 -11 -3 -23l-24 -72q127 -7 142 -133q0 -148 -209 -188l-97 8q-77 44 -50 80v19z" />
<glyph unicode="&#xc8;" horiz-adv-x="1216" d="M0 1306v30q59 78 108 78h39l236 -9l29 9v-9l-29 -49h19v-10l10 10h10l29 -20l10 10h49l-10 -10v-10h10q93 0 206 108h78q24 -29 138 -39q0 -27 127 -39v-20l49 10v-393l10 -39q0 -47 -78 -78q-79 26 -79 49v196q0 70 -98 147h-265l-68 10q0 -40 -69 -69l-10 -245v-29 q35 -69 98 -69q66 0 157 157l-10 49v10q41 56 89 78h9q30 -6 30 -78v-373l-49 10l19 -89l-9 -9h-30l-49 39h-10l-58 -30q-40 89 -99 89l-78 -79v-353q29 0 78 -49h79l157 20q10 -30 59 -30q70 0 147 98l-10 69v157q73 88 118 88q29 -32 29 -59l10 10h10l19 -19v-10l-9 10 h-20l10 -10l-10 -49l10 -98h-10l10 -10l-10 -49v-59l10 -49h-20q0 29 -19 29l-10 -9v-10l59 -79q0 -52 -89 -117h-10l-49 49h-19q0 -69 -187 -69h-9l-59 10l-98 -10h-334q-284 0 -284 59v49q59 78 98 78l10 -9q0 16 127 49q0 39 49 39v68l10 30l-10 49v78l10 30l-10 49v206 l-10 49l20 20l-29 39l39 19l-20 30v39l10 196q-43 0 -69 49l30 10v10h-10l-157 -10h-20q-78 0 -78 78zM422 1277l49 10v10l-20 19l-19 -19l-10 9v-29zM489 1793v10l10 15h10l10 4l53 -7l61 -51h24q-10 54 11 57q30 -58 50 -228h-9v-20q19 -38 -14 -55h-28q-58 0 -78 44z M657 404v20l10 -10h20v49l127 108l10 -10v-147l-10 -10l10 -10v-9l-39 -40h-20q-30 0 -108 59zM844 1051v20h9l20 -20l-10 -9h-10zM1079 130h10l19 19h-9z" />
<glyph unicode="&#xc9;" horiz-adv-x="1216" d="M0 1306v30q59 78 108 78h39l236 -9l29 9v-9l-29 -49h19v-10l10 10h10l29 -20l10 10h49l-10 -10v-10h10q93 0 206 108h78q24 -29 138 -39q0 -27 127 -39v-20l49 10v-393l10 -39q0 -47 -78 -78q-79 26 -79 49v196q0 70 -98 147h-265l-68 10q0 -40 -69 -69l-10 -245v-29 q35 -69 98 -69q66 0 157 157l-10 49v10q41 56 89 78h9q30 -6 30 -78v-373l-49 10l19 -89l-9 -9h-30l-49 39h-10l-58 -30q-40 89 -99 89l-78 -79v-353q29 0 78 -49h79l157 20q10 -30 59 -30q70 0 147 98l-10 69v157q73 88 118 88q29 -32 29 -59l10 10h10l19 -19v-10l-9 10 h-20l10 -10l-10 -49l10 -98h-10l10 -10l-10 -49v-59l10 -49h-20q0 29 -19 29l-10 -9v-10l59 -79q0 -52 -89 -117h-10l-49 49h-19q0 -69 -187 -69h-9l-59 10l-98 -10h-334q-284 0 -284 59v49q59 78 98 78l10 -9q0 16 127 49q0 39 49 39v68l10 30l-10 49v78l10 30l-10 49v206 l-10 49l20 20l-29 39l39 19l-20 30v39l10 196q-43 0 -69 49l30 10v10h-10l-157 -10h-20q-78 0 -78 78zM419 1593q20 170 69 187q0 25 60 42l40 -10l20 -9h10l10 9h10l10 -9v-10l-100 -230q-20 -45 -78 -45h-29q-39 17 -13 55v20h-9zM422 1277l49 10v10l-20 19l-19 -19l-10 9 v-29zM657 404v20l10 -10h20v49l127 108l10 -10v-147l-10 -10l10 -10v-9l-39 -40h-20q-30 0 -108 59zM844 1051v20h9l20 -20l-10 -9h-10zM1079 130h10l19 19h-9z" />
<glyph unicode="&#xca;" horiz-adv-x="1216" d="M0 1306v30q59 78 108 78h39l236 -9l29 9v-9l-29 -49h19v-10l10 10h10l29 -20l10 10h49l-10 -10v-10h10q93 0 206 108h78q24 -29 138 -39q0 -27 127 -39v-20l49 10v-393l10 -39q0 -47 -78 -78q-79 26 -79 49v196q0 70 -98 147h-265l-68 10q0 -40 -69 -69l-10 -245v-29 q35 -69 98 -69q66 0 157 157l-10 49v10q41 56 89 78h9q30 -6 30 -78v-373l-49 10l19 -89l-9 -9h-30l-49 39h-10l-58 -30q-40 89 -99 89l-78 -79v-353q29 0 78 -49h79l157 20q10 -30 59 -30q70 0 147 98l-10 69v157q73 88 118 88q29 -32 29 -59l10 10h10l19 -19v-10l-9 10 h-20l10 -10l-10 -49l10 -98h-10l10 -10l-10 -49v-59l10 -49h-20q0 29 -19 29l-10 -9v-10l59 -79q0 -52 -89 -117h-10l-49 49h-19q0 -69 -187 -69h-9l-59 10l-98 -10h-334q-284 0 -284 59v49q59 78 98 78l10 -9q0 16 127 49q0 39 49 39v68l10 30l-10 49v78l10 30l-10 49v206 l-10 49l20 20l-29 39l39 19l-20 30v39l10 196q-43 0 -69 49l30 10v10h-10l-157 -10h-20q-78 0 -78 78zM290 1546q-6 42 34 66l175 161q68 71 127 22l150 -124l10 -17l-3 -10l4 -6q16 10 76 -39q22 -50 -46 -86l-43 -7q-111 126 -202 152l-3 -8l-6 -4l-13 9q-10 -6 -22 -9 l-77 -69l3 -8l-57 -52q-36 -39 -107 29zM422 1277l49 10v10l-20 19l-19 -19l-10 9v-29zM657 404v20l10 -10h20v49l127 108l10 -10v-147l-10 -10l10 -10v-9l-39 -40h-20q-30 0 -108 59zM844 1051v20h9l20 -20l-10 -9h-10zM1079 130h10l19 19h-9z" />
<glyph unicode="&#xcb;" horiz-adv-x="1216" d="M0 1306v30q59 78 108 78h39l236 -9l29 9v-9l-29 -49h19v-10l10 10h10l29 -20l10 10h49l-10 -10v-10h10q93 0 206 108h78q24 -29 138 -39q0 -27 127 -39v-20l49 10v-393l10 -39q0 -47 -78 -78q-79 26 -79 49v196q0 70 -98 147h-265l-68 10q0 -40 -69 -69l-10 -245v-29 q35 -69 98 -69q66 0 157 157l-10 49v10q41 56 89 78h9q30 -6 30 -78v-373l-49 10l19 -89l-9 -9h-30l-49 39h-10l-58 -30q-40 89 -99 89l-78 -79v-353q29 0 78 -49h79l157 20q10 -30 59 -30q70 0 147 98l-10 69v157q73 88 118 88q29 -32 29 -59l10 10h10l19 -19v-10l-9 10 h-20l10 -10l-10 -49l10 -98h-10l10 -10l-10 -49v-59l10 -49h-20q0 29 -19 29l-10 -9v-10l59 -79q0 -52 -89 -117h-10l-49 49h-19q0 -69 -187 -69h-9l-59 10l-98 -10h-334q-284 0 -284 59v49q59 78 98 78l10 -9q0 16 127 49q0 39 49 39v68l10 30l-10 49v78l10 30l-10 49v206 l-10 49l20 20l-29 39l39 19l-20 30v39l10 196q-43 0 -69 49l30 10v10h-10l-157 -10h-20q-78 0 -78 78zM272 1598l10 10v105l66 76l10 -10h9l38 29q15 -38 29 -38l38 38l10 -10l9 10h10q33 0 47 -105v-29q0 -73 -85 -143h-96l-9 -9h-10q0 33 -76 76zM272 1598l10 10v105 l66 76l10 -10h9l38 29q15 -38 29 -38l38 38l10 -10l9 10h10q33 0 47 -105v-29q0 -73 -85 -143h-96l-9 -9h-10q0 33 -76 76zM422 1277l49 10v10l-20 19l-19 -19l-10 9v-29zM632 1703l25 38v10l47 47h19v-19l-9 10h-10l-9 -10v-5l95 -14l38 10l-28 38h9q76 -31 76 -114v-29 q-14 -143 -133 -143h-10q-73 0 -95 48l-10 19zM657 404v20l10 -10h20v49l127 108l10 -10v-147l-10 -10l10 -10v-9l-39 -40h-20q-30 0 -108 59zM714 1808v9l19 20h9v-10l-19 -19h-9zM844 1051v20h9l20 -20l-10 -9h-10zM1079 130h10l19 19h-9z" />
<glyph unicode="&#xcc;" horiz-adv-x="941" d="M0 79v9l10 -9h19q0 84 128 117l138 -9q19 0 78 78l-10 10v20l10 49l-10 10h10q20 0 20 -40h29q0 29 40 49l9 -9h10v19h20v-19h10l10 59l-10 39h-10l-30 -20l-9 10v-10l-30 20l-59 -30l-10 10v314q0 47 69 89v20q-31 58 -49 58l-10 -9l-10 9v187l20 20h10q0 -30 20 -30h19 l30 20q0 18 -59 49l-20 -20l-20 20l30 29l-49 30l-40 -10l-9 10l-69 -10h-30l-9 10l-10 -10h-10q-70 0 -138 98v59l20 20l20 -20q0 30 78 40l10 -10v-30l-19 -29q19 -40 58 -40v10q4 28 118 128h40q36 -39 167 -39l-10 10v9l10 10q68 -33 68 -49v-10h-19v-19l29 19l10 -10 h10l49 59h39q74 -12 79 -39l10 10h19q23 0 30 -69q0 -98 -118 -98l-118 10l-69 -89l-10 -49l10 -127h-10l10 -10v-108l10 -30l-10 -49v-108l-10 -236l10 -9v-10l-10 -40q7 -186 40 -186l-10 -10v-10l29 -10l10 10l10 -10v-9l88 68h89q69 -45 69 -68l9 9h10l20 -19l-10 -10 h-10l-10 10q0 -77 -88 -128h-638q-61 0 -99 69l-10 -10h-9zM177 1247l19 -19h20l-20 19h-19zM368 1793v10l10 15h10l10 4l53 -7l61 -51h24q-10 54 11 57q30 -58 50 -228h-9v-20q19 -38 -14 -55h-28q-58 0 -78 44zM471 1120h30q0 19 88 108q-39 0 -39 19l10 10h10l-10 30 l-10 -10h-10l10 -10v-20h-10l-39 20l-30 -59l20 -29zM835 216v10l49 -49h-10z" />
<glyph unicode="&#xcd;" horiz-adv-x="941" d="M0 79v9l10 -9h19q0 84 128 117l138 -9q19 0 78 78l-10 10v20l10 49l-10 10h10q20 0 20 -40h29q0 29 40 49l9 -9h10v19h20v-19h10l10 59l-10 39h-10l-30 -20l-9 10v-10l-30 20l-59 -30l-10 10v314q0 47 69 89v20q-31 58 -49 58l-10 -9l-10 9v187l20 20h10q0 -30 20 -30h19 l30 20q0 18 -59 49l-20 -20l-20 20l30 29l-49 30l-40 -10l-9 10l-69 -10h-30l-9 10l-10 -10h-10q-70 0 -138 98v59l20 20l20 -20q0 30 78 40l10 -10v-30l-19 -29q19 -40 58 -40v10q4 28 118 128h40q36 -39 167 -39l-10 10v9l10 10q68 -33 68 -49v-10h-19v-19l29 19l10 -10 h10l49 59h39q74 -12 79 -39l10 10h19q23 0 30 -69q0 -98 -118 -98l-118 10l-69 -89l-10 -49l10 -127h-10l10 -10v-108l10 -30l-10 -49v-108l-10 -236l10 -9v-10l-10 -40q7 -186 40 -186l-10 -10v-10l29 -10l10 10l10 -10v-9l88 68h89q69 -45 69 -68l9 9h10l20 -19l-10 -10 h-10l-10 10q0 -77 -88 -128h-638q-61 0 -99 69l-10 -10h-9zM177 1247l19 -19h20l-20 19h-19zM298 1593q20 170 69 187q0 25 60 42l40 -10l20 -9h10l10 9h10l10 -9v-10l-100 -230q-20 -45 -78 -45h-29q-39 17 -13 55v20h-9zM471 1120h30q0 19 88 108q-39 0 -39 19l10 10h10 l-10 30l-10 -10h-10l10 -10v-20h-10l-39 20l-30 -59l20 -29zM835 216v10l49 -49h-10z" />
<glyph unicode="&#xce;" horiz-adv-x="941" d="M0 79v9l10 -9h19q0 84 128 117l138 -9q19 0 78 78l-10 10v20l10 49l-10 10h10q20 0 20 -40h29q0 29 40 49l9 -9h10v19h20v-19h10l10 59l-10 39h-10l-30 -20l-9 10v-10l-30 20l-59 -30l-10 10v314q0 47 69 89v20q-31 58 -49 58l-10 -9l-10 9v187l20 20h10q0 -30 20 -30h19 l30 20q0 18 -59 49l-20 -20l-20 20l30 29l-49 30l-40 -10l-9 10l-69 -10h-30l-9 10l-10 -10h-10q-70 0 -138 98v59l20 20l20 -20q0 30 78 40l10 -10v-30l-19 -29q19 -40 58 -40v10q4 28 118 128h40q36 -39 167 -39l-10 10v9l10 10q68 -33 68 -49v-10h-19v-19l29 19l10 -10 h10l49 59h39q74 -12 79 -39l10 10h19q23 0 30 -69q0 -98 -118 -98l-118 10l-69 -89l-10 -49l10 -127h-10l10 -10v-108l10 -30l-10 -49v-108l-10 -236l10 -9v-10l-10 -40q7 -186 40 -186l-10 -10v-10l29 -10l10 10l10 -10v-9l88 68h89q69 -45 69 -68l9 9h10l20 -19l-10 -10 h-10l-10 10q0 -77 -88 -128h-638q-61 0 -99 69l-10 -10h-9zM158 1546q-6 42 34 66l175 161q68 71 127 22l150 -124l10 -17l-3 -10l4 -6q16 10 76 -39q22 -50 -46 -86l-43 -7q-111 126 -202 152l-3 -8l-6 -4l-13 9q-10 -6 -22 -9l-77 -69l3 -8l-57 -52q-36 -39 -107 29z M177 1247l19 -19h20l-20 19h-19zM471 1120h30q0 19 88 108q-39 0 -39 19l10 10h10l-10 30l-10 -10h-10l10 -10v-20h-10l-39 20l-30 -59l20 -29zM835 216v10l49 -49h-10z" />
<glyph unicode="&#xcf;" horiz-adv-x="941" d="M0 79v9l10 -9h19q0 84 128 117l138 -9q19 0 78 78l-10 10v20l10 49l-10 10h10q20 0 20 -40h29q0 29 40 49l9 -9h10v19h20v-19h10l10 59l-10 39h-10l-30 -20l-9 10v-10l-30 20l-59 -30l-10 10v314q0 47 69 89v20q-31 58 -49 58l-10 -9l-10 9v187l20 20h10q0 -30 20 -30h19 l30 20q0 18 -59 49l-20 -20l-20 20l30 29l-49 30l-40 -10l-9 10l-69 -10h-30l-9 10l-10 -10h-10q-70 0 -138 98v59l20 20l20 -20q0 30 78 40l10 -10v-30l-19 -29q19 -40 58 -40v10q4 28 118 128h40q36 -39 167 -39l-10 10v9l10 10q68 -33 68 -49v-10h-19v-19l29 19l10 -10 h10l49 59h39q74 -12 79 -39l10 10h19q23 0 30 -69q0 -98 -118 -98l-118 10l-69 -89l-10 -49l10 -127h-10l10 -10v-108l10 -30l-10 -49v-108l-10 -236l10 -9v-10l-10 -40q7 -186 40 -186l-10 -10v-10l29 -10l10 10l10 -10v-9l88 68h89q69 -45 69 -68l9 9h10l20 -19l-10 -10 h-10l-10 10q0 -77 -88 -128h-638q-61 0 -99 69l-10 -10h-9zM141 1598l10 10v105l66 76l10 -10h9l38 29q15 -38 29 -38l38 38l10 -10l9 10h10q33 0 47 -105v-29q0 -73 -85 -143h-96l-9 -9h-10q0 33 -76 76zM141 1598l10 10v105l66 76l10 -10h9l38 29q15 -38 29 -38l38 38 l10 -10l9 10h10q33 0 47 -105v-29q0 -73 -85 -143h-96l-9 -9h-10q0 33 -76 76zM177 1247l19 -19h20l-20 19h-19zM471 1120h30q0 19 88 108q-39 0 -39 19l10 10h10l-10 30l-10 -10h-10l10 -10v-20h-10l-39 20l-30 -59l20 -29zM501 1703l25 38v10l47 47h19v-19l-9 10h-10 l-9 -10v-5l95 -14l38 10l-28 38h9q76 -31 76 -114v-29q-14 -143 -133 -143h-10q-73 0 -95 48l-10 19zM583 1808v9l19 20h9v-10l-19 -19h-9zM835 216v10l49 -49h-10z" />
<glyph unicode="&#xd0;" horiz-adv-x="1210" d="M-22 84v10l10 -10h19q0 50 20 50l10 -10q8 49 79 49l88 -10q71 36 98 138q51 0 59 29v10h-19l19 59h-19l-40 -30l-9 10v49l9 10v10l-9 10h-10l10 49v216l-10 384l10 39q-20 0 -79 59q-167 0 -167 29q39 48 39 79l-10 10v10l10 49l-10 29h40l39 10q49 -10 49 -39h167 l49 39h10l39 -29q5 39 30 39l39 -39l49 10h69l30 -20l10 10l9 -10q0 -30 -49 -30v-9l148 -50l19 30l10 -10h10l39 30q55 0 177 -177q0 -20 -29 -20v-20l19 -59l30 20q59 -98 59 -256v-49q-7 -314 -59 -314l10 -49q-40 -184 -128 -276q-96 -127 -649 -127q0 -20 -118 -20h-59 l-39 10l-30 -10l10 10v10q-39 9 -98 68zM-22 732q27 38 100 64l50 -121l23 5l-12 104q125 3 188 0h55l36 -9l37 9l128 11l51 -17l27 -28v-27q-18 -91 -91 -91h-136l-64 9l-82 -9h-219q-91 0 -91 100zM401 379l19 -19l30 29l10 -10l-10 -68l10 -69h-10q0 -27 78 -79h89 q210 0 285 128q0 65 59 196h10l-10 10l20 315q0 102 -20 157l20 20v10q-161 196 -276 196v20h20v10q0 22 -88 49v-20l19 -29v-10h-147q0 -40 -49 -49v-246l-30 -39q30 -10 30 -59v-266l-10 -10l10 -9v-20l-50 -49l10 -49v-10z" />
<glyph unicode="&#xd1;" horiz-adv-x="1250" d="M-3 1305v10l10 -10h20q34 89 129 89h99l39 30h40l50 -10l9 10q83 -82 139 -287q99 -201 218 -535l-10 -10q-119 10 -119 29q-56 33 -158 288q0 29 -20 29l-10 -9v19h-40l-59 -109v-10l20 -29v-20h-20l-30 20h-10l-20 -20v-10l80 -20l39 20l10 -10l-10 -10v-49l10 -60 l-39 -89h10l10 10h9l10 -10l-10 -248v-20q0 -80 90 -99q0 30 69 40q94 -30 129 -89q-20 0 -20 -40l-10 -10h-10l10 -10v-10l-40 -39l-9 10l-10 -10h-60q-60 64 -109 69q0 -23 -49 -30l-10 30h-40q0 -30 -20 -30h-10l-79 30l-149 -89q-59 76 -59 109q32 99 49 99l40 -20 q110 11 139 50h10v119l10 29l-10 50v248l20 29v10l-30 40v59l10 30l-10 50v198q28 50 59 50v9l-89 90l-10 -10h-30q-100 0 -148 39zM284 1256q17 0 60 -70q26 4 40 50h29v10q0 24 -89 59v-10q20 -39 50 -39v-20l-30 -30l-50 69h-10v-19zM308 1636q0 47 56.5 70.5t84.5 -23.5 l8 8l59 -109l47 -2l-42 64l21 10h-6q54 86 140 86h48q41 0 54 -31l39 8q87 -49 87 -111q0 -47 -71 -87l8 -8v-7l-16 -16l-8 8v8l8 7q-34 0 -92 40q-51 68 -103 15q-52 -77 -141 -64q-42 0 -94 23q-87 49 -87 111zM602 1335l89 79h89l-50 -49l10 -30h10q0 30 20 30h10v-10 l-10 -10v-10h20v30h10l39 -30h10l169 99h49q53 0 109 -79q0 -99 -119 -99q-45 -60 -69 -60v-307l-59 -69l19 -70h20q0 30 20 30l10 -10l-10 -59l10 -486l-69 -79l19 -40q-39 -6 -49 -50h-10q0 20 -30 20l-49 -29l-119 327l20 19q0 54 -80 149v30q42 -17 89 -70l40 -9v-20 h-20v-10h40l40 20v10l-30 9l10 30h10l10 -10h9l70 139h-10l20 40v10h-10q0 -30 -30 -30v10l30 29q-13 50 -30 50h-10q-7 -50 -30 -50l-9 10l9 10v377q0 139 -59 139v10l10 9q-50 29 -50 60l-29 -20h-80zM621 225v10l10 10h10l10 -10v-10l-10 -10h-10zM671 1365h40l9 29h-9 l-40 -19v-10zM899 7v10l89 99l10 -10v-20l-89 -89zM1186 1345v10l10 10h10l10 -10v-10l-10 -10h-10z" />
<glyph unicode="&#xd2;" horiz-adv-x="1089" d="M-1 545v222l10 10v10l9 -10h20l87 87q-18 0 -78 106l-9 10q72 252 116 261l9 -10h10q89 126 280 184l10 9v10q174 0 299 -155q66 0 184 -251q48 -191 48 -290q0 -625 -483 -734h-48q-65 0 -280 126q-78 100 -78 125l20 20l-39 58q-63 0 -87 212zM154 661l29 -193l-20 -20 v-9q204 -232 222 -232q174 0 174 -29l-19 -19l19 -20h10l-10 10v10l10 9h10l19 -19h10l125 106l-19 29q64 81 97 290l19 58q17 0 29 48l-10 10l10 10h10v-20h9v20q-58 19 -58 38v29q0 357 -309 493h-48q-213 0 -309 -493v-106zM427 1793v10l10 15h10l10 4l53 -7l61 -51h24 q-10 54 11 57q30 -58 50 -228h-9v-20q19 -38 -14 -55h-28q-58 0 -78 44zM714 1241h19v29h-19v-29z" />
<glyph unicode="&#xd3;" horiz-adv-x="1089" d="M-1 545v222l10 10v10l9 -10h20l87 87q-18 0 -78 106l-9 10q72 252 116 261l9 -10h10q89 126 280 184l10 9v10q174 0 299 -155q66 0 184 -251q48 -191 48 -290q0 -625 -483 -734h-48q-65 0 -280 126q-78 100 -78 125l20 20l-39 58q-63 0 -87 212zM154 661l29 -193l-20 -20 v-9q204 -232 222 -232q174 0 174 -29l-19 -19l19 -20h10l-10 10v10l10 9h10l19 -19h10l125 106l-19 29q64 81 97 290l19 58q17 0 29 48l-10 10l10 10h10v-20h9v20q-58 19 -58 38v29q0 357 -309 493h-48q-213 0 -309 -493v-106zM357 1593q20 170 69 187q0 25 60 42l40 -10 l20 -9h10l10 9h10l10 -9v-10l-100 -230q-20 -45 -78 -45h-29q-39 17 -13 55v20h-9zM714 1241h19v29h-19v-29z" />
<glyph unicode="&#xd4;" horiz-adv-x="1089" d="M-1 545v222l10 10v10l9 -10h20l87 87q-18 0 -78 106l-9 10q72 252 116 261l9 -10h10q89 126 280 184l10 9v10q174 0 299 -155q66 0 184 -251q48 -191 48 -290q0 -625 -483 -734h-48q-65 0 -280 126q-78 100 -78 125l20 20l-39 58q-63 0 -87 212zM154 661l29 -193l-20 -20 v-9q204 -232 222 -232q174 0 174 -29l-19 -19l19 -20h10l-10 10v10l10 9h10l19 -19h10l125 106l-19 29q64 81 97 290l19 58q17 0 29 48l-10 10l10 10h10v-20h9v20q-58 19 -58 38v29q0 357 -309 493h-48q-213 0 -309 -493v-106zM208 1546q-6 42 34 66l175 161q68 71 127 22 l150 -124l10 -17l-3 -10l4 -6q16 10 76 -39q22 -50 -46 -86l-43 -7q-111 126 -202 152l-3 -8l-6 -4l-13 9q-10 -6 -22 -9l-77 -69l3 -8l-57 -52q-36 -39 -107 29zM714 1241h19v29h-19v-29z" />
<glyph unicode="&#xd5;" horiz-adv-x="1089" d="M-1 545v222l10 10v10l9 -10h20l87 87q-18 0 -78 106l-9 10q72 252 116 261l9 -10h10q89 126 280 184l10 9v10q174 0 299 -155q66 0 184 -251q48 -191 48 -290q0 -625 -483 -734h-48q-65 0 -280 126q-78 100 -78 125l20 20l-39 58q-63 0 -87 212zM154 661l29 -193l-20 -20 v-9q204 -232 222 -232q174 0 174 -29l-19 -19l19 -20h10l-10 10v10l10 9h10l19 -19h10l125 106l-19 29q64 81 97 290l19 58q17 0 29 48l-10 10l10 10h10v-20h9v20q-58 19 -58 38v29q0 357 -309 493h-48q-213 0 -309 -493v-106zM198 1636q0 47 56.5 70.5t84.5 -23.5l8 8 l59 -109l47 -2l-42 64l21 10h-6q54 86 140 86h48q41 0 54 -31l39 8q87 -49 87 -111q0 -47 -71 -87l8 -8v-7l-16 -16l-8 8v8l8 7q-34 0 -92 40q-51 68 -103 15q-52 -77 -141 -64q-42 0 -94 23q-87 49 -87 111zM714 1241h19v29h-19v-29z" />
<glyph unicode="&#xd6;" horiz-adv-x="1089" d="M-1 545v222l10 10v10l9 -10h20l87 87q-18 0 -78 106l-9 10q72 252 116 261l9 -10h10q89 126 280 184l10 9v10q174 0 299 -155q66 0 184 -251q48 -191 48 -290q0 -625 -483 -734h-48q-65 0 -280 126q-78 100 -78 125l20 20l-39 58q-63 0 -87 212zM154 661l29 -193l-20 -20 v-9q204 -232 222 -232q174 0 174 -29l-19 -19l19 -20h10l-10 10v10l10 9h10l19 -19h10l125 106l-19 29q64 81 97 290l19 58q17 0 29 48l-10 10l10 10h10v-20h9v20q-58 19 -58 38v29q0 357 -309 493h-48q-213 0 -309 -493v-106zM190 1598l10 10v105l66 76l10 -10h9l38 29 q15 -38 29 -38l38 38l10 -10l9 10h10q33 0 47 -105v-29q0 -73 -85 -143h-96l-9 -9h-10q0 33 -76 76zM190 1598l10 10v105l66 76l10 -10h9l38 29q15 -38 29 -38l38 38l10 -10l9 10h10q33 0 47 -105v-29q0 -73 -85 -143h-96l-9 -9h-10q0 33 -76 76zM550 1703l25 38v10l47 47 h19v-19l-9 10h-10l-9 -10v-5l95 -14l38 10l-28 38h9q76 -31 76 -114v-29q-14 -143 -133 -143h-10q-73 0 -95 48l-10 19zM632 1808v9l19 20h9v-10l-19 -19h-9zM714 1241h19v29h-19v-29z" />
<glyph unicode="&#xd7;" horiz-adv-x="653" d="M57 980l19 20q78 51 129 -1l97 -97l-3 -24l18 29l76 26l97 96l39 -1l19 -19q52 -77 0 -128l-97 -96l-22 -17l102 -126q110 -37 22 -133q-61 -31 -117 26l-25 38l-86 86l-132 -132q-65 -64 -135 7q-8 46 25 116l39 26l78 77q10 10 16 24l-43 14l-20 54l-85 73z" />
<glyph unicode="&#xd8;" horiz-adv-x="1089" d="M-1 545v222l10 10v10l9 -10h20l87 87q-18 0 -78 106l-9 10q72 252 116 261l9 -10h10q89 126 280 184l10 9v10q151 0 265 -117q59 128 144 128h8l8 -8h8l16 16l24 -32v-32q-32 -53 -96 -172q47 -63 106 -189q48 -191 48 -290q0 -625 -483 -734h-48q-53 0 -208 85 q-37 -65 -60 -87h-8l-8 8l-48 -40l-9 8l-56 -32l-8 8v65h16l-8 8v8l40 40l-8 40l48 64q-41 58 -41 76l20 20l-39 58q-63 0 -87 212zM154 661l29 -193l-20 -20v-9l72 -81l121 225q30 22 113 193l-8 8v32q83 104 211 339q-66 63 -161 105h-48q-213 0 -309 -493v-106zM335 250 q42 -43 50 -43q174 0 174 -29l-19 -19l19 -20h10l-10 10v10l10 9h10l19 -19h10l125 106l-19 29q64 81 97 290l19 58q17 0 29 48l-10 10l10 10h10v-20h9v20q-58 19 -58 38v29q0 167 -68 286q-152 -288 -412 -793q-2 -5 -5 -10z" />
<glyph unicode="&#xd9;" horiz-adv-x="1228" d="M2 1258v39l20 20l-10 10v9q55 59 156 59l49 -10l29 29h29l68 -19l10 10h10l49 -20l9 10h10l10 -10l10 10h19q30 0 39 -88q0 -64 -127 -107q-58 -55 -58 -117v-166q0 -78 -59 -78l10 -10v-39l-19 -19q-20 0 -20 29q-68 23 -68 39v224l-10 88l10 10l-10 39q-56 11 -58 68 h-30l-48 -39zM158 644l10 10v9l-10 30l10 9h10l19 -19h10q0 49 78 49l39 39l10 -10v-351q0 -105 146 -225q241 33 293 88l9 -10h10l78 88v10q-4 20 -49 39l-9 -10l-10 10v166l-10 10v9l49 20l-39 49l29 29l-19 19v78l-10 88q10 78 29 78l10 -10l10 40l-39 58v117 q-34 62 -156 117q0 25 -39 29l-10 10v10h10l29 -10q64 78 88 78l107 -10q37 0 88 49l136 -19l-9 9v10h9q20 0 20 -39q49 0 49 -78l-10 -49l10 -9q-118 -40 -147 -98q-5 -283 -19 -283l10 -49v-361q0 -373 -352 -458h-97q-205 0 -322 205l-10 -10h-10v10l10 10v9l-29 117z M168 1278l68 -49h39q0 29 29 29l10 30q-39 0 -39 19h-88l-19 -19v-10zM470 1424l10 10h10l49 -59l-10 -9h-10zM489 1793v10l10 15h10l10 4l53 -7l61 -51h24q-10 54 11 57q30 -58 50 -228h-9v-20q19 -38 -14 -55h-28q-58 0 -78 44zM870 380l10 -9h10l9 29h-9z" />
<glyph unicode="&#xda;" horiz-adv-x="1228" d="M2 1258v39l20 20l-10 10v9q55 59 156 59l49 -10l29 29h29l68 -19l10 10h10l49 -20l9 10h10l10 -10l10 10h19q30 0 39 -88q0 -64 -127 -107q-58 -55 -58 -117v-166q0 -78 -59 -78l10 -10v-39l-19 -19q-20 0 -20 29q-68 23 -68 39v224l-10 88l10 10l-10 39q-56 11 -58 68 h-30l-48 -39zM158 644l10 10v9l-10 30l10 9h10l19 -19h10q0 49 78 49l39 39l10 -10v-351q0 -105 146 -225q241 33 293 88l9 -10h10l78 88v10q-4 20 -49 39l-9 -10l-10 10v166l-10 10v9l49 20l-39 49l29 29l-19 19v78l-10 88q10 78 29 78l10 -10l10 40l-39 58v117 q-34 62 -156 117q0 25 -39 29l-10 10v10h10l29 -10q64 78 88 78l107 -10q37 0 88 49l136 -19l-9 9v10h9q20 0 20 -39q49 0 49 -78l-10 -49l10 -9q-118 -40 -147 -98q-5 -283 -19 -283l10 -49v-361q0 -373 -352 -458h-97q-205 0 -322 205l-10 -10h-10v10l10 10v9l-29 117z M168 1278l68 -49h39q0 29 29 29l10 30q-39 0 -39 19h-88l-19 -19v-10zM419 1593q20 170 69 187q0 25 60 42l40 -10l20 -9h10l10 9h10l10 -9v-10l-100 -230q-20 -45 -78 -45h-29q-39 17 -13 55v20h-9zM470 1424l10 10h10l49 -59l-10 -9h-10zM870 380l10 -9h10l9 29h-9z" />
<glyph unicode="&#xdb;" horiz-adv-x="1228" d="M2 1258v39l20 20l-10 10v9q55 59 156 59l49 -10l29 29h29l68 -19l10 10h10l49 -20l9 10h10l10 -10l10 10h19q30 0 39 -88q0 -64 -127 -107q-58 -55 -58 -117v-166q0 -78 -59 -78l10 -10v-39l-19 -19q-20 0 -20 29q-68 23 -68 39v224l-10 88l10 10l-10 39q-56 11 -58 68 h-30l-48 -39zM158 644l10 10v9l-10 30l10 9h10l19 -19h10q0 49 78 49l39 39l10 -10v-351q0 -105 146 -225q241 33 293 88l9 -10h10l78 88v10q-4 20 -49 39l-9 -10l-10 10v166l-10 10v9l49 20l-39 49l29 29l-19 19v78l-10 88q10 78 29 78l10 -10l10 40l-39 58v117 q-34 62 -156 117q0 25 -39 29l-10 10v10h10l29 -10q64 78 88 78l107 -10q37 0 88 49l136 -19l-9 9v10h9q20 0 20 -39q49 0 49 -78l-10 -49l10 -9q-118 -40 -147 -98q-5 -283 -19 -283l10 -49v-361q0 -373 -352 -458h-97q-205 0 -322 205l-10 -10h-10v10l10 10v9l-29 117z M168 1278l68 -49h39q0 29 29 29l10 30q-39 0 -39 19h-88l-19 -19v-10zM279 1546q-6 42 34 66l175 161q68 71 127 22l150 -124l10 -17l-3 -10l4 -6q16 10 76 -39q22 -50 -46 -86l-43 -7q-111 126 -202 152l-3 -8l-6 -4l-13 9q-10 -6 -22 -9l-77 -69l3 -8l-57 -52 q-36 -39 -107 29zM470 1424l10 10h10l49 -59l-10 -9h-10zM870 380l10 -9h10l9 29h-9z" />
<glyph unicode="&#xdc;" horiz-adv-x="1228" d="M2 1258v39l20 20l-10 10v9q55 59 156 59l49 -10l29 29h29l68 -19l10 10h10l49 -20l9 10h10l10 -10l10 10h19q30 0 39 -88q0 -64 -127 -107q-58 -55 -58 -117v-166q0 -78 -59 -78l10 -10v-39l-19 -19q-20 0 -20 29q-68 23 -68 39v224l-10 88l10 10l-10 39q-56 11 -58 68 h-30l-48 -39zM158 644l10 10v9l-10 30l10 9h10l19 -19h10q0 49 78 49l39 39l10 -10v-351q0 -105 146 -225q241 33 293 88l9 -10h10l78 88v10q-4 20 -49 39l-9 -10l-10 10v166l-10 10v9l49 20l-39 49l29 29l-19 19v78l-10 88q10 78 29 78l10 -10l10 40l-39 58v117 q-34 62 -156 117q0 25 -39 29l-10 10v10h10l29 -10q64 78 88 78l107 -10q37 0 88 49l136 -19l-9 9v10h9q20 0 20 -39q49 0 49 -78l-10 -49l10 -9q-118 -40 -147 -98q-5 -283 -19 -283l10 -49v-361q0 -373 -352 -458h-97q-205 0 -322 205l-10 -10h-10v10l10 10v9l-29 117z M168 1278l68 -49h39q0 29 29 29l10 30q-39 0 -39 19h-88l-19 -19v-10zM262 1598l10 10v105l66 76l10 -10h9l38 29q15 -38 29 -38l38 38l10 -10l9 10h10q33 0 47 -105v-29q0 -73 -85 -143h-96l-9 -9h-10q0 33 -76 76zM262 1598l10 10v105l66 76l10 -10h9l38 29q15 -38 29 -38 l38 38l10 -10l9 10h10q33 0 47 -105v-29q0 -73 -85 -143h-96l-9 -9h-10q0 33 -76 76zM470 1424l10 10h10l49 -59l-10 -9h-10zM622 1703l25 38v10l47 47h19v-19l-9 10h-10l-9 -10v-5l95 -14l38 10l-28 38h9q76 -31 76 -114v-29q-14 -143 -133 -143h-10q-73 0 -95 48l-10 19z M704 1808v9l19 20h9v-10l-19 -19h-9zM870 380l10 -9h10l9 29h-9z" />
<glyph unicode="&#xdd;" horiz-adv-x="1234" d="M-1 1265v40q69 99 189 99q73 0 110 -70l39 -29h10q0 42 50 89l-10 10v10l10 10l119 -80v-10l-9 10h-20v-29q0 -39 -90 -130h-10l169 -388v-10q74 0 100 110l40 89h10l10 -10h9l70 150q0 94 -109 159l-10 49v10q20 70 59 70l10 10v10l50 -10h149l40 -30l80 20 q99 -36 99 -99q0 -62 -49 -90l-10 10q-155 0 -219 -229q-219 -418 -219 -488v-169q0 -179 109 -179h50l30 20h30q37 -40 79 -40l10 -10v-10q-23 -69 -40 -69v10l-10 -10h-39q-27 0 -30 49h-10q0 -37 -70 -49v-20l10 -10v-10l-30 -20h-39l-10 10l-10 -10h-40l-30 10l-50 -10 h-288l-30 30q114 139 189 139q0 30 50 30l10 30l-10 259l49 49v30q-39 0 -39 60q-56 0 -130 209q-16 0 -109 219l-60 99q-50 29 -50 60h-50q-109 15 -109 50zM178 1255l70 -80l40 20l-10 10v10q20 40 49 40v40l-39 -30l-30 50h-10q-46 -50 -70 -50v-10zM228 1255v20h10 l40 -40v-10h-20zM452 1593q20 170 69 187q0 25 60 42l40 -10l20 -9h10l10 9h10l10 -9v-10l-100 -230q-20 -45 -78 -45h-29q-39 17 -13 55v20h-9zM606 737l10 -10h20v30l-20 20z" />
<glyph unicode="&#xde;" horiz-adv-x="1246" d="M0 79v9l10 -9h19q0 84 128 117l138 -9q15 0 56 50h-1v155q0 16 69 29v10l-6 11l-40 -20l-10 10v56l-13 12l20 395v12l-7 6v187l20 20h10q0 -30 20 -30h19l30 20q0 18 -59 49l-20 -20l-20 20l30 29l-49 30l-40 -10l-9 10l-69 -10h-30l-9 10l-10 -10h-10q-70 0 -138 98v59 l20 20l20 -20q0 30 78 40l10 -10v-30l-19 -29q19 -40 58 -40v10q4 28 118 128h40q36 -39 167 -39l-10 10v9l10 10q68 -33 68 -49v-10h-19v-19l29 19l10 -10h10l49 59h39q74 -12 79 -39l10 10h19q23 0 30 -69q0 -98 -118 -98l-118 10l-69 -89l-10 -49l2 -24q44 29 94 95 l40 -30h118l40 -9l39 9q0 -25 89 -39v-10l-30 -29h-10v-10l69 -79q79 10 79 39h20q79 -161 79 -246v-10q0 -158 -30 -158h-10l-9 10l-10 -10h-40l-10 10l-59 -40l-10 10v10l30 30q0 246 -128 305l10 10q-61 36 -79 89q-57 -59 -207 -59h-10q-35 -35 -57 -52v-57l10 -30 l-10 -49v-108l-8 -187q85 -1 114 -30h20l236 20l30 -40l168 99l10 -10q-108 -217 -375 -217h-128q-42 -42 -66 -58q11 -58 29 -58l-10 -10v-10l29 -10l10 10l10 -10v-9l88 68h89q69 -45 69 -68l9 9h10l20 -19l-10 -10h-10l-10 10q0 -77 -88 -128h-638q-61 0 -99 69l-10 -10 h-9zM177 1247l19 -19h20l-20 19h-19zM429 441h10l4 4l-6 4zM471 1120h30q0 19 88 108q-39 0 -39 19h-10l-39 20l-30 -59l20 -29zM540 1277l10 -10v-20l10 10h10l-10 30l-10 -10h-10zM835 216v10l49 -49h-10zM853 1013l49 -49v-10h20v20l-59 39h-10zM1011 1023v20h10l29 -30 h-10z" />
<glyph unicode="&#xdf;" horiz-adv-x="1207" d="M-27 51v10h10l60 -60l-10 -10h-10zM13 71v50l149 139q-10 169 40 169l-40 50v76h-8l10 185q0 237 59 237h10l-10 10v10l10 9v11q-40 4 -40 29q0 166 129 305q101 47 226 69h99v9h32q383 -44 383 -323v-91q0 -99 -101 -231q118 -133 152 -142v-10l-11 -10h-10l-10 10v-10 l20 -60q-23 0 -30 -51l41 -50v-20l-21 -21h-10l-10 11l-30 -11v-10q30 0 30 -20l-40 -50v-10h30q5 40 30 40l10 -30q-11 -35 -22 -66l14 -3q-7 -28 -28 -33q-9 -21 -18 -40q-22 -78 -91 -140h-10l-11 6q-17 -7 -35 -7q-80 -50 -141 -50h-71v6q-129 44 -185 107 q-20 -5 -24 -49q-27 0 -89 -60l-10 10l-10 -10h-40q-318 0 -318 60zM304 570l41 -1q-13 -29 -24 -60v-279l80 -60l20 20v-20h10l29 10l20 -49l9 9q-27 40 -27 87v40q0 178 188 178l20 -50l10 10h20q0 -40 49 -49v-20h-9l-30 10v-99q44 -66 66 -83q45 9 84 33q42 49 61 80v12 q34 84 81 121l-71 162l-121 111h-161q-74 7 -36 101q8 20 26 20l30 -20h10l-10 70l10 10h10l40 -20l111 40v-10l-10 -10v-10q20 0 20 -40h21l30 20h60q0 30 61 60v31l-30 10v-30h-21l-70 90l-10 91l30 20q-46 131 -238 157h-32v15q-240 17 -303 -160l-17 -42l-20 -404z M870 884v10l41 41h10v-10l-41 -41h-10z" />
<glyph unicode="&#xe0;" horiz-adv-x="1104" d="M-3 266v97l19 19v-19h20l-29 39q90 142 193 174q-28 56 -145 97l-19 48l-10 -10h-10l-9 10v10h19v68q0 89 116 174h10l29 -19q0 24 97 48h19l10 -10l48 29h117l38 -29l97 29q1 -20 97 -87q49 -65 49 -97v-19l-39 -58l19 -29l-10 -39q20 0 20 -29h19v39h20l-10 -339v-116 q0 -54 58 -88l68 68l-10 39q49 68 107 68l29 -78l-20 -97l-38 20l-10 -10h-10l-29 10q-28 -49 -58 -49v-19l19 -19l-9 -39l-10 9l-10 -9h-9l-20 19l-67 -29h-49q-60 58 -87 58l-194 -106l-19 38l19 59q-39 -10 -39 -39l-9 9q-72 -13 -116 -67h-59q-98 0 -184 164 q-19 38 -19 107zM84 295h10q19 0 97 -97l58 -39h10l77 20h58l29 -20h20q144 78 174 175l-10 9v10l10 58v10q-30 0 -58 48v10h10l48 -39v10q-10 32 -39 39l-378 -58q-116 -93 -116 -136zM220 653q43 -38 68 -38l-59 58l-9 -10v-10zM268 702l58 -58l-19 -20h10l155 10l29 -19 q106 0 106 67h10l10 -9h9l10 9v20q-19 0 -19 48q-76 107 -136 107h-126q-97 -64 -97 -146v-9zM371 1403v10l10 15h10l10 4l53 -7l61 -51h24q-10 54 11 57q30 -58 50 -228h-9v-20q19 -38 -14 -55h-28q-58 0 -78 44zM656 624h19l19 39v19h-19l10 -9v-20h-29v-29zM849 4 q105 88 126 88v-10q-77 -97 -116 -97l-10 10v9z" />
<glyph unicode="&#xe1;" horiz-adv-x="1104" d="M-3 266v97l19 19v-19h20l-29 39q90 142 193 174q-28 56 -145 97l-19 48l-10 -10h-10l-9 10v10h19v68q0 89 116 174h10l29 -19q0 24 97 48h19l10 -10l48 29h117l38 -29l97 29q1 -20 97 -87q49 -65 49 -97v-19l-39 -58l19 -29l-10 -39q20 0 20 -29h19v39h20l-10 -339v-116 q0 -54 58 -88l68 68l-10 39q49 68 107 68l29 -78l-20 -97l-38 20l-10 -10h-10l-29 10q-28 -49 -58 -49v-19l19 -19l-9 -39l-10 9l-10 -9h-9l-20 19l-67 -29h-49q-60 58 -87 58l-194 -106l-19 38l19 59q-39 -10 -39 -39l-9 9q-72 -13 -116 -67h-59q-98 0 -184 164 q-19 38 -19 107zM84 295h10q19 0 97 -97l58 -39h10l77 20h58l29 -20h20q144 78 174 175l-10 9v10l10 58v10q-30 0 -58 48v10h10l48 -39v10q-10 32 -39 39l-378 -58q-116 -93 -116 -136zM220 653q43 -38 68 -38l-59 58l-9 -10v-10zM268 702l58 -58l-19 -20h10l155 10l29 -19 q106 0 106 67h10l10 -9h9l10 9v20q-19 0 -19 48q-76 107 -136 107h-126q-97 -64 -97 -146v-9zM321 1203q20 170 69 187q0 25 60 42l40 -10l20 -9h10l10 9h10l10 -9v-10l-100 -230q-20 -45 -78 -45h-29q-39 17 -13 55v20h-9zM656 624h19l19 39v19h-19l10 -9v-20h-29v-29z M849 4q105 88 126 88v-10q-77 -97 -116 -97l-10 10v9z" />
<glyph unicode="&#xe2;" horiz-adv-x="1104" d="M-3 266v97l19 19v-19h20l-29 39q90 142 193 174q-28 56 -145 97l-19 48l-10 -10h-10l-9 10v10h19v68q0 89 116 174h10l29 -19q0 24 97 48h19l10 -10l48 29h117l38 -29l97 29q1 -20 97 -87q49 -65 49 -97v-19l-39 -58l19 -29l-10 -39q20 0 20 -29h19v39h20l-10 -339v-116 q0 -54 58 -88l68 68l-10 39q49 68 107 68l29 -78l-20 -97l-38 20l-10 -10h-10l-29 10q-28 -49 -58 -49v-19l19 -19l-9 -39l-10 9l-10 -9h-9l-20 19l-67 -29h-49q-60 58 -87 58l-194 -106l-19 38l19 59q-39 -10 -39 -39l-9 9q-72 -13 -116 -67h-59q-98 0 -184 164 q-19 38 -19 107zM84 295h10q19 0 97 -97l58 -39h10l77 20h58l29 -20h20q144 78 174 175l-10 9v10l10 58v10q-30 0 -58 48v10h10l48 -39v10q-10 32 -39 39l-378 -58q-116 -93 -116 -136zM152 1156q-6 42 34 66l175 161q68 71 127 22l150 -124l10 -17l-3 -10l4 -6 q16 10 76 -39q22 -50 -46 -86l-43 -7q-111 126 -202 152l-3 -8l-6 -4l-13 9q-10 -6 -22 -9l-77 -69l3 -8l-57 -52q-36 -39 -107 29zM220 653q43 -38 68 -38l-59 58l-9 -10v-10zM268 702l58 -58l-19 -20h10l155 10l29 -19q106 0 106 67h10l10 -9h9l10 9v20q-19 0 -19 48 q-76 107 -136 107h-126q-97 -64 -97 -146v-9zM656 624h19l19 39v19h-19l10 -9v-20h-29v-29zM849 4q105 88 126 88v-10q-77 -97 -116 -97l-10 10v9z" />
<glyph unicode="&#xe3;" horiz-adv-x="1104" d="M-3 266v97l19 19v-19h20l-29 39q90 142 193 174q-28 56 -145 97l-19 48l-10 -10h-10l-9 10v10h19v68q0 89 116 174h10l29 -19q0 24 97 48h19l10 -10l48 29h117l38 -29l97 29q1 -20 97 -87q49 -65 49 -97v-19l-39 -58l19 -29l-10 -39q20 0 20 -29h19v39h20l-10 -339v-116 q0 -54 58 -88l68 68l-10 39q49 68 107 68l29 -78l-20 -97l-38 20l-10 -10h-10l-29 10q-28 -49 -58 -49v-19l19 -19l-9 -39l-10 9l-10 -9h-9l-20 19l-67 -29h-49q-60 58 -87 58l-194 -106l-19 38l19 59q-39 -10 -39 -39l-9 9q-72 -13 -116 -67h-59q-98 0 -184 164 q-19 38 -19 107zM84 295h10q19 0 97 -97l58 -39h10l77 20h58l29 -20h20q144 78 174 175l-10 9v10l10 58v10q-30 0 -58 48v10h10l48 -39v10q-10 32 -39 39l-378 -58q-116 -93 -116 -136zM162 1246q0 47 56.5 70.5t84.5 -23.5l8 8l59 -109l47 -2l-42 64l21 10h-6q54 86 140 86 h48q41 0 54 -31l39 8q87 -49 87 -111q0 -47 -71 -87l8 -8v-7l-16 -16l-8 8v8l8 7q-34 0 -92 40q-51 68 -103 15q-52 -77 -141 -64q-42 0 -94 23q-87 49 -87 111zM220 653q43 -38 68 -38l-59 58l-9 -10v-10zM268 702l58 -58l-19 -20h10l155 10l29 -19q106 0 106 67h10l10 -9 h9l10 9v20q-19 0 -19 48q-76 107 -136 107h-126q-97 -64 -97 -146v-9zM656 624h19l19 39v19h-19l10 -9v-20h-29v-29zM849 4q105 88 126 88v-10q-77 -97 -116 -97l-10 10v9z" />
<glyph unicode="&#xe4;" horiz-adv-x="1104" d="M-3 266v97l19 19v-19h20l-29 39q90 142 193 174q-28 56 -145 97l-19 48l-10 -10h-10l-9 10v10h19v68q0 89 116 174h10l29 -19q0 24 97 48h19l10 -10l48 29h117l38 -29l97 29q1 -20 97 -87q49 -65 49 -97v-19l-39 -58l19 -29l-10 -39q20 0 20 -29h19v39h20l-10 -339v-116 q0 -54 58 -88l68 68l-10 39q49 68 107 68l29 -78l-20 -97l-38 20l-10 -10h-10l-29 10q-28 -49 -58 -49v-19l19 -19l-9 -39l-10 9l-10 -9h-9l-20 19l-67 -29h-49q-60 58 -87 58l-194 -106l-19 38l19 59q-39 -10 -39 -39l-9 9q-72 -13 -116 -67h-59q-98 0 -184 164 q-19 38 -19 107zM84 295h10q19 0 97 -97l58 -39h10l77 20h58l29 -20h20q144 78 174 175l-10 9v10l10 58v10q-30 0 -58 48v10h10l48 -39v10q-10 32 -39 39l-378 -58q-116 -93 -116 -136zM104 1208l10 10v105l66 76l10 -10h9l38 29q15 -38 29 -38l38 38l10 -10l9 10h10 q33 0 47 -105v-29q0 -73 -85 -143h-96l-9 -9h-10q0 33 -76 76zM104 1208l10 10v105l66 76l10 -10h9l38 29q15 -38 29 -38l38 38l10 -10l9 10h10q33 0 47 -105v-29q0 -73 -85 -143h-96l-9 -9h-10q0 33 -76 76zM220 653q43 -38 68 -38l-59 58l-9 -10v-10zM268 702l58 -58 l-19 -20h10l155 10l29 -19q106 0 106 67h10l10 -9h9l10 9v20q-19 0 -19 48q-76 107 -136 107h-126q-97 -64 -97 -146v-9zM464 1313l25 38v10l47 47h19v-19l-9 10h-10l-9 -10v-5l95 -14l38 10l-28 38h9q76 -31 76 -114v-29q-14 -143 -133 -143h-10q-73 0 -95 48l-10 19z M546 1418v9l19 20h9v-10l-19 -19h-9zM656 624h19l19 39v19h-19l10 -9v-20h-29v-29zM849 4q105 88 126 88v-10q-77 -97 -116 -97l-10 10v9z" />
<glyph unicode="&#xe5;" horiz-adv-x="1104" d="M-3 266v97l19 19v-19h20l-29 39q90 142 193 174q-28 56 -145 97l-19 48l-10 -10h-10l-9 10v10h19v68q0 89 116 174h10l29 -19q0 24 97 48h19l10 -10l48 29h117l38 -29l97 29q1 -20 97 -87q49 -65 49 -97v-19l-39 -58l19 -29l-10 -39q20 0 20 -29h19v39h20l-10 -339v-116 q0 -54 58 -88l68 68l-10 39q49 68 107 68l29 -78l-20 -97l-38 20l-10 -10h-10l-29 10q-28 -49 -58 -49v-19l19 -19l-9 -39l-10 9l-10 -9h-9l-20 19l-67 -29h-49q-60 58 -87 58l-194 -106l-19 38l19 59q-39 -10 -39 -39l-9 9q-72 -13 -116 -67h-59q-98 0 -184 164 q-19 38 -19 107zM84 295h10q19 0 97 -97l58 -39h10l77 20h58l29 -20h20q144 78 174 175l-10 9v10l10 58v10q-30 0 -58 48v10h10l48 -39v10q-10 32 -39 39l-378 -58q-116 -93 -116 -136zM192 1251v6q6 32 117 135q0 20 28 20q22 -20 103 21l43 -7l21 7q146 -44 146 -170v-39 q-11 -80 -87 -169q-53 -42 -117 -58v6q2 3 4 4q-51 -11 -94 -7q-9 -5 -19 -10q-79 26 -101 71l-8 -6h-8l-13 13l51 53l-29 50q-6 -5 -15 -5l-7 6v7l29 39l-8 20h15l-7 5v8l35 51l-6 7h-7q0 -14 -44 -46q0 -20 -16 -20zM220 653q43 -38 68 -38l-59 58l-9 -10v-10zM229 1172h7 q4 0 7 -1q-3 14 -2 28l-5 -1q0 -18 -7 -26zM268 702l58 -58l-19 -20h10l155 10l29 -19q106 0 106 67h10l10 -9h9l10 9v20q-19 0 -19 48q-76 107 -136 107h-126q-97 -64 -97 -146v-9zM303 1160h12q0 -44 89 -69q67 -8 115 63l-6 6l21 78v5q0 54 -73 72h-37l-50 -32h-37 q0 -10 -31 -34q-23 -46 -3 -89zM656 624h19l19 39v19h-19l10 -9v-20h-29v-29zM849 4q105 88 126 88v-10q-77 -97 -116 -97l-10 10v9z" />
<glyph unicode="&#xe6;" horiz-adv-x="1611" d="M-3 266v97l19 19v-19h20l-29 39q90 142 193 174q-28 56 -145 97l-19 48l-10 -10h-10l-9 10v10h19v68q0 89 116 174h10l29 -19q0 24 97 48h19l10 -10l48 29h117l38 -29l97 29q1 -20 97 -87q13 -18 23 -33q48 68 195 159l114 31q118 0 155 -42l31 42l11 -11l20 21 q2 -29 239 -249v-10q-21 0 -21 -52l-31 -10l10 -52q0 -21 -31 -21v-10l21 -21q0 24 42 41q31 -6 31 -83v-20l-11 -11l11 -10v-10q0 -31 -104 -52h-197l-384 -11q0 -28 -51 -62l-2 -9l-2 -49q53 -46 76 -108l156 -124l-11 -10h114q48 0 114 72l187 176q93 0 93 -83 q0 -81 -135 -228q-147 -83 -290 -93l-10 10v11l-11 -11h-31l-20 21l10 10q-52 0 -52 21l11 11l-21 31q-80 0 -125 -42l-68 57l-22 -78h-34q-60 58 -87 58l-194 -106l-19 38l19 59q-39 -10 -39 -39l-9 9q-72 -13 -116 -67h-59q-98 0 -184 164q-19 38 -19 107zM84 295h10 q19 0 97 -97l58 -39h10l77 20h58l29 -20h20q144 78 174 175l-10 9v10l10 58v10q-30 0 -58 48v10h10l48 -39v10q-10 32 -39 39l-378 -58q-116 -93 -116 -136zM220 653q43 -38 68 -38l-59 58l-9 -10v-10zM268 702l58 -58l-19 -20h10l155 10l29 -19q106 0 106 67h10l10 -9 q2 22 5 40q-5 12 -5 37q-76 107 -136 107h-126q-97 -64 -97 -146v-9zM772 251h5l10 31q-9 0 -15 2v-33zM797 728q2 -36 83 -83l11 10h342l10 -10q62 38 93 93q-84 166 -228 166h-93q-134 0 -218 -176zM1419 427v10l11 11h10l10 -11v-10l-10 -10h-10zM1471 417l11 10h10 l52 -62l-11 -10h-10z" />
<glyph unicode="&#xe7;" horiz-adv-x="905" d="M2 442v147q0 148 79 207l10 10v10l-10 29l118 128l137 118h128l50 -29l9 9h10q140 0 256 -206l20 -59v-40q0 -123 -89 -167h-49q-108 26 -108 79l-10 -10h-10l-10 10v10h20q0 41 39 78l-19 50l9 -10h20v10q0 32 -79 78v-19l-19 19l10 10q-216 0 -276 -98q-41 -49 -69 -49 l-10 -266l20 -89l-29 -29q32 -55 127 -99l69 -88l30 20h59q26 -22 98 -30q167 92 167 236l30 20h49q20 0 40 -89q-20 -108 -40 -108v20l-10 -10h-9v20h-69q-117 -82 -217 -256l-10 10h-68q-138 23 -138 59l19 19v20l-9 -10h-10l-10 10l-10 -10h-10q-112 45 -147 128l10 30 q-59 46 -69 98l19 20q-39 0 -39 59zM236 -308l20 20v-29h10l10 9q0 30 20 30q41 -4 30 -49q154 -12 147 89q-30 75 -151 49q-17 2 -9 20l35 114l-3 33l6 23h126q-2 -11 -3 -23l-24 -72q127 -7 142 -133q0 -148 -209 -188l-97 8q-77 44 -50 80v19zM268 176l39 -29h10v9 l-49 30v-10zM602 58v20q20 0 79 78l79 59v-9q0 -66 -138 -148h-20z" />
<glyph unicode="&#xe8;" horiz-adv-x="983" d="M3 520q0 249 41 249l-10 31q0 42 52 42q0 83 218 218l114 31q118 0 155 -42l31 42l11 -11l20 21q2 -29 239 -249v-10q-21 0 -21 -52l-31 -10l10 -52q0 -21 -31 -21v-10l21 -21q0 24 42 41q31 -6 31 -83v-20l-11 -11l11 -10v-10q0 -31 -104 -52h-197l-384 -11 q0 -28 -51 -62l-11 -41v-11q59 -48 83 -114l156 -124l-11 -10h114q48 0 114 72l187 176q93 0 93 -83q0 -81 -135 -228q-147 -83 -290 -93l-10 10v11l-11 -11h-31l-20 21l10 10q-52 0 -52 21l11 11l-21 31q-80 0 -125 -42l-124 104l41 52q-41 0 -41 72h10l-10 11v10l10 10v11 h-10l-31 -21q-52 0 -52 207zM107 292l41 -41h11l10 31q-31 0 -31 31l-31 -10v-11zM179 728q2 -36 83 -83l11 10h342l10 -10q62 38 93 93q-84 166 -228 166h-93q-134 0 -218 -176zM365 1403v10l10 15h10l10 4l53 -7l61 -51h24q-10 54 11 57q30 -58 50 -228h-9v-20 q19 -38 -14 -55h-28q-58 0 -78 44zM801 427v10l11 11h10l10 -11v-10l-10 -10h-10zM853 417l11 10h10l52 -62l-11 -10h-10z" />
<glyph unicode="&#xe9;" horiz-adv-x="983" d="M3 520q0 249 41 249l-10 31q0 42 52 42q0 83 218 218l114 31q118 0 155 -42l31 42l11 -11l20 21q2 -29 239 -249v-10q-21 0 -21 -52l-31 -10l10 -52q0 -21 -31 -21v-10l21 -21q0 24 42 41q31 -6 31 -83v-20l-11 -11l11 -10v-10q0 -31 -104 -52h-197l-384 -11 q0 -28 -51 -62l-11 -41v-11q59 -48 83 -114l156 -124l-11 -10h114q48 0 114 72l187 176q93 0 93 -83q0 -81 -135 -228q-147 -83 -290 -93l-10 10v11l-11 -11h-31l-20 21l10 10q-52 0 -52 21l11 11l-21 31q-80 0 -125 -42l-124 104l41 52q-41 0 -41 72h10l-10 11v10l10 10v11 h-10l-31 -21q-52 0 -52 207zM107 292l41 -41h11l10 31q-31 0 -31 31l-31 -10v-11zM179 728q2 -36 83 -83l11 10h342l10 -10q62 38 93 93q-84 166 -228 166h-93q-134 0 -218 -176zM315 1203q20 170 69 187q0 25 60 42l40 -10l20 -9h10l10 9h10l10 -9v-10l-100 -230 q-20 -45 -78 -45h-29q-39 17 -13 55v20h-9zM801 427v10l11 11h10l10 -11v-10l-10 -10h-10zM853 417l11 10h10l52 -62l-11 -10h-10z" />
<glyph unicode="&#xea;" horiz-adv-x="983" d="M3 520q0 249 41 249l-10 31q0 42 52 42q0 83 218 218l114 31q118 0 155 -42l31 42l11 -11l20 21q2 -29 239 -249v-10q-21 0 -21 -52l-31 -10l10 -52q0 -21 -31 -21v-10l21 -21q0 24 42 41q31 -6 31 -83v-20l-11 -11l11 -10v-10q0 -31 -104 -52h-197l-384 -11 q0 -28 -51 -62l-11 -41v-11q59 -48 83 -114l156 -124l-11 -10h114q48 0 114 72l187 176q93 0 93 -83q0 -81 -135 -228q-147 -83 -290 -93l-10 10v11l-11 -11h-31l-20 21l10 10q-52 0 -52 21l11 11l-21 31q-80 0 -125 -42l-124 104l41 52q-41 0 -41 72h10l-10 11v10l10 10v11 h-10l-31 -21q-52 0 -52 207zM107 292l41 -41h11l10 31q-31 0 -31 31l-31 -10v-11zM176 1156q-6 42 34 66l175 161q68 71 127 22l150 -124l10 -17l-3 -10l4 -6q16 10 76 -39q22 -50 -46 -86l-43 -7q-111 126 -202 152l-3 -8l-6 -4l-13 9q-10 -6 -22 -9l-77 -69l3 -8l-57 -52 q-36 -39 -107 29zM179 728q2 -36 83 -83l11 10h342l10 -10q62 38 93 93q-84 166 -228 166h-93q-134 0 -218 -176zM801 427v10l11 11h10l10 -11v-10l-10 -10h-10zM853 417l11 10h10l52 -62l-11 -10h-10z" />
<glyph unicode="&#xeb;" horiz-adv-x="983" d="M3 520q0 249 41 249l-10 31q0 42 52 42q0 83 218 218l114 31q118 0 155 -42l31 42l11 -11l20 21q2 -29 239 -249v-10q-21 0 -21 -52l-31 -10l10 -52q0 -21 -31 -21v-10l21 -21q0 24 42 41q31 -6 31 -83v-20l-11 -11l11 -10v-10q0 -31 -104 -52h-197l-384 -11 q0 -28 -51 -62l-11 -41v-11q59 -48 83 -114l156 -124l-11 -10h114q48 0 114 72l187 176q93 0 93 -83q0 -81 -135 -228q-147 -83 -290 -93l-10 10v11l-11 -11h-31l-20 21l10 10q-52 0 -52 21l11 11l-21 31q-80 0 -125 -42l-124 104l41 52q-41 0 -41 72h10l-10 11v10l10 10v11 h-10l-31 -21q-52 0 -52 207zM107 292l41 -41h11l10 31q-31 0 -31 31l-31 -10v-11zM158 1208l10 10v105l66 76l10 -10h9l38 29q15 -38 29 -38l38 38l10 -10l9 10h10q33 0 47 -105v-29q0 -73 -85 -143h-96l-9 -9h-10q0 33 -76 76zM158 1208l10 10v105l66 76l10 -10h9l38 29 q15 -38 29 -38l38 38l10 -10l9 10h10q33 0 47 -105v-29q0 -73 -85 -143h-96l-9 -9h-10q0 33 -76 76zM179 728q2 -36 83 -83l11 10h342l10 -10q62 38 93 93q-84 166 -228 166h-93q-134 0 -218 -176zM518 1313l25 38v10l47 47h19v-19l-9 10h-10l-9 -10v-5l95 -14l38 10l-28 38 h9q76 -31 76 -114v-29q-14 -143 -133 -143h-10q-73 0 -95 48l-10 19zM600 1418v9l19 20h9v-10l-19 -19h-9zM801 427v10l11 11h10l10 -11v-10l-10 -10h-10zM853 417l11 10h10l52 -62l-11 -10h-10z" />
<glyph unicode="&#xec;" horiz-adv-x="808" d="M-39 41v10h10l59 -59v-10h-10zM1 91q0 118 108 118l30 -39l10 10h89l10 -10h10q0 20 49 20l20 89h20v-20l138 99l10 -10v-89q0 -55 69 -79v-10l10 10h30l9 -10l30 10l79 -10l30 29l10 -9v-10l-50 -60v-29l30 20l20 -20q-24 0 -50 -30l-39 20l-139 -30q0 -39 -59 -39v-10 l-119 10h-207l-40 -10q-89 5 -89 39l10 30h-10zM30 931l30 20l-10 10v9q75 60 178 60l49 -30l70 20v-20q-40 -5 -40 -30v-19h10l30 10l9 -30l129 59l20 -89l-10 -49v-435l-20 -20l-40 20v-10l20 -30q-39 -22 -39 -59l-10 10h-10l20 69h-10l-59 -39l-10 10v49l10 30l-10 49 v326q0 20 -30 20l-10 10v10l10 10q-40 0 -40 39q-71 0 -177 -79l-10 10q-50 53 -50 89zM332 1403v10l10 15h10l10 4l53 -7l61 -51h24q-10 54 11 57q30 -58 50 -228h-9v-20q19 -38 -14 -55h-28q-58 0 -78 44z" />
<glyph unicode="&#xed;" horiz-adv-x="808" d="M-39 41v10h10l59 -59v-10h-10zM1 91q0 118 108 118l30 -39l10 10h89l10 -10h10q0 20 49 20l20 89h20v-20l138 99l10 -10v-89q0 -55 69 -79v-10l10 10h30l9 -10l30 10l79 -10l30 29l10 -9v-10l-50 -60v-29l30 20l20 -20q-24 0 -50 -30l-39 20l-139 -30q0 -39 -59 -39v-10 l-119 10h-207l-40 -10q-89 5 -89 39l10 30h-10zM30 931l30 20l-10 10v9q75 60 178 60l49 -30l70 20v-20q-40 -5 -40 -30v-19h10l30 10l9 -30l129 59l20 -89l-10 -49v-435l-20 -20l-40 20v-10l20 -30q-39 -22 -39 -59l-10 10h-10l20 69h-10l-59 -39l-10 10v49l10 30l-10 49 v326q0 20 -30 20l-10 10v10l10 10q-40 0 -40 39q-71 0 -177 -79l-10 10q-50 53 -50 89zM312 1203q20 170 69 187q0 25 60 42l40 -10l20 -9h10l10 9h10l10 -9v-10l-100 -230q-20 -45 -78 -45h-29q-39 17 -13 55v20h-9z" />
<glyph unicode="&#xee;" horiz-adv-x="808" d="M-39 41v10h10l59 -59v-10h-10zM1 91q0 118 108 118l30 -39l10 10h89l10 -10h10q0 20 49 20l20 89h20v-20l138 99l10 -10v-89q0 -55 69 -79v-10l10 10h30l9 -10l30 10l79 -10l30 29l10 -9v-10l-50 -60v-29l30 20l20 -20q-24 0 -50 -30l-39 20l-139 -30q0 -39 -59 -39v-10 l-119 10h-207l-40 -10q-89 5 -89 39l10 30h-10zM30 931l30 20l-10 10v9q75 60 178 60l49 -30l70 20v-20q-40 -5 -40 -30v-19h10l30 10l9 -30l129 59l20 -89l-10 -49v-435l-20 -20l-40 20v-10l20 -30q-39 -22 -39 -59l-10 10h-10l20 69h-10l-59 -39l-10 10v49l10 30l-10 49 v326q0 20 -30 20l-10 10v10l10 10q-40 0 -40 39q-71 0 -177 -79l-10 10q-50 53 -50 89zM173 1156q-6 42 34 66l175 161q68 71 127 22l150 -124l10 -17l-3 -10l4 -6q16 10 76 -39q22 -50 -46 -86l-43 -7q-111 126 -202 152l-3 -8l-6 -4l-13 9q-10 -6 -22 -9l-77 -69l3 -8 l-57 -52q-36 -39 -107 29z" />
<glyph unicode="&#xef;" horiz-adv-x="808" d="M-39 41v10h10l59 -59v-10h-10zM1 91q0 118 108 118l30 -39l10 10h89l10 -10h10q0 20 49 20l20 89h20v-20l138 99l10 -10v-89q0 -55 69 -79v-10l10 10h30l9 -10l30 10l79 -10l30 29l10 -9v-10l-50 -60v-29l30 20l20 -20q-24 0 -50 -30l-39 20l-139 -30q0 -39 -59 -39v-10 l-119 10h-207l-40 -10q-89 5 -89 39l10 30h-10zM30 931l30 20l-10 10v9q75 60 178 60l49 -30l70 20v-20q-40 -5 -40 -30v-19h10l30 10l9 -30l129 59l20 -89l-10 -49v-435l-20 -20l-40 20v-10l20 -30q-39 -22 -39 -59l-10 10h-10l20 69h-10l-59 -39l-10 10v49l10 30l-10 49 v326q0 20 -30 20l-10 10v10l10 10q-40 0 -40 39q-71 0 -177 -79l-10 10q-50 53 -50 89zM125 1208l10 10v105l66 76l10 -10h9l38 29q15 -38 29 -38l38 38l10 -10l9 10h10q33 0 47 -105v-29q0 -73 -85 -143h-96l-9 -9h-10q0 33 -76 76zM125 1208l10 10v105l66 76l10 -10h9 l38 29q15 -38 29 -38l38 38l10 -10l9 10h10q33 0 47 -105v-29q0 -73 -85 -143h-96l-9 -9h-10q0 33 -76 76zM485 1313l25 38v10l47 47h19v-19l-9 10h-10l-9 -10v-5l95 -14l38 10l-28 38h9q76 -31 76 -114v-29q-14 -143 -133 -143h-10q-73 0 -95 48l-10 19zM567 1418v9l19 20 h9v-10l-19 -19h-9z" />
<glyph unicode="&#xf0;" d="M0 465q70 41 70 59v10l-10 10v10l30 20l19 -20l-10 -10v-10l10 -10h10l30 20h10v-20l-10 -9q0 -147 120 -249q29 0 29 -50l10 10h20q36 0 80 -40h50l39 10l40 -10q31 0 169 179l20 20h10l-10 10v10l20 149q0 235 -179 329l-99 29h-70q-101 0 -219 -218q-20 -100 -99 -100 q0 -25 -40 -30q-40 15 -40 30l20 20l-10 10v20q8 152 219 368l-10 10v10l169 60q60 -10 60 -30l99 20q52 -14 93 -32q-17 35 -42 66l-74 -8h-219q-91 0 -91 100q27 38 87 42l63 -99l23 5l-12 103q-60 12 -67 80q-7 72 69 88q138 -20 226 -113q62 -21 99 -53l117 10l51 -17 l27 -28v-27q-18 -91 -91 -91h-10q91 -87 91 -265l-9 -69q23 0 29 -58v-57q8 -42 8 -85q-47 -319 -139 -428q-92 -89 -179 -139l-10 10l10 10v20h-10v-20l-20 20h10l-10 30h-30v-10l20 -60l-10 -10l-10 10h-20l-30 -20h-19q-251 50 -309 150l-10 -10h-10q-68 0 -139 338z M597 117h20l20 20q-20 23 -20 69h-10v-20h-10l10 -10v-10zM686 903l75 -27l-28 68l-47 -22v-19z" />
<glyph unicode="&#xf1;" horiz-adv-x="1141" d="M-27 51v10h10l60 -60l-10 -10h-10zM-27 906l10 10h10l89 -99l-10 -10h-9zM-27 936v10l10 10h10l10 -10v-10l-10 -10h-10zM13 71v50l149 139q0 169 50 169l-40 50v229l20 29q-20 68 -149 160l-30 49v10l20 30l-20 20l50 40l29 -20l10 10h10l80 -10l30 10q99 0 119 -139 l50 -30h10q34 13 99 119q64 26 70 50l50 -10h10q15 0 29 40q289 -34 289 -249l-10 -179v-20l10 -40l-10 -40v-79l10 -40l-10 -40v-89h-20l-10 30l-30 -10v-10q38 -65 80 -80h10v10q-30 0 -30 20v10h10l129 -110v-59l-30 -40l20 -20l-10 -10h-20l-9 10h-10l-20 -20h-50 l-299 10l-19 30l99 89h40l50 -9q39 53 39 89l-29 50l19 40l-10 29l-19 -19h19q0 -20 -59 -30l10 10v248l-10 60l30 90l-30 29v10q0 20 30 20q-43 100 -100 100h-99q-202 -132 -279 -348v-130l-10 -149l80 -60l20 20v-20h10l29 10l20 -49l10 9h10l10 -9v-10q-25 0 -30 -50 q-27 0 -89 -60l-10 10l-10 -10h-40q-318 0 -318 60zM227 1246q0 47 56.5 70.5t84.5 -23.5l8 8l59 -109l47 -2l-42 64l21 10h-6q54 86 140 86h48q41 0 54 -31l39 8q87 -49 87 -111q0 -47 -71 -87l8 -8v-7l-16 -16l-8 8v8l8 7q-34 0 -92 40q-51 68 -103 15q-52 -77 -141 -64 q-42 0 -94 23q-87 49 -87 111z" />
<glyph unicode="&#xf2;" d="M0 465q70 41 70 59v10l-10 10v10l30 20l19 -20l-10 -10v-10l10 -10h10l30 20h10v-20l-10 -9q0 -147 120 -249q29 0 29 -50l10 10h20q36 0 80 -40h50l39 10l40 -10q31 0 169 179l20 20h10l-10 10v10l20 149q0 235 -179 329l-99 29h-70q-101 0 -219 -218q-20 -100 -99 -100 q0 -25 -40 -30q-40 15 -40 30l20 20l-10 10v20q8 152 219 368l-10 10v10l169 60q60 -10 60 -30l99 20q149 -40 199 -110l-10 -10q179 -184 179 -388q-47 -319 -139 -428q-92 -89 -179 -139l-10 10l10 10v20h-10v-20l-20 20h10l-10 30h-30v-10l20 -60l-10 -10l-10 10h-20 l-30 -20h-19q-251 50 -309 150l-10 -10h-10q-68 0 -139 338zM368 1403v10l10 15h10l10 4l53 -7l61 -51h24q-10 54 11 57q30 -58 50 -228h-9v-20q19 -38 -14 -55h-28q-58 0 -78 44zM597 117h20l20 20q-20 23 -20 69h-10v-20h-10l10 -10v-10zM686 903l90 -50l10 10v10 q-60 39 -60 69h-20l-20 -20v-19z" />
<glyph unicode="&#xf3;" d="M0 465q70 41 70 59v10l-10 10v10l30 20l19 -20l-10 -10v-10l10 -10h10l30 20h10v-20l-10 -9q0 -147 120 -249q29 0 29 -50l10 10h20q36 0 80 -40h50l39 10l40 -10q31 0 169 179l20 20h10l-10 10v10l20 149q0 235 -179 329l-99 29h-70q-101 0 -219 -218q-20 -100 -99 -100 q0 -25 -40 -30q-40 15 -40 30l20 20l-10 10v20q8 152 219 368l-10 10v10l169 60q60 -10 60 -30l99 20q149 -40 199 -110l-10 -10q179 -184 179 -388q-47 -319 -139 -428q-92 -89 -179 -139l-10 10l10 10v20h-10v-20l-20 20h10l-10 30h-30v-10l20 -60l-10 -10l-10 10h-20 l-30 -20h-19q-251 50 -309 150l-10 -10h-10q-68 0 -139 338zM318 1203q20 170 69 187q0 25 60 42l40 -10l20 -9h10l10 9h10l10 -9v-10l-100 -230q-20 -45 -78 -45h-29q-39 17 -13 55v20h-9zM597 117h20l20 20q-20 23 -20 69h-10v-20h-10l10 -10v-10zM686 903l90 -50l10 10 v10q-60 39 -60 69h-20l-20 -20v-19z" />
<glyph unicode="&#xf4;" d="M0 465q70 41 70 59v10l-10 10v10l30 20l19 -20l-10 -10v-10l10 -10h10l30 20h10v-20l-10 -9q0 -147 120 -249q29 0 29 -50l10 10h20q36 0 80 -40h50l39 10l40 -10q31 0 169 179l20 20h10l-10 10v10l20 149q0 235 -179 329l-99 29h-70q-101 0 -219 -218q-20 -100 -99 -100 q0 -25 -40 -30q-40 15 -40 30l20 20l-10 10v20q8 152 219 368l-10 10v10l169 60q60 -10 60 -30l99 20q149 -40 199 -110l-10 -10q179 -184 179 -388q-47 -319 -139 -428q-92 -89 -179 -139l-10 10l10 10v20h-10v-20l-20 20h10l-10 30h-30v-10l20 -60l-10 -10l-10 10h-20 l-30 -20h-19q-251 50 -309 150l-10 -10h-10q-68 0 -139 338zM169 1156q-6 42 34 66l175 161q68 71 127 22l150 -124l10 -17l-3 -10l4 -6q16 10 76 -39q22 -50 -46 -86l-43 -7q-111 126 -202 152l-3 -8l-6 -4l-13 9q-10 -6 -22 -9l-77 -69l3 -8l-57 -52q-36 -39 -107 29z M597 117h20l20 20q-20 23 -20 69h-10v-20h-10l10 -10v-10zM686 903l90 -50l10 10v10q-60 39 -60 69h-20l-20 -20v-19z" />
<glyph unicode="&#xf5;" d="M0 465q70 41 70 59v10l-10 10v10l30 20l19 -20l-10 -10v-10l10 -10h10l30 20h10v-20l-10 -9q0 -147 120 -249q29 0 29 -50l10 10h20q36 0 80 -40h50l39 10l40 -10q31 0 169 179l20 20h10l-10 10v10l20 149q0 235 -179 329l-99 29h-70q-101 0 -219 -218q-20 -100 -99 -100 q0 -25 -40 -30q-40 15 -40 30l20 20l-10 10v20q8 152 219 368l-10 10v10l169 60q60 -10 60 -30l99 20q149 -40 199 -110l-10 -10q179 -184 179 -388q-47 -319 -139 -428q-92 -89 -179 -139l-10 10l10 10v20h-10v-20l-20 20h10l-10 30h-30v-10l20 -60l-10 -10l-10 10h-20 l-30 -20h-19q-251 50 -309 150l-10 -10h-10q-68 0 -139 338zM159 1246q0 47 56.5 70.5t84.5 -23.5l8 8l59 -109l47 -2l-42 64l21 10h-6q54 86 140 86h48q41 0 54 -31l39 8q87 -49 87 -111q0 -47 -71 -87l8 -8v-7l-16 -16l-8 8v8l8 7q-34 0 -92 40q-51 68 -103 15 q-52 -77 -141 -64q-42 0 -94 23q-87 49 -87 111zM597 117h20l20 20q-20 23 -20 69h-10v-20h-10l10 -10v-10zM686 903l90 -50l10 10v10q-60 39 -60 69h-20l-20 -20v-19z" />
<glyph unicode="&#xf6;" d="M0 465q70 41 70 59v10l-10 10v10l30 20l19 -20l-10 -10v-10l10 -10h10l30 20h10v-20l-10 -9q0 -147 120 -249q29 0 29 -50l10 10h20q36 0 80 -40h50l39 10l40 -10q31 0 169 179l20 20h10l-10 10v10l20 149q0 235 -179 329l-99 29h-70q-101 0 -219 -218q-20 -100 -99 -100 q0 -25 -40 -30q-40 15 -40 30l20 20l-10 10v20q8 152 219 368l-10 10v10l169 60q60 -10 60 -30l99 20q149 -40 199 -110l-10 -10q179 -184 179 -388q-47 -319 -139 -428q-92 -89 -179 -139l-10 10l10 10v20h-10v-20l-20 20h10l-10 30h-30v-10l20 -60l-10 -10l-10 10h-20 l-30 -20h-19q-251 50 -309 150l-10 -10h-10q-68 0 -139 338zM151 1208l10 10v105l66 76l10 -10h9l38 29q15 -38 29 -38l38 38l10 -10l9 10h10q33 0 47 -105v-29q0 -73 -85 -143h-96l-9 -9h-10q0 33 -76 76zM151 1208l10 10v105l66 76l10 -10h9l38 29q15 -38 29 -38l38 38 l10 -10l9 10h10q33 0 47 -105v-29q0 -73 -85 -143h-96l-9 -9h-10q0 33 -76 76zM511 1313l25 38v10l47 47h19v-19l-9 10h-10l-9 -10v-5l95 -14l38 10l-28 38h9q76 -31 76 -114v-29q-14 -143 -133 -143h-10q-73 0 -95 48l-10 19zM593 1418v9l19 20h9v-10l-19 -19h-9zM597 117 h20l20 20q-20 23 -20 69h-10v-20h-10l10 -10v-10zM686 903l90 -50l10 10v10q-60 39 -60 69h-20l-20 -20v-19z" />
<glyph unicode="&#xf7;" horiz-adv-x="670" d="M6 782q27 38 100 64l46 -9h109q31 0 64 27h55l36 -9l37 9l72 -36h137l27 -28v-27q-18 -91 -91 -91h-136l-64 9l-82 -9h-219q-91 0 -91 100zM200 330l10 9v115l38 47l-19 19h9l10 -9q45 28 143 47l105 -76h-20v-86q0 -76 -85 -133h-96l-9 -10h-10q0 34 -76 77zM238 1026 v19q84 114 115 114l-20 19v-19h-28v48l38 19l38 -10l38 10l-28 38h9q76 -31 76 -114v-29q-14 -143 -133 -143h-10q-73 0 -95 48zM248 1197v10l47 47h19v-19l-9 10h-10l-9 -10v-9l19 -19zM305 1264v9l19 20h9v-10l-19 -19h-9z" />
<glyph unicode="&#xf8;" d="M-2 -106h16l-8 8v8l40 40l-8 40l103 137h-2q-68 0 -139 338q70 41 70 59v10l-10 10v10l30 20l19 -20l-10 -10v-10l10 -10h10l30 20h10v-20l-10 -9q0 -113 71 -199l76 142q30 22 113 193l-8 8v32q56 70 134 202l-67 19h-70q-101 0 -219 -218q-20 -100 -99 -100 q0 -25 -40 -30q-40 15 -40 30l20 20l-10 10v20q8 152 219 368l-10 10v10l169 60q60 -10 60 -30l99 20q44 -12 79 -26q12 22 25 46l-8 25q64 193 169 193h8l8 -8h8l16 16l24 -32v-32q-43 -73 -148 -270q10 -11 18 -22l-10 -10q179 -184 179 -388q-47 -319 -139 -428 q-92 -89 -179 -139l-10 10l10 10v20h-10v-20l-20 20h10l-10 30h-30v-10l20 -60l-10 -10l-10 10h-20l-30 -20h-19q-143 28 -223 73q-73 -148 -110 -183h-8l-8 8l-48 -40l-9 8l-56 -32l-8 8v65zM327 226h1q36 0 80 -40h50l39 10l40 -10q31 0 169 179l20 20h10l-10 10v10 l20 149q0 180 -105 277q-126 -241 -314 -605zM597 117h20l20 20q-20 23 -20 69h-10v-20h-10l10 -10v-10zM686 903l90 -50l10 10v10q-60 39 -60 69h-20l-13 -13q-3 -7 -7 -14v-12z" />
<glyph unicode="&#xf9;" horiz-adv-x="1186" d="M-1 950l10 10h10l62 -72l-11 -10h-10zM50 970l20 31l-10 10q31 0 72 41h153l51 10q31 -39 31 -92v-163l-11 -31l11 -51v-61q0 -460 81 -460l41 -30h51q112 0 266 245v-11l30 11l-10 173v21l10 61l-10 41l10 10h11q0 130 -72 174l-51 10q0 16 -71 41v40l71 62l51 -10h92 l51 10l10 -10l21 20q30 0 40 -143v-674q0 -25 113 -61l30 -41v-10q-21 -41 -51 -41l21 -31l-10 -10l-11 10h-30v-20q30 0 30 -21v-10h-20l-31 21l-30 -21l-92 10l-31 -10v10l10 11v10q-33 0 -92 82l-10 10h-10q-135 -133 -245 -133h-72q-136 0 -224 174l-10 10l10 10v10 q-43 0 -51 215v61q0 82 61 82v20l-51 61l20 102q0 86 -61 143l10 11v10q-61 0 -81 41q-31 0 -31 20zM91 858v10l10 10h10l11 -10v-10l-11 -10h-10zM326 1103l10 10h10l61 -71l-10 -11h-10zM466 1403v10l10 15h10l10 4l53 -7l61 -51h24q-10 54 11 57q30 -58 50 -228h-9v-20 q19 -38 -14 -55h-28q-58 0 -78 44zM724 848v10l10 10h10l11 -10v-10l-11 -11h-10zM744 878h21l20 -20l-10 -10h-10z" />
<glyph unicode="&#xfa;" horiz-adv-x="1186" d="M-1 950l10 10h10l62 -72l-11 -10h-10zM50 970l20 31l-10 10q31 0 72 41h153l51 10q31 -39 31 -92v-163l-11 -31l11 -51v-61q0 -460 81 -460l41 -30h51q112 0 266 245v-11l30 11l-10 173v21l10 61l-10 41l10 10h11q0 130 -72 174l-51 10q0 16 -71 41v40l71 62l51 -10h92 l51 10l10 -10l21 20q30 0 40 -143v-674q0 -25 113 -61l30 -41v-10q-21 -41 -51 -41l21 -31l-10 -10l-11 10h-30v-20q30 0 30 -21v-10h-20l-31 21l-30 -21l-92 10l-31 -10v10l10 11v10q-33 0 -92 82l-10 10h-10q-135 -133 -245 -133h-72q-136 0 -224 174l-10 10l10 10v10 q-43 0 -51 215v61q0 82 61 82v20l-51 61l20 102q0 86 -61 143l10 11v10q-61 0 -81 41q-31 0 -31 20zM91 858v10l10 10h10l11 -10v-10l-11 -10h-10zM326 1103l10 10h10l61 -71l-10 -11h-10zM416 1203q20 170 69 187q0 25 60 42l40 -10l20 -9h10l10 9h10l10 -9v-10l-100 -230 q-20 -45 -78 -45h-29q-39 17 -13 55v20h-9zM724 848v10l10 10h10l11 -10v-10l-11 -11h-10zM744 878h21l20 -20l-10 -10h-10z" />
<glyph unicode="&#xfb;" horiz-adv-x="1186" d="M-1 950l10 10h10l62 -72l-11 -10h-10zM50 970l20 31l-10 10q31 0 72 41h153l51 10q31 -39 31 -92v-163l-11 -31l11 -51v-61q0 -460 81 -460l41 -30h51q112 0 266 245v-11l30 11l-10 173v21l10 61l-10 41l10 10h11q0 130 -72 174l-51 10q0 16 -71 41v40l71 62l51 -10h92 l51 10l10 -10l21 20q30 0 40 -143v-674q0 -25 113 -61l30 -41v-10q-21 -41 -51 -41l21 -31l-10 -10l-11 10h-30v-20q30 0 30 -21v-10h-20l-31 21l-30 -21l-92 10l-31 -10v10l10 11v10q-33 0 -92 82l-10 10h-10q-135 -133 -245 -133h-72q-136 0 -224 174l-10 10l10 10v10 q-43 0 -51 215v61q0 82 61 82v20l-51 61l20 102q0 86 -61 143l10 11v10q-61 0 -81 41q-31 0 -31 20zM91 858v10l10 10h10l11 -10v-10l-11 -10h-10zM277 1156q-6 42 34 66l175 161q68 71 127 22l150 -124l10 -17l-3 -10l4 -6q16 10 76 -39q22 -50 -46 -86l-43 -7 q-111 126 -202 152l-3 -8l-6 -4l-13 9q-10 -6 -22 -9l-77 -69l3 -8l-57 -52q-36 -39 -107 29zM326 1103l10 10h10l61 -71l-10 -11h-10zM724 848v10l10 10h10l11 -10v-10l-11 -11h-10zM744 878h21l20 -20l-10 -10h-10z" />
<glyph unicode="&#xfc;" horiz-adv-x="1186" d="M-1 950l10 10h10l62 -72l-11 -10h-10zM50 970l20 31l-10 10q31 0 72 41h153l51 10q31 -39 31 -92v-163l-11 -31l11 -51v-61q0 -460 81 -460l41 -30h51q112 0 266 245v-11l30 11l-10 173v21l10 61l-10 41l10 10h11q0 130 -72 174l-51 10q0 16 -71 41v40l71 62l51 -10h92 l51 10l10 -10l21 20q30 0 40 -143v-674q0 -25 113 -61l30 -41v-10q-21 -41 -51 -41l21 -31l-10 -10l-11 10h-30v-20q30 0 30 -21v-10h-20l-31 21l-30 -21l-92 10l-31 -10v10l10 11v10q-33 0 -92 82l-10 10h-10q-135 -133 -245 -133h-72q-136 0 -224 174l-10 10l10 10v10 q-43 0 -51 215v61q0 82 61 82v20l-51 61l20 102q0 86 -61 143l10 11v10q-61 0 -81 41q-31 0 -31 20zM91 858v10l10 10h10l11 -10v-10l-11 -10h-10zM259 1208l10 10v105l66 76l10 -10h9l38 29q15 -38 29 -38l38 38l10 -10l9 10h10q33 0 47 -105v-29q0 -73 -85 -143h-96l-9 -9 h-10q0 33 -76 76zM259 1208l10 10v105l66 76l10 -10h9l38 29q15 -38 29 -38l38 38l10 -10l9 10h10q33 0 47 -105v-29q0 -73 -85 -143h-96l-9 -9h-10q0 33 -76 76zM326 1103l10 10h10l61 -71l-10 -11h-10zM619 1313l25 38v10l47 47h19v-19l-9 10h-10l-9 -10v-5l95 -14l38 10 l-28 38h9q76 -31 76 -114v-29q-14 -143 -133 -143h-10q-73 0 -95 48l-10 19zM701 1418v9l19 20h9v-10l-19 -19h-9zM724 848v10l10 10h10l11 -10v-10l-11 -11h-10zM744 878h21l20 -20l-10 -10h-10z" />
<glyph unicode="&#xfd;" horiz-adv-x="1165" d="M-18 867l10 9h9l69 -78l-10 -9h-10zM11 -108q89 127 185 127l10 9q68 -48 68 -117v-48q59 -14 59 -69h10q25 7 185 195q19 0 68 59l49 29l10 -10v-9q-137 -439 -361 -439h-68l-98 29l10 49h-10l-10 -10h-9q-98 49 -98 146v59zM31 857v58q0 72 29 78l10 -9l9 9h244l10 30 q185 0 185 -108l-127 -146l49 -117l-10 -39l20 -19v-10l-10 -10l29 -39v20h10q15 0 78 -176l49 -29q58 49 58 117h10l-10 29q12 119 69 176l-10 9v10l29 107q-117 85 -117 137l107 78h127l39 10q85 -39 166 -49l19 19l20 -19v-68q0 -88 -176 -88v-10l-10 -10 q-57 0 -126 -321q-127 -390 -156 -390q-16 39 -68 39h-10v-10l29 -29l-10 -39h-39q0 39 -19 39l-29 -20h-10v49l-127 331l20 20l-30 88l-9 -10h-10q-56 67 -78 214q-52 69 -127 69q-97 0 -97 29zM167 -274v-10h20l9 30h-9zM294 798h39l-20 20zM343 828l19 -30l-10 -9l10 -10 h10l49 68l-39 39q-39 -15 -39 -29v-29zM438 1203q20 170 69 187q0 25 60 42l40 -10l20 -9h10l10 9h10l10 -9v-10l-100 -230q-20 -45 -78 -45h-29q-39 17 -13 55v20h-9zM586 935l10 10h10l10 -10v-20h-10z" />
<glyph unicode="&#xfe;" horiz-adv-x="1173" d="M5 -284q0 109 69 109l50 -10h30q90 56 90 139l149 70l10 -10v-139q0 -50 69 -80v-10l10 10h60l10 -10h10l30 30q30 -55 30 -109q-26 -80 -90 -80h-448q-79 52 -79 90zM5 1302v41l29 41l-19 20l9 10h21l10 -10h10l21 20h30q51 -17 72 -91q50 7 50 51l93 20q51 -13 51 -30 l-10 -10v-11q30 0 50 -41q-40 0 -50 -60h10l30 10l10 -10v-10l-10 -11l10 -70v-215q24 -17 40 -17h10q0 100 299 120l40 -10h10l-10 10v10l10 9h9q22 -49 130 -129q119 -189 119 -358v-50q0 -385 -288 -507l-140 -20l-49 10l10 -10v-10l-10 -10h-10l-80 100l10 10l-70 39 q-109 -50 -109 -109l-40 -20l-10 10v10q15 0 30 40h-30l-30 -20h-10l-9 199l9 40l-3 35l-10 10v71l10 10l-10 11v51l7 7l-3 4v9q0 14 31 41l6 30h-10q-31 0 -31 20v193q0 81 12 112l-2 133l10 1v99q0 71 -12 122l-18 -19v19l-31 10v-10l20 -21h-73l-20 21l41 30v51h-10 q0 -40 -21 -40h-10l-10 10h-10l-10 -21l-31 21l-41 -21zM228 1221h2v2zM419 427q26 -102 143 -214q32 -60 79 -60h70l70 10l10 -10v20q49 0 129 169v20h10l-10 10v219l-10 40l10 30q-123 228 -189 228l-129 20l-30 -10l-60 20q-32 -40 -89 -59q0 -5 -1 -10v-80h1l79 50 l10 -10v-10l-89 -100l10 -10v-9l-11 -33v-36l1 -1v-10l-1 -6v-90l1 -4l-1 -4v-67zM592 -155q69 -42 69 -60v-10h-10l-59 60v10z" />
<glyph unicode="&#xff;" horiz-adv-x="1165" d="M-18 867l10 9h9l69 -78l-10 -9h-10zM11 -108q89 127 185 127l10 9q68 -48 68 -117v-48q59 -14 59 -69h10q25 7 185 195q19 0 68 59l49 29l10 -10v-9q-137 -439 -361 -439h-68l-98 29l10 49h-10l-10 -10h-9q-98 49 -98 146v59zM31 857v58q0 72 29 78l10 -9l9 9h244l10 30 q185 0 185 -108l-127 -146l49 -117l-10 -39l20 -19v-10l-10 -10l29 -39v20h10q15 0 78 -176l49 -29q58 49 58 117h10l-10 29q12 119 69 176l-10 9v10l29 107q-117 85 -117 137l107 78h127l39 10q85 -39 166 -49l19 19l20 -19v-68q0 -88 -176 -88v-10l-10 -10 q-57 0 -126 -321q-127 -390 -156 -390q-16 39 -68 39h-10v-10l29 -29l-10 -39h-39q0 39 -19 39l-29 -20h-10v49l-127 331l20 20l-30 88l-9 -10h-10q-56 67 -78 214q-52 69 -127 69q-97 0 -97 29zM167 -274v-10h20l9 30h-9zM241 1208l10 10v105l66 76l10 -10h9l38 29 q15 -38 29 -38l38 38l10 -10l9 10h10q33 0 47 -105v-29q0 -73 -85 -143h-96l-9 -9h-10q0 33 -76 76zM241 1208l10 10v105l66 76l10 -10h9l38 29q15 -38 29 -38l38 38l10 -10l9 10h10q33 0 47 -105v-29q0 -73 -85 -143h-96l-9 -9h-10q0 33 -76 76zM294 798h39l-20 20z M343 828l19 -30l-10 -9l10 -10h10l49 68l-39 39q-39 -15 -39 -29v-29zM586 935l10 10h10l10 -10v-20h-10zM601 1313l25 38v10l47 47h19v-19l-9 10h-10l-9 -10v-5l95 -14l38 10l-28 38h9q76 -31 76 -114v-29q-14 -143 -133 -143h-10q-73 0 -95 48l-10 19zM683 1418v9l19 20h9 v-10l-19 -19h-9z" />
<glyph unicode="&#x152;" horiz-adv-x="1632" d="M-1 545v222l10 10v10l9 -10h20l87 87q-18 0 -78 106l-9 10q72 252 116 261l9 -10h10q89 126 280 184l10 9v10q64 0 121 -21l215 -8l29 9v-9l-29 -49h19v-10l10 10h10l29 -20l10 10h49l-10 -10v-10h10q93 0 206 108h78q24 -29 138 -39q0 -27 127 -39v-20l49 10v-393 l10 -39q0 -47 -78 -78q-79 26 -79 49v196q0 70 -98 147h-265l-68 10q0 -40 -69 -69l-10 -245v-29q35 -69 98 -69q66 0 157 157l-10 49v10q41 56 89 78h9q30 -6 30 -78v-373l-49 10l19 -89l-9 -9h-30l-49 39h-10l-58 -30q-40 89 -99 89l-78 -79v-353q29 0 78 -49h79l157 20 q10 -30 59 -30q70 0 147 98l-10 69v157q73 88 118 88q29 -32 29 -59l10 10h10l19 -19v-10l-9 10h-20l10 -10l-10 -49l10 -98h-10l10 -10l-10 -49v-59l10 -49h-20q0 29 -19 29l-10 -9v-10l59 -79q0 -52 -89 -117h-10l-49 49h-19q0 -69 -187 -69h-9l-59 10l-98 -10h-334 q-107 0 -173 8l-26 -6h-48q-65 0 -280 126q-78 100 -78 125l20 20l-39 58q-63 0 -87 212zM154 661l29 -193l-20 -20v-9q204 -232 222 -232q129 0 162 -16q28 15 114 37q0 39 49 39v68l10 30l-10 49v78l10 30l-10 49v206l-10 49l20 20l-29 39l39 19l-20 30v39l7 133 q-58 75 -149 125l-54 -3h-20q-47 0 -66 29q-186 -38 -274 -490v-106zM838 1277l49 10v10l-20 19l-19 -19l-10 9v-29zM1073 404v20l10 -10h20v49l127 108l10 -10v-147l-10 -10l10 -10v-9l-39 -40h-20q-30 0 -108 59zM1260 1051v20h9l20 -20l-10 -9h-10zM1495 130h10l19 19h-9 z" />
<glyph unicode="&#x153;" horiz-adv-x="1710" d="M0 465q70 41 70 59v10l-10 10v10l30 20l19 -20l-10 -10v-10l10 -10h10l30 20h10v-20l-10 -9q0 -147 120 -249q29 0 29 -50l10 10h20q36 0 80 -40h50l39 10l40 -10q31 0 169 179l20 20h10l-10 10v10l6 44q-2 32 -2 71q0 86 5 142q-34 150 -168 221l-99 29h-70 q-101 0 -219 -218q-20 -100 -99 -100q0 -25 -40 -30q-40 15 -40 30l20 20l-10 10v20q8 152 219 368l-10 10v10l169 60q60 -10 60 -30l99 20q149 -40 199 -110l-10 -10q46 -48 81 -97q25 78 214 195l114 31q118 0 155 -42l31 42l11 -11l20 21q2 -29 239 -249v-10 q-21 0 -21 -52l-31 -10l10 -52q0 -21 -31 -21v-10l21 -21q0 24 42 41q31 -6 31 -83v-20l-11 -11l11 -10v-10q0 -31 -104 -52h-197l-384 -11q0 -25 -41 -55q-6 -34 -14 -65q54 -46 76 -108l156 -124l-11 -10h114q48 0 114 72l187 176q93 0 93 -83q0 -81 -135 -228 q-147 -83 -290 -93l-10 10v11l-11 -11h-31l-20 21l10 10q-52 0 -52 21l11 11l-21 31q-80 0 -125 -42l-124 104l41 52q-16 0 -26 12q-24 -53 -52 -86q-92 -89 -179 -139l-10 10l10 10v20h-10v-20l-20 20h10l-10 30h-30v-10l20 -60l-10 -10l-10 10h-20l-30 -20h-19 q-251 50 -309 150l-10 -10h-10q-68 0 -139 338zM597 117h20l20 20q-20 23 -20 69h-10v-20h-10l10 -10v-10zM686 903l90 -50l10 10v10q-60 39 -60 69h-20l-20 -20v-19zM847 279l28 -28h11l10 31q-31 0 -31 31l-7 -2q-5 -17 -11 -32zM906 728q2 -36 83 -83l11 10h342l10 -10 q62 38 93 93q-84 166 -228 166h-93q-134 0 -218 -176zM1528 427v10l11 11h10l10 -11v-10l-10 -10h-10zM1580 417l11 10h10l52 -62l-11 -10h-10z" />
<glyph unicode="&#x178;" horiz-adv-x="1234" d="M-1 1265v40q69 99 189 99q73 0 110 -70l39 -29h10q0 42 50 89l-10 10v10l10 10l119 -80v-10l-9 10h-20v-29q0 -39 -90 -130h-10l169 -388v-10q74 0 100 110l40 89h10l10 -10h9l70 150q0 94 -109 159l-10 49v10q20 70 59 70l10 10v10l50 -10h149l40 -30l80 20 q99 -36 99 -99q0 -62 -49 -90l-10 10q-155 0 -219 -229q-219 -418 -219 -488v-169q0 -179 109 -179h50l30 20h30q37 -40 79 -40l10 -10v-10q-23 -69 -40 -69v10l-10 -10h-39q-27 0 -30 49h-10q0 -37 -70 -49v-20l10 -10v-10l-30 -20h-39l-10 10l-10 -10h-40l-30 10l-50 -10 h-288l-30 30q114 139 189 139q0 30 50 30l10 30l-10 259l49 49v30q-39 0 -39 60q-56 0 -130 209q-16 0 -109 219l-60 99q-50 29 -50 60h-50q-109 15 -109 50zM178 1255l70 -80l40 20l-10 10v10q20 40 49 40v40l-39 -30l-30 50h-10q-46 -50 -70 -50v-10zM228 1255v20h10 l40 -40v-10h-20zM275 1598l10 10v105l66 76l10 -10h9l38 29q15 -38 29 -38l38 38l10 -10l9 10h10q33 0 47 -105v-29q0 -73 -85 -143h-96l-9 -9h-10q0 33 -76 76zM275 1598l10 10v105l66 76l10 -10h9l38 29q15 -38 29 -38l38 38l10 -10l9 10h10q33 0 47 -105v-29 q0 -73 -85 -143h-96l-9 -9h-10q0 33 -76 76zM606 737l10 -10h20v30l-20 20zM635 1703l25 38v10l47 47h19v-19l-9 10h-10l-9 -10v-5l95 -14l38 10l-28 38h9q76 -31 76 -114v-29q-14 -143 -133 -143h-10q-73 0 -95 48l-10 19zM717 1808v9l19 20h9v-10l-19 -19h-9z" />
<glyph unicode="&#x2c6;" horiz-adv-x="678" d="M55 1156q-6 42 34 66l175 161q68 71 127 22l150 -124l10 -17l-3 -10l4 -6q16 10 76 -39q22 -50 -46 -86l-43 -7q-111 126 -202 152l-3 -8l-6 -4l-13 9q-10 -6 -22 -9l-77 -69l3 -8l-57 -52q-36 -39 -107 29z" />
<glyph unicode="&#x2dc;" horiz-adv-x="730" d="M60 1246q0 47 56.5 70.5t84.5 -23.5l8 8l59 -109l47 -2l-42 64l21 10h-6q54 86 140 86h48q41 0 54 -31l39 8q87 -49 87 -111q0 -47 -71 -87l8 -8v-7l-16 -16l-8 8v8l8 7q-34 0 -92 40q-51 68 -103 15q-52 -77 -141 -64q-42 0 -94 23q-87 49 -87 111z" />
<glyph unicode="&#x2000;" horiz-adv-x="918" />
<glyph unicode="&#x2001;" horiz-adv-x="1837" />
<glyph unicode="&#x2002;" horiz-adv-x="918" />
<glyph unicode="&#x2003;" horiz-adv-x="1837" />
<glyph unicode="&#x2004;" horiz-adv-x="612" />
<glyph unicode="&#x2005;" horiz-adv-x="459" />
<glyph unicode="&#x2006;" horiz-adv-x="306" />
<glyph unicode="&#x2007;" horiz-adv-x="306" />
<glyph unicode="&#x2008;" horiz-adv-x="229" />
<glyph unicode="&#x2009;" horiz-adv-x="367" />
<glyph unicode="&#x200a;" horiz-adv-x="102" />
<glyph unicode="&#x2010;" horiz-adv-x="670" d="M6 782q27 38 100 64l46 -9h109q31 0 64 27h55l36 -9l37 9l72 -36h137l27 -28v-27q-18 -91 -91 -91h-136l-64 9l-82 -9h-219q-91 0 -91 100z" />
<glyph unicode="&#x2011;" horiz-adv-x="670" d="M6 782q27 38 100 64l46 -9h109q31 0 64 27h55l36 -9l37 9l72 -36h137l27 -28v-27q-18 -91 -91 -91h-136l-64 9l-82 -9h-219q-91 0 -91 100z" />
<glyph unicode="&#x2012;" horiz-adv-x="670" d="M6 782q27 38 100 64l46 -9h109q31 0 64 27h55l36 -9l37 9l72 -36h137l27 -28v-27q-18 -91 -91 -91h-136l-64 9l-82 -9h-219q-91 0 -91 100z" />
<glyph unicode="&#x2013;" horiz-adv-x="1011" d="M6 782q40 38 150 64l69 -9h163q47 0 96 27h83l54 -9l55 9l108 -36h206l40 -28v-27q-27 -91 -136 -91h-204l-96 9l-123 -9h-329q-136 0 -136 100z" />
<glyph unicode="&#x2014;" horiz-adv-x="2035" d="M6 782q81 38 300 64l138 -9h327q93 0 192 27h164l108 -9l111 9l216 -36h411l81 -28v-27q-54 -91 -273 -91h-408l-192 9l-245 -9h-657q-273 0 -273 100z" />
<glyph unicode="&#x2018;" horiz-adv-x="430" d="M15 1259q50 382 210 382l76 -19v-29l-9 -9l9 -10v-19q-69 -60 -95 -191v-19q124 -112 124 -133l9 9h10l19 -19v-9h-10l-9 9h-10v-105l-38 -47v9l-9 -9h-10q-47 16 -44 17l5 -18h-10q-19 0 -25 15h-19v-31h-9l-10 10q-38 -7 -59 -3h-10q-86 72 -86 219zM243 1660l9 9h10 l57 -66l-10 -10h-9z" />
<glyph unicode="&#x2019;" horiz-adv-x="430" d="M-15 1500v9h10l9 -9h10v105l38 47v-9l9 9h10q47 -16 44 -17l-5 18h10q19 0 25 -15h19v31h9l10 -10q38 7 59 3h10q86 -72 86 -219q-50 -382 -210 -382l-76 19v29l9 9l-9 10v19q69 60 95 191v19q-124 112 -124 133l-9 -9h-10zM4 1099l10 10h9l57 -67l-9 -9h-10z" />
<glyph unicode="&#x201a;" horiz-adv-x="445" d="M0 96v9h10l9 -9h10v105l38 47v-9l9 9h10q47 -16 47 -47l10 9h10q19 0 19 -28h19v38h9l10 -10q38 7 47 48h10q86 -72 86 -219q-50 -382 -210 -382l-76 19v29l9 9l-9 10v19q69 60 95 191v19q-124 112 -124 133l-9 -9h-10zM19 -305l10 10h9l57 -67l-9 -9h-10z" />
<glyph unicode="&#x201c;" horiz-adv-x="902" d="M-9 1129q57 326 129 326q27 50 79 50q98 0 98 -79l-108 -218v-19l29 -40l-19 -30l79 -69l39 10l10 -10v-89q-67 -96 -168 -128q-168 47 -168 296zM258 1524v10h10l69 -69l-10 -10h-10zM455 1149q0 254 178 375l50 10q79 0 79 -89q0 -24 -99 -168l-10 -39v-20q35 0 49 -59 q35 0 60 -49q49 -13 49 -30q-20 0 -30 -109l-89 -98l-9 -10h-70q-158 54 -158 286zM722 1554l10 10h10l59 -69l-10 -10h-10zM762 1169h9l40 -40h-10z" />
<glyph unicode="&#x201d;" horiz-adv-x="902" d="M-9 1268h10l39 -40h-9zM-9 1317q20 0 30 109l89 98l9 10h70q158 -54 158 -286q0 -254 -178 -375l-50 -10q-79 0 -79 89q0 24 99 168l10 39v20q-35 0 -49 59q-35 0 -60 49q-49 13 -49 30zM1 902l10 10h10l59 -69l-10 -10h-10zM465 932l10 10h10l59 -69v-10h-10zM475 1347 v89q67 96 168 128q168 -47 168 -296q-57 -326 -129 -326q-27 -50 -79 -50q-98 0 -98 79l108 218v19l-29 40l19 30l-79 69l-39 -10z" />
<glyph unicode="&#x201e;" horiz-adv-x="902" d="M5 -8h10l39 -40h-9zM5 41q20 0 30 109l89 98l9 10h70q158 -54 158 -286q0 -254 -178 -375l-50 -10q-79 0 -79 89q0 24 99 168l10 39v20q-35 0 -49 59q-35 0 -60 49q-49 13 -49 30zM15 -374l10 10h10l59 -69l-10 -10h-10zM479 -344l10 10h10l59 -69v-10h-10zM489 71v89 q67 96 168 128q168 -47 168 -296q-57 -326 -129 -326q-27 -50 -79 -50q-98 0 -98 79l108 218v19l-29 40l19 30l-79 69l-39 -10z" />
<glyph unicode="&#x202f;" horiz-adv-x="367" />
<glyph unicode="&#x205f;" horiz-adv-x="459" />
<glyph unicode="&#x20ac;" horiz-adv-x="1071" d="M6 566q27 38 100 64l61 -12q9 0 18 1q-3 41 -5 89v30l17 20l-6 36h-94q-91 0 -91 100q27 38 100 64l50 -121l23 5l-12 104q30 1 56 1h50v10l17 20v-30q38 0 65 -1h55l36 -9l37 9l128 11l51 -17l27 -28v-27q-18 -91 -91 -91h-136l-64 9l-66 -7v-108q0 -30 4 -69 q10 -1 19 -1h55l36 -9l37 9l128 11l51 -17l27 -28v-27q-18 -91 -91 -91h-136l-64 9l-43 -5q5 -28 11 -60l-17 -20q82 -140 219 -229h34q43 0 111 70q101 70 101 129q47 153 84 179l26 -10v10l17 20q17 -20 25 -119q0 -253 -237 -418l-76 -20h-51q-245 0 -338 249v10 q0 19 85 29v10l-34 30q0 40 -67 40v10l-8 -10h-9q-18 0 -31 96h-103q-91 0 -91 100zM206 957l67 139l-16 20q81 197 219 278q43 20 177 30q97 -36 153 -99l8 10q83 99 110 99l8 -10v-10l-17 -40l34 -39l-8 -10h-9l-34 39q-50 -69 -75 -69v-10l17 -20l33 40h8l34 -30l26 20 l8 -10v-20h-8l8 -119v-209q0 -73 -76 -120q-34 0 -67 110q8 40 34 40v29l-17 20l8 10v20q-42 0 -68 70l9 10v10q-89 99 -144 99h-118l-135 -159l-9 10h-17l-126 -139l-9 10h-8z" />
<glyph unicode="&#x2122;" horiz-adv-x="1076" d="M1 1342l5 20v24l40 36h81l5 -4q13 0 13 12l5 4h31q22 -1 22 -8l5 4h18v-8h-14v-4q14 0 14 -12q27 0 49 24l14 4l53 -20q0 -8 18 -8l5 -4v-4h-5q0 -12 14 -12v-8h-14l9 -8l32 4v8q-14 0 -14 8l14 12l4 -4l-4 -4v-8l40 20l5 -4v-140q0 -8 -14 -8v-20l9 -16q0 -16 -27 -16 q0 -12 -13 -20v-4h-5q0 13 -40 36v4l4 -4h9v80q0 34 -36 52q0 6 -35 16q0 -12 -36 -36v-120l4 -239l41 -28h9l26 4q45 -15 45 -24l-4 -3l4 -4v-16q-19 -32 -49 -32h-18l-49 8h-23l-76 -12h-27q-33 0 -36 12l9 12l-18 4v8l5 -4h9l-9 24h4l14 -8h4l72 51l4 20l-4 4l-4 -4h-9 v171l-5 120l31 40l-9 8v4l5 4v4h-5l-4 -4h-4l-5 4v8h-9q0 12 -13 12v8q-49 0 -81 -52q-12 -116 -27 -116l-27 -4h-5q-16 8 -22 24h4l-4 4v104zM445 1375l13 12v-4l-4 -4v-4l27 -24l-5 -4h-4zM463 897l27 19l4 -4h5l26 28l-4 4v8h9v40l-5 20l5 12l-5 83v16l14 12q0 -8 27 -12 v4l27 16l4 -4v-179l5 4h4l32 -28l-5 -4h-4l-18 16v-12q-14 0 -14 -8q41 -6 41 -19v-4h4q0 17 32 27l-32 152l9 8l-13 11v20l4 4l45 20q10 0 18 -71q22 -1 22 -12v-4h-4l-13 8v-8h8l-4 -4v-8h4l32 24l22 -4l23 20h4v-4l-18 -136q9 0 36 -24h5q31 17 31 24v4l-5 179 q-26 4 -26 24h-9q0 -19 -45 -48h-5l-9 8h5l-5 12q36 260 54 260l18 -4l-4 19v4q14 0 40 28h22l18 -12h23l4 4h4l14 -12h4v8h5l18 -16l-9 -8l4 -4v-15l-40 -36l-4 4h-5q0 -22 -13 -32v-4l13 -16v-76l-22 4l-32 -16h-27l9 12v4h-13q-17 -33 -18 -56l36 -28l40 40q-13 0 -13 8 v12l9 8l4 -24l5 4h4l5 -4l4 4h9v-143q-27 -19 -27 -40l18 -20l14 4v-4q0 -25 40 -40q22 -26 22 -39v-4l-4 -4l4 -4v-4q0 -8 -40 -20l-85 4l-45 -4l-36 16h-9l-31 -24l-14 4l-13 -4v4q-22 14 -22 24h-14l-31 -24l-5 4l-4 -4h-5l-13 4l-23 -4h-36v8h45v12q-22 0 -22 12l-9 -8 l-36 12l-9 -8l-14 4v-4l-4 -4v-4l18 -16v-4h-36q0 12 -9 12v-8h-4l-14 12l9 8q-13 0 -13 8zM463 1394q0 31 76 40l67 -4l14 4l-5 -4v-4q41 0 59 -143q-15 -12 -27 -12v-8l13 -28h5l4 4h5l13 -36q-9 -20 -27 -20v-8l9 -12v-4l-9 -8l-22 36l-5 -4h-9q0 16 -18 16q0 12 -9 12 l-4 -28l-5 4h-27l-22 -16l-9 8v92l-5 36l5 24q0 7 -63 44zM548 901h13l-4 4v4l4 3v4h-9zM597 1223l9 -8l9 8l-13 4h-5v-4zM606 1331h9l5 12h-9zM611 1243l22 -20l9 8l-9 8l5 4v8h-9zM638 940v4l4 4v4l-4 4h4l9 -8l-9 -8h-4zM817 1131h5l17 -16h-4zM826 1195v4l4 4h9v-4 l-9 -8zM862 980l4 -4q18 6 18 12l-9 8h-9z" />
<glyph unicode="&#x25fc;" horiz-adv-x="1045" d="M0 0v1045h1045v-1045h-1045z" />
</font>
</defs>
</svg>
